{
DisplayStrings = (
"/gjmI/gjKA  /gjmI/gjKHA  /gjmI/gjGA  /gjmI/gjGHA  /gjmI/gjNGA  /gjmI/gjCA  /gjmI/gjCHA  /gjmI/gjJA  /gjmI/gjJHA  /gjmI/gjNYA  /gjmI/gjTTA  /gjmI/gjTTHA  /gjmI/gjDDA  /gjmI/gjDDHA \012/gjmI/gjNNA  /gjmI/gjTA  /gjmI/gjTHA  /gjmI/gjDA  /gjmI.alt/gjDHA  /gjmI.alt/gjD_YA  /gjmI/gjNA  /gjmI/gjPA  /gjmI/gjPHA  /gjmI/gjBA  /gjmI/gjBHA  /gjmI/gjMA  /gjmI/gjYA  /gjmI/gjRA \012/gjmI/gjLA  /gjmI/gjLLA  /gjmI/gjVA  /gjmI/gjSHA  /gjmI/gjSSA  /gjmI/gjSA  /gjmI/gjHA \012/gjKA/gjmII  /gjKHA/gjmII  /gjGA/gjmII  /gjGHA/gjmII  /gjNGA/gjmII  /gjCA/gjmII  /gjCHA/gjmII  /gjJA/gjmII.alt  /gjJHA/gjmII  /gjNYA/gjmII  /gjTTA/gjmII  /gjTTHA/gjmII  /gjDDA/gjmII  /gjDDHA/gjmII \012/gjNNA/gjmII  /gjTA/gjmII  /gjTHA/gjmII  /gjDA/gjmII  /gjDHA/gjmII  /gjNA/gjmII  /gjPA/gjmII  /gjPHA/gjmII  /gjBA/gjmII  /gjBHA/gjmII  /gjMA/gjmII  /gjYA/gjmII  /gjRA/gjmII \012/gjLA/gjmII  /gjLLA/gjmII  /gjVA/gjmII  /gjSHA/gjmII  /gjSSA/gjmII  /gjSA/gjmII  /gjHA/gjmII  ",

glyphs = (
{
glyphname = A;
lastChange = "2015-10-04 15:13:33 +0000";
layers = (
{
associatedMasterId = "FF8CB9F1-2B98-444C-A502-96421F2531A8";
background = {
paths = (
{
closed = 0;
nodes = (
"213 499 LINE SMOOTH",
"122 507 OFFCURVE",
"52 461 OFFCURVE",
"44 371 CURVE SMOOTH",
"40 326 OFFCURVE",
"69 283 OFFCURVE",
"86 281 CURVE SMOOTH",
"99 281 OFFCURVE",
"135 322 OFFCURVE",
"221 313 CURVE SMOOTH"
);
},
{
closed = 0;
nodes = (
"121 211 LINE",
"104 216 OFFCURVE",
"91 220 OFFCURVE",
"65 220 CURVE SMOOTH",
"26 220 OFFCURVE",
"-19 200 OFFCURVE",
"-35 137 CURVE SMOOTH",
"-54 64 OFFCURVE",
"-12 -4 OFFCURVE",
"66 -4 CURVE SMOOTH",
"150 -4 OFFCURVE",
"189 50 OFFCURVE",
"213 135 CURVE SMOOTH"
);
}
);
};
guideLines = (
{
angle = 73.5707;
position = "{114, 538}";
},
{
angle = 73.5707;
position = "{34, 508}";
},
{
angle = 59.097;
position = "{452, 725}";
}
);
layerId = "DE5D4294-BFB7-480E-B29D-C92DF58E3261";
name = "V1: Narrow";
paths = (
{
closed = 1;
nodes = (
"449 679 OFFCURVE",
"395 642 OFFCURVE",
"333 532 CURVE SMOOTH",
"141 189 LINE",
"120 205 OFFCURVE",
"96 218 OFFCURVE",
"64 218 CURVE SMOOTH",
"24 218 OFFCURVE",
"-20 196 OFFCURVE",
"-35 136 CURVE SMOOTH",
"-51 70 OFFCURVE",
"-15 -4 OFFCURVE",
"77 -4 CURVE SMOOTH",
"125 -4 OFFCURVE",
"156 19 OFFCURVE",
"195 88 CURVE SMOOTH",
"421 490 LINE SMOOTH",
"445 533 OFFCURVE",
"456 543 OFFCURVE",
"472 543 CURVE SMOOTH",
"487 543 OFFCURVE",
"497 532 OFFCURVE",
"489 506 CURVE SMOOTH",
"372 118 LINE SMOOTH",
"354 57 OFFCURVE",
"318 69 OFFCURVE",
"305 39 CURVE SMOOTH",
"295 15 OFFCURVE",
"310 0 OFFCURVE",
"346 0 CURVE SMOOTH",
"583 0 LINE SMOOTH",
"619 0 OFFCURVE",
"637 6 OFFCURVE",
"642 25 CURVE SMOOTH",
"654 58 OFFCURVE",
"606 54 OFFCURVE",
"624 118 CURVE SMOOTH",
"720 451 LINE SMOOTH",
"758 582 OFFCURVE",
"694 679 OFFCURVE",
"545 679 CURVE SMOOTH"
);
},
{
closed = 1;
nodes = (
"110 489 OFFCURVE",
"64 452 OFFCURVE",
"49 395 CURVE SMOOTH",
"30 322 OFFCURVE",
"76 281 OFFCURVE",
"97 281 CURVE SMOOTH",
"117 281 OFFCURVE",
"138 312 OFFCURVE",
"175 312 CURVE SMOOTH",
"233 312 OFFCURVE",
"263 217 OFFCURVE",
"365 217 CURVE SMOOTH",
"411 217 OFFCURVE",
"441 243 OFFCURVE",
"465 286 CURVE",
"444 352 LINE",
"432 324 OFFCURVE",
"424 311 OFFCURVE",
"401 311 CURVE SMOOTH",
"314 311 OFFCURVE",
"296 489 OFFCURVE",
"161 489 CURVE SMOOTH"
);
}
);
width = 719;
},
{
anchors = (
{
name = bottom;
position = "{287, 0}";
},
{
name = ogonek;
position = "{488, 0}";
},
{
name = top;
position = "{513, 651}";
}
);
background = {
paths = (
{
closed = 1;
nodes = (
"50 509 OFFCURVE",
"5 471 OFFCURVE",
"-7 419 CURVE SMOOTH",
"-23 352 OFFCURVE",
"19 301 OFFCURVE",
"44 301 CURVE SMOOTH",
"64 301 OFFCURVE",
"81 332 OFFCURVE",
"118 332 CURVE SMOOTH",
"184 332 OFFCURVE",
"222 199 OFFCURVE",
"332 199 CURVE SMOOTH",
"373 199 OFFCURVE",
"402 222 OFFCURVE",
"433 256 CURVE",
"431 351 LINE",
"417 319 OFFCURVE",
"396 306 OFFCURVE",
"366 306 CURVE SMOOTH",
"268 306 OFFCURVE",
"254 509 OFFCURVE",
"114 509 CURVE SMOOTH"
);
},
{
closed = 1;
nodes = (
"85 205 OFFCURVE",
"62 218 OFFCURVE",
"33 218 CURVE SMOOTH",
"-7 218 OFFCURVE",
"-51 196 OFFCURVE",
"-66 136 CURVE SMOOTH",
"-82 70 OFFCURVE",
"-46 -4 OFFCURVE",
"44 -4 CURVE SMOOTH",
"101 -4 OFFCURVE",
"142 19 OFFCURVE",
"179 98 CURVE SMOOTH",
"357 479 LINE SMOOTH",
"380 528 OFFCURVE",
"397 543 OFFCURVE",
"429 543 CURVE SMOOTH",
"463 543 OFFCURVE",
"481 521 OFFCURVE",
"468 480 CURVE SMOOTH",
"359 118 LINE SMOOTH",
"341 57 OFFCURVE",
"305 69 OFFCURVE",
"292 39 CURVE SMOOTH",
"282 15 OFFCURVE",
"297 0 OFFCURVE",
"333 0 CURVE SMOOTH",
"570 0 LINE SMOOTH",
"606 0 OFFCURVE",
"624 6 OFFCURVE",
"629 25 CURVE SMOOTH",
"641 58 OFFCURVE",
"593 54 OFFCURVE",
"611 118 CURVE SMOOTH",
"709 458 LINE SMOOTH",
"748 591 OFFCURVE",
"671 679 OFFCURVE",
"505 679 CURVE SMOOTH",
"380 679 OFFCURVE",
"316 627 OFFCURVE",
"262 516 CURVE SMOOTH",
"104 189 LINE"
);
}
);
};
guideLines = (
{
angle = 64.043;
position = "{319, 683}";
},
{
angle = 64.043;
position = "{445, 713}";
}
);
layerId = "FF8CB9F1-2B98-444C-A502-96421F2531A8";
name = "Bold Italic";
paths = (
{
closed = 1;
nodes = (
"160 204 LINE",
"526 204 LINE",
"530 304 LINE",
"164 304 LINE"
);
},
{
closed = 1;
nodes = (
"50 76 OFFCURVE",
"-29 79 OFFCURVE",
"-40 40 CURVE SMOOTH",
"-46 18 OFFCURVE",
"-30 0 OFFCURVE",
"6 0 CURVE SMOOTH",
"155 0 LINE SMOOTH",
"191 0 OFFCURVE",
"206 6 OFFCURVE",
"211 26 CURVE SMOOTH",
"221 63 OFFCURVE",
"156 49 OFFCURVE",
"202 147 CURVE SMOOTH",
"357 479 LINE SMOOTH",
"380 528 OFFCURVE",
"400 543 OFFCURVE",
"432 543 CURVE SMOOTH",
"464 543 OFFCURVE",
"481 521 OFFCURVE",
"468 480 CURVE SMOOTH",
"359 118 LINE SMOOTH",
"341 57 OFFCURVE",
"305 69 OFFCURVE",
"292 39 CURVE SMOOTH",
"282 15 OFFCURVE",
"297 0 OFFCURVE",
"333 0 CURVE SMOOTH",
"570 0 LINE SMOOTH",
"606 0 OFFCURVE",
"624 6 OFFCURVE",
"629 25 CURVE SMOOTH",
"641 58 OFFCURVE",
"593 54 OFFCURVE",
"611 118 CURVE SMOOTH",
"709 458 LINE SMOOTH",
"748 591 OFFCURVE",
"671 679 OFFCURVE",
"505 679 CURVE SMOOTH",
"380 679 OFFCURVE",
"315 627 OFFCURVE",
"262 516 CURVE SMOOTH",
"84 147 LINE SMOOTH"
);
}
);
width = 698;
},
{
associatedMasterId = "FF8CB9F1-2B98-444C-A502-96421F2531A8";
background = {
paths = (
{
closed = 1;
nodes = (
"479 679 OFFCURVE",
"407 641 OFFCURVE",
"343 532 CURVE SMOOTH",
"141 189 LINE",
"120 205 OFFCURVE",
"96 218 OFFCURVE",
"64 218 CURVE SMOOTH",
"24 218 OFFCURVE",
"-20 196 OFFCURVE",
"-35 136 CURVE SMOOTH",
"-51 70 OFFCURVE",
"-15 -4 OFFCURVE",
"67 -4 CURVE SMOOTH",
"132 -4 OFFCURVE",
"167 27 OFFCURVE",
"216 113 CURVE SMOOTH",
"431 490 LINE SMOOTH",
"455 532 OFFCURVE",
"486 543 OFFCURVE",
"502 543 CURVE SMOOTH",
"517 543 OFFCURVE",
"547 532 OFFCURVE",
"530 477 CURVE SMOOTH",
"422 118 LINE SMOOTH",
"404 57 OFFCURVE",
"368 69 OFFCURVE",
"355 39 CURVE SMOOTH",
"345 15 OFFCURVE",
"360 0 OFFCURVE",
"396 0 CURVE SMOOTH",
"633 0 LINE SMOOTH",
"669 0 OFFCURVE",
"687 6 OFFCURVE",
"692 25 CURVE SMOOTH",
"704 58 OFFCURVE",
"656 54 OFFCURVE",
"674 118 CURVE SMOOTH",
"770 451 LINE SMOOTH",
"808 582 OFFCURVE",
"744 679 OFFCURVE",
"595 679 CURVE SMOOTH"
);
},
{
closed = 1;
nodes = (
"116 509 OFFCURVE",
"70 472 OFFCURVE",
"55 415 CURVE SMOOTH",
"36 342 OFFCURVE",
"82 301 OFFCURVE",
"103 301 CURVE SMOOTH",
"123 301 OFFCURVE",
"144 332 OFFCURVE",
"181 332 CURVE SMOOTH",
"239 332 OFFCURVE",
"284 237 OFFCURVE",
"369 204 CURVE SMOOTH",
"412 187 OFFCURVE",
"482 213 OFFCURVE",
"506 256 CURVE",
"485 322 LINE",
"473 294 OFFCURVE",
"425 281 OFFCURVE",
"405 292 CURVE SMOOTH",
"335 331 OFFCURVE",
"302 509 OFFCURVE",
"167 509 CURVE SMOOTH"
);
}
);
};
guideLines = (
{
angle = 73.5707;
position = "{114, 538}";
},
{
angle = 73.5707;
position = "{34, 508}";
},
{
angle = 59.097;
position = "{452, 725}";
}
);
layerId = "95EF15EE-99BD-4B28-86F9-4CDC9EA909EF";
name = "Bold Italic Aug 13 15, 14:12";
paths = (
{
closed = 1;
nodes = (
"473 679 OFFCURVE",
"407 641 OFFCURVE",
"343 532 CURVE SMOOTH",
"141 189 LINE",
"120 205 OFFCURVE",
"96 218 OFFCURVE",
"64 218 CURVE SMOOTH",
"24 218 OFFCURVE",
"-20 196 OFFCURVE",
"-35 136 CURVE SMOOTH",
"-51 70 OFFCURVE",
"-15 -4 OFFCURVE",
"67 -4 CURVE SMOOTH",
"132 -4 OFFCURVE",
"167 27 OFFCURVE",
"216 113 CURVE SMOOTH",
"427 482 LINE SMOOTH",
"451 524 OFFCURVE",
"473 543 OFFCURVE",
"500 543 CURVE SMOOTH",
"531 543 OFFCURVE",
"541 514 OFFCURVE",
"530 477 CURVE SMOOTH",
"422 118 LINE SMOOTH",
"404 57 OFFCURVE",
"368 69 OFFCURVE",
"355 39 CURVE SMOOTH",
"345 15 OFFCURVE",
"360 0 OFFCURVE",
"396 0 CURVE SMOOTH",
"633 0 LINE SMOOTH",
"669 0 OFFCURVE",
"687 6 OFFCURVE",
"692 25 CURVE SMOOTH",
"704 58 OFFCURVE",
"656 54 OFFCURVE",
"674 118 CURVE SMOOTH",
"769 448 LINE SMOOTH",
"808 582 OFFCURVE",
"734 679 OFFCURVE",
"588 679 CURVE SMOOTH"
);
},
{
closed = 1;
nodes = (
"113 509 OFFCURVE",
"68 471 OFFCURVE",
"56 419 CURVE SMOOTH",
"40 352 OFFCURVE",
"82 301 OFFCURVE",
"107 301 CURVE SMOOTH",
"127 301 OFFCURVE",
"144 332 OFFCURVE",
"181 332 CURVE SMOOTH",
"247 332 OFFCURVE",
"285 199 OFFCURVE",
"395 199 CURVE SMOOTH",
"436 199 OFFCURVE",
"465 222 OFFCURVE",
"496 256 CURVE",
"494 351 LINE",
"480 319 OFFCURVE",
"459 306 OFFCURVE",
"429 306 CURVE SMOOTH",
"331 306 OFFCURVE",
"317 509 OFFCURVE",
"177 509 CURVE SMOOTH"
);
}
);
width = 758;
},
{
associatedMasterId = "FF8CB9F1-2B98-444C-A502-96421F2531A8";
background = {
paths = (
{
closed = 1;
nodes = (
"413 679 OFFCURVE",
"339 638 OFFCURVE",
"276 508 CURVE SMOOTH",
"121 189 LINE",
"101 207 OFFCURVE",
"75 218 OFFCURVE",
"43 218 CURVE SMOOTH",
"0 218 OFFCURVE",
"-40 196 OFFCURVE",
"-55 136 CURVE SMOOTH",
"-71 70 OFFCURVE",
"-28 -4 OFFCURVE",
"55 -4 CURVE SMOOTH",
"117 -4 OFFCURVE",
"154 26 OFFCURVE",
"188 97 CURVE SMOOTH",
"358 446 LINE SMOOTH",
"384 499 OFFCURVE",
"402 523 OFFCURVE",
"444 523 CURVE SMOOTH",
"483 523 OFFCURVE",
"495 492 OFFCURVE",
"484 457 CURVE SMOOTH",
"382 118 LINE SMOOTH",
"364 57 OFFCURVE",
"328 69 OFFCURVE",
"315 39 CURVE SMOOTH",
"305 15 OFFCURVE",
"320 0 OFFCURVE",
"356 0 CURVE SMOOTH",
"593 0 LINE SMOOTH",
"629 0 OFFCURVE",
"647 6 OFFCURVE",
"652 25 CURVE SMOOTH",
"664 58 OFFCURVE",
"616 54 OFFCURVE",
"634 118 CURVE SMOOTH",
"730 449 LINE SMOOTH",
"768 582 OFFCURVE",
"684 679 OFFCURVE",
"531 679 CURVE SMOOTH"
);
},
{
closed = 1;
nodes = (
"183 204 LINE",
"549 204 LINE",
"553 304 LINE",
"187 304 LINE"
);
}
);
};
guideLines = (
{
angle = 64.043;
position = "{342, 683}";
},
{
angle = 64.043;
position = "{468, 713}";
}
);
layerId = "E7D78943-D031-4D6A-B9FE-F0A5A9DC524D";
name = "Bold Italic Aug 13 15, 15:51";
paths = (
{
closed = 1;
nodes = (
"403 679 OFFCURVE",
"336 632 OFFCURVE",
"276 508 CURVE SMOOTH",
"121 189 LINE",
"101 207 OFFCURVE",
"75 218 OFFCURVE",
"43 218 CURVE SMOOTH",
"0 218 OFFCURVE",
"-40 196 OFFCURVE",
"-55 136 CURVE SMOOTH",
"-71 70 OFFCURVE",
"-28 -4 OFFCURVE",
"55 -4 CURVE SMOOTH",
"117 -4 OFFCURVE",
"154 26 OFFCURVE",
"188 97 CURVE SMOOTH",
"358 446 LINE SMOOTH",
"384 499 OFFCURVE",
"402 523 OFFCURVE",
"444 523 CURVE SMOOTH",
"483 523 OFFCURVE",
"495 492 OFFCURVE",
"484 457 CURVE SMOOTH",
"382 118 LINE SMOOTH",
"364 57 OFFCURVE",
"328 69 OFFCURVE",
"315 39 CURVE SMOOTH",
"305 15 OFFCURVE",
"320 0 OFFCURVE",
"356 0 CURVE SMOOTH",
"593 0 LINE SMOOTH",
"629 0 OFFCURVE",
"647 6 OFFCURVE",
"652 25 CURVE SMOOTH",
"664 58 OFFCURVE",
"616 54 OFFCURVE",
"634 118 CURVE SMOOTH",
"730 449 LINE SMOOTH",
"768 582 OFFCURVE",
"684 679 OFFCURVE",
"531 679 CURVE SMOOTH"
);
},
{
closed = 1;
nodes = (
"183 204 LINE",
"549 204 LINE",
"553 304 LINE",
"187 304 LINE"
);
}
);
width = 718;
},
{
associatedMasterId = "FF8CB9F1-2B98-444C-A502-96421F2531A8";
background = {
paths = (
{
closed = 1;
nodes = (
"393 679 OFFCURVE",
"336 632 OFFCURVE",
"287 532 CURVE SMOOTH",
"121 189 LINE",
"101 207 OFFCURVE",
"75 218 OFFCURVE",
"43 218 CURVE SMOOTH",
"0 218 OFFCURVE",
"-40 196 OFFCURVE",
"-55 136 CURVE SMOOTH",
"-71 70 OFFCURVE",
"-28 -4 OFFCURVE",
"55 -4 CURVE SMOOTH",
"117 -4 OFFCURVE",
"155 27 OFFCURVE",
"188 97 CURVE SMOOTH",
"375 495 LINE SMOOTH",
"391 529 OFFCURVE",
"412 543 OFFCURVE",
"450 543 CURVE SMOOTH",
"489 543 OFFCURVE",
"505 525 OFFCURVE",
"494 490 CURVE SMOOTH",
"382 118 LINE SMOOTH",
"364 57 OFFCURVE",
"328 69 OFFCURVE",
"315 39 CURVE SMOOTH",
"305 15 OFFCURVE",
"320 0 OFFCURVE",
"356 0 CURVE SMOOTH",
"593 0 LINE SMOOTH",
"629 0 OFFCURVE",
"647 6 OFFCURVE",
"652 25 CURVE SMOOTH",
"664 58 OFFCURVE",
"616 54 OFFCURVE",
"634 118 CURVE SMOOTH",
"732 458 LINE SMOOTH",
"771 591 OFFCURVE",
"694 679 OFFCURVE",
"522 679 CURVE SMOOTH"
);
},
{
closed = 1;
nodes = (
"183 204 LINE",
"549 204 LINE",
"553 304 LINE",
"187 304 LINE"
);
}
);
};
guideLines = (
{
angle = 64.043;
position = "{342, 683}";
},
{
angle = 64.043;
position = "{468, 713}";
}
);
layerId = "5110C8A6-67F8-4702-B6C1-D34BB66688CF";
name = "Bold Italic Aug 14 15, 13:32";
paths = (
{
closed = 1;
nodes = (
"393 679 OFFCURVE",
"336 632 OFFCURVE",
"287 532 CURVE SMOOTH",
"121 189 LINE",
"101 207 OFFCURVE",
"75 218 OFFCURVE",
"43 218 CURVE SMOOTH",
"0 218 OFFCURVE",
"-40 196 OFFCURVE",
"-55 136 CURVE SMOOTH",
"-71 70 OFFCURVE",
"-28 -4 OFFCURVE",
"55 -4 CURVE SMOOTH",
"117 -4 OFFCURVE",
"155 27 OFFCURVE",
"188 97 CURVE SMOOTH",
"375 495 LINE SMOOTH",
"391 529 OFFCURVE",
"412 543 OFFCURVE",
"450 543 CURVE SMOOTH",
"489 543 OFFCURVE",
"505 525 OFFCURVE",
"494 490 CURVE SMOOTH",
"382 118 LINE SMOOTH",
"364 57 OFFCURVE",
"328 69 OFFCURVE",
"315 39 CURVE SMOOTH",
"305 15 OFFCURVE",
"320 0 OFFCURVE",
"356 0 CURVE SMOOTH",
"593 0 LINE SMOOTH",
"629 0 OFFCURVE",
"647 6 OFFCURVE",
"652 25 CURVE SMOOTH",
"664 58 OFFCURVE",
"616 54 OFFCURVE",
"634 118 CURVE SMOOTH",
"732 458 LINE SMOOTH",
"771 591 OFFCURVE",
"694 679 OFFCURVE",
"522 679 CURVE SMOOTH"
);
},
{
closed = 1;
nodes = (
"183 204 LINE",
"549 204 LINE",
"553 304 LINE",
"187 304 LINE"
);
}
);
width = 728;
}
);
leftKerningGroup = A;
unicode = 0041;
},
{
glyphname = AE;
lastChange = "2015-10-04 15:13:33 +0000";
layers = (
{
background = {
anchors = (
{
name = ogonek;
position = "{752, 0}";
},
{
name = top;
position = "{732, 651}";
}
);
paths = (
{
closed = 1;
nodes = (
"653 308 LINE",
"704 308 LINE SMOOTH",
"716 308 OFFCURVE",
"722 302 OFFCURVE",
"726 293 CURVE SMOOTH",
"743 258 LINE SMOOTH",
"751 241 OFFCURVE",
"764 229 OFFCURVE",
"785 229 CURVE SMOOTH",
"805 229 OFFCURVE",
"828 240 OFFCURVE",
"837 272 CURVE SMOOTH",
"878 411 LINE SMOOTH",
"886 438 OFFCURVE",
"867 457 OFFCURVE",
"839 457 CURVE SMOOTH",
"816 457 OFFCURVE",
"803 447 OFFCURVE",
"786 432 CURVE SMOOTH",
"752 402 LINE SMOOTH",
"745 396 OFFCURVE",
"740 392 OFFCURVE",
"733 392 CURVE SMOOTH",
"680 392 LINE"
);
},
{
closed = 1;
nodes = (
"621 0 LINE",
"810 0 LINE SMOOTH",
"864 0 OFFCURVE",
"888 18 OFFCURVE",
"903 68 CURVE SMOOTH",
"932 169 LINE SMOOTH",
"944 212 OFFCURVE",
"916 228 OFFCURVE",
"885 228 CURVE SMOOTH",
"855 228 OFFCURVE",
"839 217 OFFCURVE",
"819 196 CURVE SMOOTH",
"759 130 LINE SMOOTH",
"736 105 OFFCURVE",
"720 96 OFFCURVE",
"694 96 CURVE SMOOTH",
"650 96 LINE"
);
},
{
closed = 1;
nodes = (
"794 570 LINE",
"844 570 LINE SMOOTH",
"871 570 OFFCURVE",
"877 563 OFFCURVE",
"883 540 CURVE SMOOTH",
"899 483 LINE SMOOTH",
"908 450 OFFCURVE",
"925 438 OFFCURVE",
"957 438 CURVE SMOOTH",
"989 438 OFFCURVE",
"1006 449 OFFCURVE",
"1016 486 CURVE SMOOTH",
"1042 579 LINE SMOOTH",
"1058 634 OFFCURVE",
"1028 666 OFFCURVE",
"968 666 CURVE SMOOTH",
"836 666 LINE"
);
},
{
closed = 1;
nodes = (
"836 666 LINE",
"524 666 LINE SMOOTH",
"489 666 OFFCURVE",
"471 660 OFFCURVE",
"465 642 CURVE SMOOTH",
"453 608 OFFCURVE",
"499 609 OFFCURVE",
"482 549 CURVE SMOOTH",
"359 118 LINE SMOOTH",
"342 58 OFFCURVE",
"305 69 OFFCURVE",
"292 39 CURVE SMOOTH",
"282 15 OFFCURVE",
"297 0 OFFCURVE",
"333 0 CURVE SMOOTH",
"621 0 LINE",
"650 96 LINE",
"606 96 LINE",
"739 570 LINE",
"794 570 LINE"
);
},
{
closed = 1;
nodes = (
"855 228 OFFCURVE",
"839 217 OFFCURVE",
"819 196 CURVE SMOOTH",
"759 130 LINE SMOOTH",
"736 105 OFFCURVE",
"720 96 OFFCURVE",
"694 96 CURVE SMOOTH",
"605 96 LINE",
"709 458 LINE SMOOTH",
"747 590 OFFCURVE",
"671 679 OFFCURVE",
"505 679 CURVE SMOOTH",
"380 679 OFFCURVE",
"315 627 OFFCURVE",
"262 516 CURVE SMOOTH",
"84 147 LINE SMOOTH",
"50 76 OFFCURVE",
"-29 79 OFFCURVE",
"-40 40 CURVE SMOOTH",
"-46 18 OFFCURVE",
"-30 0 OFFCURVE",
"6 0 CURVE SMOOTH",
"155 0 LINE SMOOTH",
"191 0 OFFCURVE",
"206 6 OFFCURVE",
"211 26 CURVE SMOOTH",
"221 63 OFFCURVE",
"156 49 OFFCURVE",
"202 147 CURVE SMOOTH",
"357 479 LINE SMOOTH",
"380 528 OFFCURVE",
"400 543 OFFCURVE",
"432 543 CURVE SMOOTH",
"464 543 OFFCURVE",
"481 521 OFFCURVE",
"468 480 CURVE SMOOTH",
"359 118 LINE SMOOTH",
"341 57 OFFCURVE",
"305 69 OFFCURVE",
"292 39 CURVE SMOOTH",
"282 15 OFFCURVE",
"297 0 OFFCURVE",
"333 0 CURVE SMOOTH",
"810 0 LINE SMOOTH",
"864 0 OFFCURVE",
"888 18 OFFCURVE",
"903 68 CURVE SMOOTH",
"932 169 LINE SMOOTH",
"944 212 OFFCURVE",
"916 228 OFFCURVE",
"885 228 CURVE SMOOTH"
);
}
);
};
layerId = "FF8CB9F1-2B98-444C-A502-96421F2531A8";
name = "Bold Italic";
paths = (
{
closed = 1;
nodes = (
"160 204 LINE",
"526 204 LINE",
"530 304 LINE",
"164 304 LINE"
);
},
{
closed = 1;
nodes = (
"653 308 LINE",
"704 308 LINE SMOOTH",
"716 308 OFFCURVE",
"722 302 OFFCURVE",
"726 293 CURVE SMOOTH",
"743 258 LINE SMOOTH",
"751 241 OFFCURVE",
"764 229 OFFCURVE",
"785 229 CURVE SMOOTH",
"805 229 OFFCURVE",
"828 240 OFFCURVE",
"837 272 CURVE SMOOTH",
"878 411 LINE SMOOTH",
"886 438 OFFCURVE",
"867 457 OFFCURVE",
"839 457 CURVE SMOOTH",
"816 457 OFFCURVE",
"803 447 OFFCURVE",
"786 432 CURVE SMOOTH",
"752 402 LINE SMOOTH",
"745 396 OFFCURVE",
"740 392 OFFCURVE",
"733 392 CURVE SMOOTH",
"680 392 LINE"
);
},
{
closed = 1;
nodes = (
"501 666 LINE SMOOTH",
"376 666 OFFCURVE",
"320 629 OFFCURVE",
"258 503 CURVE SMOOTH",
"84 147 LINE SMOOTH",
"49 76 OFFCURVE",
"-29 79 OFFCURVE",
"-40 40 CURVE SMOOTH",
"-46 18 OFFCURVE",
"-30 0 OFFCURVE",
"6 0 CURVE SMOOTH",
"155 0 LINE SMOOTH",
"191 0 OFFCURVE",
"206 6 OFFCURVE",
"211 26 CURVE SMOOTH",
"221 63 OFFCURVE",
"156 48 OFFCURVE",
"202 147 CURVE SMOOTH",
"354 471 LINE SMOOTH",
"377 520 OFFCURVE",
"397 535 OFFCURVE",
"429 535 CURVE SMOOTH",
"461 535 OFFCURVE",
"477 513 OFFCURVE",
"465 472 CURVE SMOOTH",
"359 118 LINE SMOOTH",
"341 57 OFFCURVE",
"305 69 OFFCURVE",
"292 39 CURVE SMOOTH",
"282 15 OFFCURVE",
"297 0 OFFCURVE",
"333 0 CURVE SMOOTH",
"810 0 LINE SMOOTH",
"864 0 OFFCURVE",
"888 18 OFFCURVE",
"903 68 CURVE SMOOTH",
"932 169 LINE SMOOTH",
"944 212 OFFCURVE",
"916 228 OFFCURVE",
"885 228 CURVE SMOOTH",
"855 228 OFFCURVE",
"839 217 OFFCURVE",
"819 196 CURVE SMOOTH",
"759 130 LINE SMOOTH",
"736 105 OFFCURVE",
"720 96 OFFCURVE",
"694 96 CURVE SMOOTH",
"605 96 LINE",
"740 570 LINE",
"844 570 LINE SMOOTH",
"871 570 OFFCURVE",
"877 563 OFFCURVE",
"883 540 CURVE SMOOTH",
"899 483 LINE SMOOTH",
"908 450 OFFCURVE",
"925 438 OFFCURVE",
"957 438 CURVE SMOOTH",
"989 438 OFFCURVE",
"1006 449 OFFCURVE",
"1016 486 CURVE SMOOTH",
"1042 579 LINE SMOOTH",
"1058 634 OFFCURVE",
"1028 666 OFFCURVE",
"968 666 CURVE SMOOTH"
);
}
);
width = 986;
}
);
leftKerningGroup = A;
leftMetricsKey = A;
rightMetricsKey = E;
unicode = 00C6;
},
{
glyphname = B;
lastChange = "2015-10-04 15:13:33 +0000";
layers = (
{
background = {
paths = (
{
closed = 1;
nodes = (
"209 666 LINE SMOOTH",
"173 666 OFFCURVE",
"155 660 OFFCURVE",
"150 642 CURVE SMOOTH",
"138 608 OFFCURVE",
"183 609 OFFCURVE",
"166 549 CURVE SMOOTH",
"44 118 LINE SMOOTH",
"27 58 OFFCURVE",
"-10 69 OFFCURVE",
"-23 39 CURVE SMOOTH",
"-33 15 OFFCURVE",
"-18 0 OFFCURVE",
"18 0 CURVE SMOOTH",
"437 0 LINE SMOOTH",
"602 0 OFFCURVE",
"685 50 OFFCURVE",
"714 153 CURVE SMOOTH",
"741 249 OFFCURVE",
"695 310 OFFCURVE",
"618 332 CURVE",
"699 348 OFFCURVE",
"763 384 OFFCURVE",
"785 460 CURVE SMOOTH",
"818 574 OFFCURVE",
"734 666 OFFCURVE",
"570 666 CURVE SMOOTH"
);
},
{
closed = 1;
nodes = (
"504 421 OFFCURVE",
"463 389 OFFCURVE",
"419 389 CURVE SMOOTH",
"372 389 LINE",
"425 576 LINE",
"468 576 LINE SMOOTH",
"512 576 OFFCURVE",
"536 533 OFFCURVE",
"520 477 CURVE SMOOTH"
);
},
{
closed = 1;
nodes = (
"427 111 OFFCURVE",
"393 90 OFFCURVE",
"338 90 CURVE SMOOTH",
"287 90 LINE",
"344 287 LINE",
"394 287 LINE SMOOTH",
"439 287 OFFCURVE",
"471 267 OFFCURVE",
"449 189 CURVE SMOOTH"
);
}
);
};
guideLines = (
{
angle = 74.1952;
position = "{551, 549}";
},
{
angle = 74.1952;
position = "{826, 549}";
},
{
position = "{316, 189}";
},
{
angle = 74.1952;
position = "{468, 549}";
},
{
angle = 74.1952;
position = "{523, 549}";
},
{
angle = 74.1952;
position = "{811, 549}";
},
{
angle = 74.1952;
position = "{592, 549}";
}
);
layerId = "FF8CB9F1-2B98-444C-A502-96421F2531A8";
name = "Bold Italic";
paths = (
{
closed = 1;
nodes = (
"209 666 LINE SMOOTH",
"173 666 OFFCURVE",
"155 660 OFFCURVE",
"150 642 CURVE SMOOTH",
"138 608 OFFCURVE",
"183 609 OFFCURVE",
"166 549 CURVE SMOOTH",
"44 118 LINE SMOOTH",
"27 58 OFFCURVE",
"-10 69 OFFCURVE",
"-23 39 CURVE SMOOTH",
"-33 15 OFFCURVE",
"-18 0 OFFCURVE",
"18 0 CURVE SMOOTH",
"434 0 LINE SMOOTH",
"599 0 OFFCURVE",
"682 50 OFFCURVE",
"711 153 CURVE SMOOTH",
"738 249 OFFCURVE",
"692 310 OFFCURVE",
"615 332 CURVE",
"696 348 OFFCURVE",
"760 384 OFFCURVE",
"782 460 CURVE SMOOTH",
"815 574 OFFCURVE",
"731 666 OFFCURVE",
"567 666 CURVE SMOOTH"
);
},
{
closed = 1;
nodes = (
"427 111 OFFCURVE",
"393 90 OFFCURVE",
"338 90 CURVE SMOOTH",
"287 90 LINE",
"344 287 LINE",
"394 287 LINE SMOOTH",
"439 287 OFFCURVE",
"471 267 OFFCURVE",
"449 189 CURVE SMOOTH"
);
},
{
closed = 1;
nodes = (
"501 409 OFFCURVE",
"469 389 OFFCURVE",
"416 389 CURVE SMOOTH",
"372 389 LINE",
"425 576 LINE",
"470 576 LINE SMOOTH",
"512 576 OFFCURVE",
"543 557 OFFCURVE",
"522 483 CURVE SMOOTH"
);
}
);
width = 761;
}
);
leftKerningGroup = H;
leftMetricsKey = H;
unicode = 0042;
},
{
glyphname = C;
lastChange = "2015-10-04 15:13:33 +0000";
layers = (
{
anchors = (
{
name = bottom;
position = "{361, 0}";
},
{
name = top;
position = "{479, 651}";
}
);
guideLines = (
{
angle = 73.2323;
position = "{1102, 784}";
},
{
angle = 73.2323;
position = "{268, 914}";
},
{
angle = 73.2323;
position = "{647, 914}";
}
);
layerId = "FF8CB9F1-2B98-444C-A502-96421F2531A8";
name = "Bold Italic";
paths = (
{
closed = 1;
nodes = (
"529 -6 OFFCURVE",
"632 146 OFFCURVE",
"631 181 CURVE SMOOTH",
"632 205 OFFCURVE",
"597 235 OFFCURVE",
"574 235 CURVE SMOOTH",
"521 235 OFFCURVE",
"494 114 OFFCURVE",
"375 114 CURVE SMOOTH",
"312 114 OFFCURVE",
"279 183 OFFCURVE",
"331 355 CURVE SMOOTH",
"373 494 OFFCURVE",
"426 557 OFFCURVE",
"479 557 CURVE SMOOTH",
"519 557 OFFCURVE",
"532 540 OFFCURVE",
"562 480 CURVE SMOOTH",
"588 424 OFFCURVE",
"606 398 OFFCURVE",
"642 398 CURVE SMOOTH",
"676 398 OFFCURVE",
"689 412 OFFCURVE",
"701 447 CURVE SMOOTH",
"757 603 LINE SMOOTH",
"772 644 OFFCURVE",
"747 668 OFFCURVE",
"706 668 CURVE SMOOTH",
"675 668 OFFCURVE",
"655 659 OFFCURVE",
"619 631 CURVE SMOOTH",
"592 610 LINE",
"545 651 OFFCURVE",
"490 676 OFFCURVE",
"410 676 CURVE SMOOTH",
"287 676 OFFCURVE",
"138 610 OFFCURVE",
"72 393 CURVE SMOOTH",
"-6 132 OFFCURVE",
"147 -6 OFFCURVE",
"348 -6 CURVE SMOOTH"
);
}
);
width = 692;
},
{
associatedMasterId = "FF8CB9F1-2B98-444C-A502-96421F2531A8";
background = {
components = (
{
name = H;
}
);
};
guideLines = (
{
angle = 73.2323;
position = "{1098, 784}";
},
{
angle = 73.2323;
position = "{264, 914}";
},
{
angle = 73.2323;
position = "{643, 914}";
}
);
layerId = "E1C37AC8-22DE-4E65-A886-E6A4BBE6CB91";
name = "Bold Italic Aug 13 15, 17:48";
paths = (
{
closed = 1;
nodes = (
"369 494 OFFCURVE",
"424 547 OFFCURVE",
"491 547 CURVE SMOOTH",
"538 547 OFFCURVE",
"571 518 OFFCURVE",
"609 464 CURVE SMOOTH",
"640 420 OFFCURVE",
"651 410 OFFCURVE",
"676 410 CURVE SMOOTH",
"693 410 LINE SMOOTH",
"712 410 OFFCURVE",
"723 424 OFFCURVE",
"733 458 CURVE SMOOTH",
"779 622 LINE SMOOTH",
"788 649 OFFCURVE",
"779 666 OFFCURVE",
"746 666 CURVE SMOOTH",
"713 666 LINE SMOOTH",
"677 666 OFFCURVE",
"651 643 OFFCURVE",
"621 605 CURVE",
"573 648 OFFCURVE",
"510 676 OFFCURVE",
"426 676 CURVE SMOOTH",
"283 676 OFFCURVE",
"138 610 OFFCURVE",
"76 393 CURVE SMOOTH",
"2 132 OFFCURVE",
"155 -6 OFFCURVE",
"376 -6 CURVE SMOOTH",
"557 -6 OFFCURVE",
"667 129 OFFCURVE",
"666 164 CURVE SMOOTH",
"666 188 OFFCURVE",
"631 218 OFFCURVE",
"608 218 CURVE SMOOTH",
"565 218 OFFCURVE",
"520 133 OFFCURVE",
"431 133 CURVE SMOOTH",
"338 133 OFFCURVE",
"281 183 OFFCURVE",
"330 355 CURVE SMOOTH"
);
}
);
width = 712;
},
{
associatedMasterId = "FF8CB9F1-2B98-444C-A502-96421F2531A8";
background = {
components = (
{
name = O;
}
);
paths = (
{
closed = 1;
nodes = (
"535 556 OFFCURVE",
"557 578 OFFCURVE",
"557 607 CURVE SMOOTH",
"557 634 OFFCURVE",
"535 656 OFFCURVE",
"508 656 CURVE SMOOTH",
"479 656 OFFCURVE",
"457 634 OFFCURVE",
"457 607 CURVE SMOOTH",
"457 578 OFFCURVE",
"479 556 OFFCURVE",
"508 556 CURVE SMOOTH"
);
}
);
};
guideLines = (
{
angle = 73.2323;
position = "{1093, 784}";
},
{
angle = 73.2323;
position = "{259, 914}";
},
{
angle = 73.2323;
position = "{638, 914}";
}
);
layerId = "FB91DEF1-873D-4E8B-90BA-D01F1D42BD13";
name = "Bold Italic Aug 21 15, 15:40";
paths = (
{
closed = 1;
nodes = (
"532 -6 OFFCURVE",
"632 146 OFFCURVE",
"631 181 CURVE SMOOTH",
"631 205 OFFCURVE",
"596 235 OFFCURVE",
"573 235 CURVE SMOOTH",
"520 235 OFFCURVE",
"495 114 OFFCURVE",
"376 114 CURVE SMOOTH",
"313 114 OFFCURVE",
"279 183 OFFCURVE",
"328 355 CURVE SMOOTH",
"367 494 OFFCURVE",
"419 557 OFFCURVE",
"472 557 CURVE SMOOTH",
"512 557 OFFCURVE",
"532 540 OFFCURVE",
"563 480 CURVE SMOOTH",
"592 424 OFFCURVE",
"611 398 OFFCURVE",
"647 398 CURVE SMOOTH",
"681 398 OFFCURVE",
"694 412 OFFCURVE",
"704 447 CURVE SMOOTH",
"752 603 LINE SMOOTH",
"764 644 OFFCURVE",
"738 668 OFFCURVE",
"697 668 CURVE SMOOTH",
"666 668 OFFCURVE",
"647 659 OFFCURVE",
"612 631 CURVE SMOOTH",
"586 610 LINE",
"538 651 OFFCURVE",
"481 676 OFFCURVE",
"401 676 CURVE SMOOTH",
"278 676 OFFCURVE",
"130 610 OFFCURVE",
"68 393 CURVE SMOOTH",
"-6 132 OFFCURVE",
"150 -6 OFFCURVE",
"351 -6 CURVE SMOOTH"
);
}
);
width = 677;
visible = 1;
}
);
leftKerningGroup = O;
rightKerningGroup = C;
unicode = 0043;
},
{
glyphname = D;
lastChange = "2015-10-04 15:13:33 +0000";
layers = (
{
anchors = (
{
name = top;
position = "{447, 651}";
}
);
background = {
components = (
{
name = H;
}
);
};
guideLines = (
{
angle = 74.1603;
position = "{573, 549}";
}
);
layerId = "FF8CB9F1-2B98-444C-A502-96421F2531A8";
name = "Bold Italic";
paths = (
{
closed = 1;
nodes = (
"209 666 LINE",
"173 666 OFFCURVE",
"155 660 OFFCURVE",
"150 642 CURVE SMOOTH",
"138 608 OFFCURVE",
"183 609 OFFCURVE",
"166 549 CURVE SMOOTH",
"44 119 LINE SMOOTH",
"27 59 OFFCURVE",
"-10 71 OFFCURVE",
"-23 40 CURVE SMOOTH",
"-33 17 OFFCURVE",
"-18 1 OFFCURVE",
"18 1 CURVE SMOOTH",
"290 0 LINE SMOOTH",
"575 -1 OFFCURVE",
"696 86 OFFCURVE",
"761 313 CURVE SMOOTH",
"826 541 OFFCURVE",
"733 666 OFFCURVE",
"479 666 CURVE SMOOTH"
);
},
{
closed = 1;
nodes = (
"447 130 OFFCURVE",
"399 90 OFFCURVE",
"313 90 CURVE SMOOTH",
"289 90 LINE",
"424 576 LINE",
"446 576 LINE SMOOTH",
"519 576 OFFCURVE",
"562 537 OFFCURVE",
"505 335 CURVE SMOOTH"
);
}
);
width = 772;
}
);
leftKerningGroup = H;
leftMetricsKey = H;
rightKerningGroup = D;
unicode = 0044;
},
{
glyphname = Eth;
lastChange = "2015-10-04 15:13:33 +0000";
layers = (
{
layerId = "FF8CB9F1-2B98-444C-A502-96421F2531A8";
name = "Bold Italic";
paths = (
{
closed = 1;
nodes = (
"197 666 LINE",
"161 666 OFFCURVE",
"143 660 OFFCURVE",
"138 642 CURVE SMOOTH",
"126 608 OFFCURVE",
"171 609 OFFCURVE",
"154 549 CURVE SMOOTH",
"32 119 LINE SMOOTH",
"15 59 OFFCURVE",
"-22 71 OFFCURVE",
"-35 40 CURVE SMOOTH",
"-45 17 OFFCURVE",
"-30 1 OFFCURVE",
"6 1 CURVE SMOOTH",
"278 0 LINE SMOOTH",
"563 -1 OFFCURVE",
"684 86 OFFCURVE",
"749 313 CURVE SMOOTH",
"814 541 OFFCURVE",
"721 666 OFFCURVE",
"467 666 CURVE SMOOTH"
);
},
{
closed = 1;
nodes = (
"435 130 OFFCURVE",
"387 90 OFFCURVE",
"301 90 CURVE SMOOTH",
"277 90 LINE",
"412 576 LINE",
"434 576 LINE SMOOTH",
"507 576 OFFCURVE",
"550 537 OFFCURVE",
"493 335 CURVE SMOOTH"
);
},
{
closed = 1;
nodes = (
"-9 292 OFFCURVE",
"5 272 OFFCURVE",
"38 275 CURVE SMOOTH",
"392 306 LINE SMOOTH",
"426 309 OFFCURVE",
"446 323 OFFCURVE",
"455 352 CURVE SMOOTH",
"462 381 OFFCURVE",
"449 401 OFFCURVE",
"415 398 CURVE SMOOTH",
"62 367 LINE SMOOTH",
"29 364 OFFCURVE",
"7 350 OFFCURVE",
"-1 321 CURVE SMOOTH"
);
}
);
width = 762;
}
);
rightKerningGroup = D;
rightMetricsKey = D;
unicode = 00D0;
},
{
glyphname = E;
lastChange = "2015-10-04 15:13:33 +0000";
layers = (
{
anchors = (
{
name = ogonek;
position = "{437, 0}";
},
{
name = top;
position = "{417, 651}";
}
);
background = {
paths = (
{
closed = 1;
nodes = (
"338 308 LINE",
"389 308 LINE SMOOTH",
"401 308 OFFCURVE",
"407 302 OFFCURVE",
"411 293 CURVE SMOOTH",
"428 258 LINE SMOOTH",
"436 241 OFFCURVE",
"449 229 OFFCURVE",
"470 229 CURVE SMOOTH",
"490 229 OFFCURVE",
"513 240 OFFCURVE",
"522 272 CURVE SMOOTH",
"563 411 LINE SMOOTH",
"571 438 OFFCURVE",
"552 457 OFFCURVE",
"524 457 CURVE SMOOTH",
"501 457 OFFCURVE",
"488 447 OFFCURVE",
"471 432 CURVE SMOOTH",
"437 402 LINE SMOOTH",
"430 396 OFFCURVE",
"425 392 OFFCURVE",
"418 392 CURVE SMOOTH",
"365 392 LINE"
);
},
{
closed = 1;
nodes = (
"423 565 LINE",
"533 565 LINE SMOOTH",
"560 565 OFFCURVE",
"563 557 OFFCURVE",
"568 540 CURVE SMOOTH",
"584 483 LINE SMOOTH",
"593 450 OFFCURVE",
"610 438 OFFCURVE",
"642 438 CURVE SMOOTH",
"674 438 OFFCURVE",
"691 449 OFFCURVE",
"701 486 CURVE SMOOTH",
"727 579 LINE SMOOTH",
"743 634 OFFCURVE",
"713 666 OFFCURVE",
"653 666 CURVE SMOOTH",
"209 666 LINE SMOOTH",
"174 666 OFFCURVE",
"156 660 OFFCURVE",
"150 642 CURVE SMOOTH",
"138 608 OFFCURVE",
"184 609 OFFCURVE",
"167 549 CURVE SMOOTH",
"44 118 LINE SMOOTH",
"27 58 OFFCURVE",
"-10 69 OFFCURVE",
"-23 39 CURVE SMOOTH",
"-33 15 OFFCURVE",
"-18 0 OFFCURVE",
"18 0 CURVE SMOOTH",
"495 0 LINE SMOOTH",
"549 0 OFFCURVE",
"573 18 OFFCURVE",
"588 68 CURVE SMOOTH",
"617 169 LINE SMOOTH",
"629 212 OFFCURVE",
"601 228 OFFCURVE",
"570 228 CURVE SMOOTH",
"540 228 OFFCURVE",
"524 217 OFFCURVE",
"504 196 CURVE SMOOTH",
"444 130 LINE SMOOTH",
"421 105 OFFCURVE",
"405 96 OFFCURVE",
"379 96 CURVE SMOOTH",
"291 96 LINE"
);
}
);
};
guideLines = (
{
angle = 74.2018;
position = "{433, 525}";
showMeasurement = 1;
},
{
angle = 74.2018;
position = "{717, 525}";
}
);
layerId = "FF8CB9F1-2B98-444C-A502-96421F2531A8";
name = "Bold Italic";
paths = (
{
closed = 1;
nodes = (
"338 308 LINE",
"389 308 LINE SMOOTH",
"401 308 OFFCURVE",
"407 302 OFFCURVE",
"411 293 CURVE SMOOTH",
"428 258 LINE SMOOTH",
"436 241 OFFCURVE",
"449 229 OFFCURVE",
"470 229 CURVE SMOOTH",
"490 229 OFFCURVE",
"513 240 OFFCURVE",
"522 272 CURVE SMOOTH",
"563 411 LINE SMOOTH",
"571 438 OFFCURVE",
"552 457 OFFCURVE",
"524 457 CURVE SMOOTH",
"501 457 OFFCURVE",
"488 447 OFFCURVE",
"471 432 CURVE SMOOTH",
"437 402 LINE SMOOTH",
"430 396 OFFCURVE",
"425 392 OFFCURVE",
"418 392 CURVE SMOOTH",
"365 392 LINE"
);
},
{
closed = 1;
nodes = (
"424 570 LINE",
"529 570 LINE SMOOTH",
"556 570 OFFCURVE",
"562 563 OFFCURVE",
"568 540 CURVE SMOOTH",
"584 483 LINE SMOOTH",
"593 450 OFFCURVE",
"610 438 OFFCURVE",
"642 438 CURVE SMOOTH",
"674 438 OFFCURVE",
"691 449 OFFCURVE",
"701 486 CURVE SMOOTH",
"727 579 LINE SMOOTH",
"743 634 OFFCURVE",
"713 666 OFFCURVE",
"653 666 CURVE SMOOTH",
"209 666 LINE SMOOTH",
"174 666 OFFCURVE",
"156 660 OFFCURVE",
"150 642 CURVE SMOOTH",
"138 608 OFFCURVE",
"184 609 OFFCURVE",
"167 549 CURVE SMOOTH",
"44 118 LINE SMOOTH",
"27 58 OFFCURVE",
"-10 69 OFFCURVE",
"-23 39 CURVE SMOOTH",
"-33 15 OFFCURVE",
"-18 0 OFFCURVE",
"18 0 CURVE SMOOTH",
"495 0 LINE SMOOTH",
"549 0 OFFCURVE",
"573 18 OFFCURVE",
"588 68 CURVE SMOOTH",
"617 169 LINE SMOOTH",
"629 212 OFFCURVE",
"601 228 OFFCURVE",
"570 228 CURVE SMOOTH",
"540 228 OFFCURVE",
"524 217 OFFCURVE",
"504 196 CURVE SMOOTH",
"444 130 LINE SMOOTH",
"421 105 OFFCURVE",
"405 96 OFFCURVE",
"379 96 CURVE SMOOTH",
"291 96 LINE"
);
}
);
width = 671;
},
{
associatedMasterId = "FF8CB9F1-2B98-444C-A502-96421F2531A8";
background = {
paths = (
{
closed = 1;
nodes = (
"463 422 LINE",
"570 755 LINE SMOOTH",
"599 845 OFFCURVE",
"554 902 OFFCURVE",
"418 902 CURVE SMOOTH",
"306 902 OFFCURVE",
"268 876 OFFCURVE",
"241 791 CURVE SMOOTH",
"122 422 LINE"
);
}
);
};
layerId = "81B3EF91-8A2F-4354-AEEA-788F4A6F7E16";
name = V1;
paths = (
{
closed = 1;
nodes = (
"24 58 OFFCURVE",
"-13 69 OFFCURVE",
"-26 39 CURVE SMOOTH",
"-36 15 OFFCURVE",
"-21 0 OFFCURVE",
"15 0 CURVE SMOOTH",
"508 0 LINE SMOOTH",
"554 0 OFFCURVE",
"584 18 OFFCURVE",
"597 59 CURVE SMOOTH",
"636 183 LINE SMOOTH",
"647 220 OFFCURVE",
"643 228 OFFCURVE",
"625 228 CURVE SMOOTH",
"607 228 OFFCURVE",
"583 218 OFFCURVE",
"564 191 CURVE SMOOTH",
"520 130 LINE SMOOTH",
"505 109 OFFCURVE",
"491 102 OFFCURVE",
"471 102 CURVE SMOOTH",
"289 102 LINE",
"341 287 LINE",
"420 287 LINE SMOOTH",
"435 287 OFFCURVE",
"442 280 OFFCURVE",
"443 264 CURVE SMOOTH",
"446 241 LINE SMOOTH",
"448 214 OFFCURVE",
"463 207 OFFCURVE",
"480 207 CURVE SMOOTH",
"496 207 OFFCURVE",
"507 214 OFFCURVE",
"518 244 CURVE SMOOTH",
"572 413 LINE SMOOTH",
"580 440 OFFCURVE",
"571 453 OFFCURVE",
"549 453 CURVE SMOOTH",
"528 453 OFFCURVE",
"512 445 OFFCURVE",
"498 428 CURVE SMOOTH",
"474 403 LINE SMOOTH",
"463 391 OFFCURVE",
"454 389 OFFCURVE",
"444 389 CURVE SMOOTH",
"370 389 LINE",
"420 565 LINE",
"604 565 LINE SMOOTH",
"624 565 OFFCURVE",
"633 558 OFFCURVE",
"634 536 CURVE SMOOTH",
"638 475 LINE SMOOTH",
"640 448 OFFCURVE",
"657 438 OFFCURVE",
"675 438 CURVE SMOOTH",
"693 438 OFFCURVE",
"703 447 OFFCURVE",
"716 483 CURVE SMOOTH",
"756 608 LINE SMOOTH",
"770 649 OFFCURVE",
"751 666 OFFCURVE",
"706 666 CURVE SMOOTH",
"206 666 LINE SMOOTH",
"171 666 OFFCURVE",
"153 660 OFFCURVE",
"147 642 CURVE SMOOTH",
"135 608 OFFCURVE",
"181 609 OFFCURVE",
"164 549 CURVE SMOOTH",
"41 118 LINE SMOOTH"
);
}
);
width = 683;
}
);
leftKerningGroup = H;
leftMetricsKey = H;
rightKerningGroup = E;
unicode = 0045;
},
{
glyphname = F;
lastChange = "2015-10-04 15:13:33 +0000";
layers = (
{
associatedMasterId = "FF8CB9F1-2B98-444C-A502-96421F2531A8";
background = {
paths = (
{
closed = 1;
nodes = (
"763 608 LINE SMOOTH",
"777 649 OFFCURVE",
"758 666 OFFCURVE",
"713 666 CURVE SMOOTH",
"206 666 LINE SMOOTH",
"171 666 OFFCURVE",
"153 660 OFFCURVE",
"147 642 CURVE SMOOTH",
"135 608 OFFCURVE",
"181 609 OFFCURVE",
"164 549 CURVE SMOOTH",
"41 118 LINE SMOOTH",
"25 59 OFFCURVE",
"-18 68 OFFCURVE",
"-26 36 CURVE SMOOTH",
"-31 13 OFFCURVE",
"-13 0 OFFCURVE",
"22 0 CURVE SMOOTH",
"273 0 LINE SMOOTH",
"308 0 OFFCURVE",
"330 6 OFFCURVE",
"335 25 CURVE SMOOTH",
"344 57 OFFCURVE",
"276 62 OFFCURVE",
"293 118 CURVE SMOOTH",
"336 265 LINE",
"434 265 LINE SMOOTH",
"443 265 OFFCURVE",
"451 258 OFFCURVE",
"453 248 CURVE SMOOTH",
"460 209 LINE SMOOTH",
"465 185 OFFCURVE",
"480 176 OFFCURVE",
"498 176 CURVE SMOOTH",
"516 176 OFFCURVE",
"529 184 OFFCURVE",
"538 216 CURVE SMOOTH",
"590 398 LINE SMOOTH",
"599 426 OFFCURVE",
"588 440 OFFCURVE",
"568 440 CURVE SMOOTH",
"549 440 OFFCURVE",
"532 432 OFFCURVE",
"514 412 CURVE SMOOTH",
"480 375 LINE SMOOTH",
"477 370 OFFCURVE",
"471 367 OFFCURVE",
"464 367 CURVE SMOOTH",
"366 367 LINE",
"420 565 LINE",
"611 565 LINE SMOOTH",
"631 565 OFFCURVE",
"640 558 OFFCURVE",
"641 536 CURVE SMOOTH",
"645 475 LINE SMOOTH",
"647 448 OFFCURVE",
"664 438 OFFCURVE",
"682 438 CURVE SMOOTH",
"700 438 OFFCURVE",
"710 447 OFFCURVE",
"723 483 CURVE SMOOTH"
);
}
);
};
layerId = "C3A91533-1A31-474D-8780-AFE384B909B0";
name = V1;
paths = (
{
closed = 1;
nodes = (
"763 608 LINE SMOOTH",
"777 649 OFFCURVE",
"758 666 OFFCURVE",
"713 666 CURVE SMOOTH",
"206 666 LINE SMOOTH",
"171 666 OFFCURVE",
"153 660 OFFCURVE",
"147 642 CURVE SMOOTH",
"135 608 OFFCURVE",
"181 609 OFFCURVE",
"164 549 CURVE SMOOTH",
"41 118 LINE SMOOTH",
"25 59 OFFCURVE",
"-18 68 OFFCURVE",
"-26 36 CURVE SMOOTH",
"-31 13 OFFCURVE",
"-13 0 OFFCURVE",
"22 0 CURVE SMOOTH",
"273 0 LINE SMOOTH",
"308 0 OFFCURVE",
"330 6 OFFCURVE",
"335 25 CURVE SMOOTH",
"344 57 OFFCURVE",
"276 62 OFFCURVE",
"293 118 CURVE SMOOTH",
"336 265 LINE",
"434 265 LINE SMOOTH",
"443 265 OFFCURVE",
"451 258 OFFCURVE",
"453 248 CURVE SMOOTH",
"460 209 LINE SMOOTH",
"465 185 OFFCURVE",
"480 176 OFFCURVE",
"498 176 CURVE SMOOTH",
"516 176 OFFCURVE",
"529 184 OFFCURVE",
"538 216 CURVE SMOOTH",
"590 398 LINE SMOOTH",
"599 426 OFFCURVE",
"588 440 OFFCURVE",
"568 440 CURVE SMOOTH",
"549 440 OFFCURVE",
"532 432 OFFCURVE",
"514 412 CURVE SMOOTH",
"480 375 LINE SMOOTH",
"477 370 OFFCURVE",
"471 367 OFFCURVE",
"464 367 CURVE SMOOTH",
"366 367 LINE",
"420 565 LINE",
"611 565 LINE SMOOTH",
"631 565 OFFCURVE",
"640 558 OFFCURVE",
"641 536 CURVE SMOOTH",
"645 475 LINE SMOOTH",
"647 448 OFFCURVE",
"664 438 OFFCURVE",
"682 438 CURVE SMOOTH",
"700 438 OFFCURVE",
"710 447 OFFCURVE",
"723 483 CURVE SMOOTH"
);
}
);
width = 662;
},
{
background = {
paths = (
{
closed = 1;
nodes = (
"735 608 LINE SMOOTH",
"749 649 OFFCURVE",
"700 666 OFFCURVE",
"654 666 CURVE SMOOTH",
"208 666 LINE SMOOTH",
"173 666 OFFCURVE",
"155 660 OFFCURVE",
"149 642 CURVE SMOOTH",
"137 608 OFFCURVE",
"183 609 OFFCURVE",
"166 549 CURVE SMOOTH",
"43 118 LINE SMOOTH",
"27 59 OFFCURVE",
"-16 68 OFFCURVE",
"-24 36 CURVE SMOOTH",
"-29 13 OFFCURVE",
"-11 0 OFFCURVE",
"24 0 CURVE SMOOTH",
"275 0 LINE SMOOTH",
"310 0 OFFCURVE",
"332 6 OFFCURVE",
"337 25 CURVE SMOOTH",
"346 57 OFFCURVE",
"279 62 OFFCURVE",
"295 118 CURVE SMOOTH",
"338 267 LINE",
"370 267 LINE SMOOTH",
"383 267 OFFCURVE",
"390 262 OFFCURVE",
"394 250 CURVE SMOOTH",
"407 211 LINE SMOOTH",
"414 189 OFFCURVE",
"431 178 OFFCURVE",
"454 178 CURVE SMOOTH",
"477 178 OFFCURVE",
"497 190 OFFCURVE",
"508 227 CURVE SMOOTH",
"554 388 LINE SMOOTH",
"563 418 OFFCURVE",
"547 440 OFFCURVE",
"515 440 CURVE SMOOTH",
"490 440 OFFCURVE",
"472 430 OFFCURVE",
"455 412 CURVE SMOOTH",
"424 378 LINE SMOOTH",
"417 370 OFFCURVE",
"410 367 OFFCURVE",
"402 367 CURVE SMOOTH",
"368 367 LINE",
"422 566 LINE",
"532 566 LINE SMOOTH",
"553 566 OFFCURVE",
"557 557 OFFCURVE",
"562 536 CURVE SMOOTH",
"576 475 LINE SMOOTH",
"582 449 OFFCURVE",
"605 438 OFFCURVE",
"623 438 CURVE SMOOTH",
"642 438 OFFCURVE",
"682 447 OFFCURVE",
"695 483 CURVE SMOOTH"
);
}
);
};
layerId = "FF8CB9F1-2B98-444C-A502-96421F2531A8";
name = "Bold Italic";
paths = (
{
closed = 1;
nodes = (
"275 0 LINE SMOOTH",
"310 0 OFFCURVE",
"332 6 OFFCURVE",
"337 25 CURVE SMOOTH",
"347 61 OFFCURVE",
"279 62 OFFCURVE",
"295 118 CURVE SMOOTH",
"422 565 LINE",
"522 565 LINE SMOOTH",
"549 565 OFFCURVE",
"552 557 OFFCURVE",
"557 540 CURVE SMOOTH",
"573 483 LINE SMOOTH",
"582 450 OFFCURVE",
"603 438 OFFCURVE",
"635 438 CURVE SMOOTH",
"667 438 OFFCURVE",
"690 449 OFFCURVE",
"700 486 CURVE SMOOTH",
"726 579 LINE SMOOTH",
"742 634 OFFCURVE",
"712 666 OFFCURVE",
"652 666 CURVE SMOOTH",
"208 666 LINE SMOOTH",
"173 666 OFFCURVE",
"155 660 OFFCURVE",
"149 642 CURVE SMOOTH",
"137 608 OFFCURVE",
"183 609 OFFCURVE",
"166 549 CURVE SMOOTH",
"43 118 LINE SMOOTH",
"27 59 OFFCURVE",
"-16 68 OFFCURVE",
"-24 36 CURVE SMOOTH",
"-29 13 OFFCURVE",
"-11 0 OFFCURVE",
"24 0 CURVE SMOOTH"
);
},
{
closed = 1;
nodes = (
"488 178 OFFCURVE",
"508 190 OFFCURVE",
"519 227 CURVE SMOOTH",
"563 379 LINE SMOOTH",
"574 418 OFFCURVE",
"552 440 OFFCURVE",
"522 440 CURVE SMOOTH",
"501 440 OFFCURVE",
"485 431 OFFCURVE",
"463 412 CURVE SMOOTH",
"432 386 LINE SMOOTH",
"415 371 OFFCURVE",
"403 367 OFFCURVE",
"385 367 CURVE SMOOTH",
"328 367 LINE",
"298 267 LINE",
"366 267 LINE SMOOTH",
"381 267 OFFCURVE",
"387 264 OFFCURVE",
"397 245 CURVE SMOOTH",
"415 211 LINE SMOOTH",
"427 189 OFFCURVE",
"442 178 OFFCURVE",
"465 178 CURVE SMOOTH"
);
}
);
width = 631;
visible = 1;
}
);
leftKerningGroup = H;
leftMetricsKey = H;
unicode = 0046;
},
{
glyphname = G;
lastChange = "2015-10-04 15:13:33 +0000";
layers = (
{
anchors = (
{
name = bottom;
position = "{394, 0}";
},
{
name = top;
position = "{411, 651}";
}
);
background = {
paths = (
{
closed = 1;
nodes = (
"543 -6 OFFCURVE",
"643 146 OFFCURVE",
"642 181 CURVE SMOOTH",
"642 205 OFFCURVE",
"607 235 OFFCURVE",
"584 235 CURVE SMOOTH",
"531 235 OFFCURVE",
"506 114 OFFCURVE",
"387 114 CURVE SMOOTH",
"324 114 OFFCURVE",
"290 183 OFFCURVE",
"339 355 CURVE SMOOTH",
"378 494 OFFCURVE",
"430 557 OFFCURVE",
"483 557 CURVE SMOOTH",
"523 557 OFFCURVE",
"543 540 OFFCURVE",
"574 480 CURVE SMOOTH",
"603 424 OFFCURVE",
"622 398 OFFCURVE",
"658 398 CURVE SMOOTH",
"692 398 OFFCURVE",
"705 412 OFFCURVE",
"715 447 CURVE SMOOTH",
"763 603 LINE SMOOTH",
"775 644 OFFCURVE",
"749 668 OFFCURVE",
"708 668 CURVE SMOOTH",
"677 668 OFFCURVE",
"658 659 OFFCURVE",
"623 631 CURVE SMOOTH",
"597 610 LINE",
"549 651 OFFCURVE",
"492 676 OFFCURVE",
"412 676 CURVE SMOOTH",
"289 676 OFFCURVE",
"141 610 OFFCURVE",
"79 393 CURVE SMOOTH",
"5 132 OFFCURVE",
"161 -6 OFFCURVE",
"362 -6 CURVE SMOOTH"
);
}
);
};
guideLines = (
{
angle = 74.0722;
position = "{623, -27}";
},
{
angle = 74.0722;
position = "{606, -27}";
},
{
angle = 74.0722;
position = "{412, -27}";
},
{
angle = 74.0722;
position = "{230, -27}";
},
{
angle = 74.0722;
position = "{-40, -27}";
},
{
position = "{354, 335}";
}
);
layerId = "FF8CB9F1-2B98-444C-A502-96421F2531A8";
name = "Bold Italic";
paths = (
{
closed = 1;
nodes = (
"375 -6 OFFCURVE",
"434 29 OFFCURVE",
"476 78 CURVE",
"486 49 LINE SMOOTH",
"500 8 OFFCURVE",
"522 0 OFFCURVE",
"551 0 CURVE SMOOTH",
"593 0 LINE SMOOTH",
"614 0 OFFCURVE",
"632 8 OFFCURVE",
"646 55 CURVE SMOOTH",
"699 240 LINE SMOOTH",
"702 251 OFFCURVE",
"707 257 OFFCURVE",
"721 265 CURVE SMOOTH",
"747 280 LINE SMOOTH",
"768 291 OFFCURVE",
"781 301 OFFCURVE",
"786 322 CURVE SMOOTH",
"793 343 OFFCURVE",
"783 355 OFFCURVE",
"755 355 CURVE SMOOTH",
"453 356 LINE SMOOTH",
"422 356 OFFCURVE",
"411 347 OFFCURVE",
"406 331 CURVE SMOOTH",
"402 316 OFFCURVE",
"405 296 OFFCURVE",
"428 287 CURVE SMOOTH",
"463 274 LINE SMOOTH",
"483 266 OFFCURVE",
"493 260 OFFCURVE",
"482 219 CURVE SMOOTH",
"475 194 LINE SMOOTH",
"461 144 OFFCURVE",
"441 127 OFFCURVE",
"398 127 CURVE SMOOTH",
"328 127 OFFCURVE",
"296 203 OFFCURVE",
"339 354 CURVE SMOOTH",
"382 506 OFFCURVE",
"442 551 OFFCURVE",
"495 551 CURVE SMOOTH",
"535 551 OFFCURVE",
"564 528 OFFCURVE",
"605 474 CURVE SMOOTH",
"637 432 OFFCURVE",
"659 419 OFFCURVE",
"690 419 CURVE SMOOTH",
"720 419 OFFCURVE",
"737 433 OFFCURVE",
"750 477 CURVE SMOOTH",
"786 603 LINE SMOOTH",
"798 644 OFFCURVE",
"772 668 OFFCURVE",
"731 668 CURVE SMOOTH",
"700 668 OFFCURVE",
"680 660 OFFCURVE",
"646 631 CURVE SMOOTH",
"616 602 LINE",
"566 647 OFFCURVE",
"507 676 OFFCURVE",
"432 676 CURVE SMOOTH",
"309 676 OFFCURVE",
"145 619 OFFCURVE",
"77 384 CURVE SMOOTH",
"4 132 OFFCURVE",
"132 -6 OFFCURVE",
"296 -6 CURVE SMOOTH"
);
}
);
width = 757;
},
{
associatedMasterId = "FF8CB9F1-2B98-444C-A502-96421F2531A8";
background = {
paths = (
{
closed = 1;
nodes = (
"21 223 OFFCURVE",
"166 -9 OFFCURVE",
"440 -9 CURVE SMOOTH",
"531 -9 OFFCURVE",
"614 28 OFFCURVE",
"670 88 CURVE",
"686 65 LINE SMOOTH",
"719 18 OFFCURVE",
"727 0 OFFCURVE",
"769 0 CURVE SMOOTH",
"829 0 LINE SMOOTH",
"858 0 OFFCURVE",
"886 13 OFFCURVE",
"906 78 CURVE SMOOTH",
"980 332 LINE SMOOTH",
"985 347 OFFCURVE",
"992 356 OFFCURVE",
"1012 367 CURVE SMOOTH",
"1050 388 LINE SMOOTH",
"1080 404 OFFCURVE",
"1098 419 OFFCURVE",
"1107 448 CURVE SMOOTH",
"1117 478 OFFCURVE",
"1103 496 OFFCURVE",
"1063 496 CURVE SMOOTH",
"647 497 LINE SMOOTH",
"602 497 OFFCURVE",
"587 484 OFFCURVE",
"580 462 CURVE SMOOTH",
"573 440 OFFCURVE",
"579 416 OFFCURVE",
"610 399 CURVE SMOOTH",
"646 380 LINE SMOOTH",
"672 366 OFFCURVE",
"685 349 OFFCURVE",
"670 299 CURVE SMOOTH",
"649 227 LINE SMOOTH",
"638 193 OFFCURVE",
"604 175 OFFCURVE",
"562 175 CURVE SMOOTH",
"494 175 OFFCURVE",
"403 251 OFFCURVE",
"483 519 CURVE SMOOTH",
"549 742 OFFCURVE",
"661 781 OFFCURVE",
"742 781 CURVE SMOOTH",
"822 781 OFFCURVE",
"865 745 OFFCURVE",
"902 690 CURVE SMOOTH",
"943 629 OFFCURVE",
"961 616 OFFCURVE",
"992 616 CURVE SMOOTH",
"1020 616 LINE SMOOTH",
"1047 616 OFFCURVE",
"1063 635 OFFCURVE",
"1078 685 CURVE SMOOTH",
"1142 889 LINE SMOOTH",
"1153 927 OFFCURVE",
"1142 952 OFFCURVE",
"1095 952 CURVE SMOOTH",
"1057 952 LINE SMOOTH",
"1006 952 OFFCURVE",
"977 930 OFFCURVE",
"924 864 CURVE",
"848 925 OFFCURVE",
"770 961 OFFCURVE",
"635 961 CURVE SMOOTH",
"451 961 OFFCURVE",
"212 872 OFFCURVE",
"118 562 CURVE SMOOTH"
);
}
);
};
guideLines = (
{
angle = 73.2323;
position = "{1200, 914}";
},
{
angle = 73.2323;
position = "{888, 914}";
}
);
layerId = "5E9FAEF1-5749-4FB3-815A-63944450B00C";
name = "Bold Italic Aug 3 15, 15:50";
paths = (
{
closed = 1;
nodes = (
"21 223 OFFCURVE",
"166 -9 OFFCURVE",
"440 -9 CURVE SMOOTH",
"531 -9 OFFCURVE",
"614 28 OFFCURVE",
"670 88 CURVE",
"686 65 LINE SMOOTH",
"719 18 OFFCURVE",
"727 0 OFFCURVE",
"769 0 CURVE SMOOTH",
"829 0 LINE SMOOTH",
"858 0 OFFCURVE",
"887 13 OFFCURVE",
"906 78 CURVE SMOOTH",
"986 352 LINE SMOOTH",
"990 367 OFFCURVE",
"998 376 OFFCURVE",
"1018 387 CURVE SMOOTH",
"1056 408 LINE SMOOTH",
"1086 424 OFFCURVE",
"1104 439 OFFCURVE",
"1113 468 CURVE SMOOTH",
"1123 498 OFFCURVE",
"1109 516 OFFCURVE",
"1069 516 CURVE SMOOTH",
"653 517 LINE SMOOTH",
"608 517 OFFCURVE",
"593 504 OFFCURVE",
"586 482 CURVE SMOOTH",
"579 460 OFFCURVE",
"585 436 OFFCURVE",
"616 419 CURVE SMOOTH",
"652 400 LINE SMOOTH",
"678 386 OFFCURVE",
"691 370 OFFCURVE",
"676 319 CURVE SMOOTH",
"649 227 LINE SMOOTH",
"639 192 OFFCURVE",
"604 175 OFFCURVE",
"562 175 CURVE SMOOTH",
"494 175 OFFCURVE",
"403 251 OFFCURVE",
"483 519 CURVE SMOOTH",
"549 742 OFFCURVE",
"661 781 OFFCURVE",
"742 781 CURVE SMOOTH",
"822 781 OFFCURVE",
"865 745 OFFCURVE",
"902 690 CURVE SMOOTH",
"943 629 OFFCURVE",
"961 616 OFFCURVE",
"992 616 CURVE SMOOTH",
"1020 616 LINE SMOOTH",
"1047 616 OFFCURVE",
"1063 635 OFFCURVE",
"1078 685 CURVE SMOOTH",
"1142 889 LINE SMOOTH",
"1153 927 OFFCURVE",
"1142 952 OFFCURVE",
"1095 952 CURVE SMOOTH",
"1057 952 LINE SMOOTH",
"1006 952 OFFCURVE",
"977 930 OFFCURVE",
"924 864 CURVE",
"848 925 OFFCURVE",
"770 961 OFFCURVE",
"635 961 CURVE SMOOTH",
"451 961 OFFCURVE",
"212 872 OFFCURVE",
"118 562 CURVE SMOOTH"
);
}
);
width = 1086;
}
);
leftKerningGroup = O;
rightKerningGroup = G;
unicode = 0047;
},
{
glyphname = H;
lastChange = "2015-10-04 15:13:33 +0000";
layers = (
{
layerId = "FF8CB9F1-2B98-444C-A502-96421F2531A8";
name = "Bold Italic";
paths = (
{
closed = 1;
nodes = (
"211 666 LINE SMOOTH",
"175 666 OFFCURVE",
"157 660 OFFCURVE",
"151 642 CURVE SMOOTH",
"140 608 OFFCURVE",
"185 609 OFFCURVE",
"168 549 CURVE SMOOTH",
"45 118 LINE SMOOTH",
"28 58 OFFCURVE",
"-9 69 OFFCURVE",
"-23 39 CURVE SMOOTH",
"-32 15 OFFCURVE",
"-18 0 OFFCURVE",
"18 0 CURVE SMOOTH",
"253 0 LINE SMOOTH",
"289 0 OFFCURVE",
"307 6 OFFCURVE",
"314 25 CURVE SMOOTH",
"325 58 OFFCURVE",
"279 57 OFFCURVE",
"296 118 CURVE SMOOTH",
"419 549 LINE SMOOTH",
"436 608 OFFCURVE",
"474 597 OFFCURVE",
"487 628 CURVE SMOOTH",
"497 651 OFFCURVE",
"481 666 OFFCURVE",
"446 666 CURVE SMOOTH"
);
},
{
closed = 1;
nodes = (
"639 666 LINE SMOOTH",
"603 666 OFFCURVE",
"585 660 OFFCURVE",
"579 642 CURVE SMOOTH",
"568 608 OFFCURVE",
"613 609 OFFCURVE",
"596 549 CURVE SMOOTH",
"473 118 LINE SMOOTH",
"456 58 OFFCURVE",
"419 69 OFFCURVE",
"405 39 CURVE SMOOTH",
"396 15 OFFCURVE",
"411 0 OFFCURVE",
"446 0 CURVE SMOOTH",
"681 0 LINE SMOOTH",
"717 0 OFFCURVE",
"735 6 OFFCURVE",
"742 25 CURVE SMOOTH",
"753 58 OFFCURVE",
"707 57 OFFCURVE",
"724 118 CURVE SMOOTH",
"847 549 LINE SMOOTH",
"864 608 OFFCURVE",
"902 597 OFFCURVE",
"915 628 CURVE SMOOTH",
"925 651 OFFCURVE",
"909 666 OFFCURVE",
"874 666 CURVE SMOOTH"
);
},
{
closed = 1;
nodes = (
"270 285 LINE",
"636 285 LINE",
"640 385 LINE",
"274 385 LINE"
);
}
);
width = 834;
},
{
associatedMasterId = "FF8CB9F1-2B98-444C-A502-96421F2531A8";
background = {
paths = (
{
closed = 1;
nodes = (
"134 526 LINE SMOOTH",
"92 526 OFFCURVE",
"68 504 OFFCURVE",
"60 475 CURVE SMOOTH",
"25 344 OFFCURVE",
"168 215 OFFCURVE",
"296 215 CURVE SMOOTH",
"392 215 OFFCURVE",
"446 267 OFFCURVE",
"490 411 CURVE SMOOTH",
"553 618 LINE SMOOTH",
"562 649 OFFCURVE",
"567 677 OFFCURVE",
"567 703 CURVE SMOOTH",
"567 831 OFFCURVE",
"450 902 OFFCURVE",
"335 902 CURVE SMOOTH",
"194 902 OFFCURVE",
"125 822 OFFCURVE",
"125 737 CURVE SMOOTH",
"125 719 OFFCURVE",
"131 701 OFFCURVE",
"142 701 CURVE SMOOTH",
"155 701 OFFCURVE",
"162 733 OFFCURVE",
"192 733 CURVE SMOOTH",
"203 733 OFFCURVE",
"214 727 OFFCURVE",
"214 712 CURVE SMOOTH",
"214 709 OFFCURVE",
"213 705 OFFCURVE",
"212 701 CURVE SMOOTH",
"159 526 LINE"
);
}
);
};
layerId = "C19AEFB9-9930-4C6F-8C20-E16FC7473BC1";
name = "Bold Italic Jul 27 15, 12:05";
paths = (
{
closed = 1;
nodes = (
"866 902 OFFCURVE",
"828 876 OFFCURVE",
"801 791 CURVE SMOOTH",
"594 143 LINE SMOOTH",
"565 53 OFFCURVE",
"626 -4 OFFCURVE",
"746 -4 CURVE SMOOTH",
"858 -4 OFFCURVE",
"896 23 OFFCURVE",
"923 107 CURVE SMOOTH",
"1130 755 LINE SMOOTH",
"1159 845 OFFCURVE",
"1114 902 OFFCURVE",
"978 902 CURVE SMOOTH"
);
},
{
closed = 1;
nodes = (
"117 532 LINE SMOOTH",
"15 532 OFFCURVE",
"-27 382 OFFCURVE",
"77 382 CURVE SMOOTH",
"805 382 LINE",
"805 532 LINE"
);
},
{
closed = 1;
nodes = (
"205 902 OFFCURVE",
"125 822 OFFCURVE",
"125 737 CURVE SMOOTH",
"125 719 OFFCURVE",
"131 701 OFFCURVE",
"142 701 CURVE SMOOTH",
"155 701 OFFCURVE",
"162 733 OFFCURVE",
"192 733 CURVE SMOOTH",
"203 733 OFFCURVE",
"214 727 OFFCURVE",
"214 712 CURVE SMOOTH",
"214 709 OFFCURVE",
"213 705 OFFCURVE",
"212 701 CURVE SMOOTH",
"34 143 LINE SMOOTH",
"5 53 OFFCURVE",
"66 -4 OFFCURVE",
"186 -4 CURVE SMOOTH",
"298 -4 OFFCURVE",
"336 23 OFFCURVE",
"363 107 CURVE SMOOTH",
"549 690 LINE SMOOTH",
"585 802 OFFCURVE",
"519 902 OFFCURVE",
"341 902 CURVE SMOOTH"
);
}
);
width = 1065;
}
);
leftKerningGroup = H;
leftMetricsKey = H;
rightKerningGroup = M;
rightMetricsKey = I;
unicode = 0048;
},
{
glyphname = I;
lastChange = "2015-10-04 15:13:33 +0000";
layers = (
{
anchors = (
{
name = bottom;
position = "{182, 0}";
},
{
name = ogonek;
position = "{183, 0}";
},
{
name = top;
position = "{297, 651}";
}
);
layerId = "FF8CB9F1-2B98-444C-A502-96421F2531A8";
name = "Bold Italic";
paths = (
{
closed = 1;
nodes = (
"209 666 LINE SMOOTH",
"173 666 OFFCURVE",
"155 660 OFFCURVE",
"150 642 CURVE SMOOTH",
"138 608 OFFCURVE",
"183 609 OFFCURVE",
"166 549 CURVE SMOOTH",
"44 118 LINE SMOOTH",
"27 58 OFFCURVE",
"-10 69 OFFCURVE",
"-23 39 CURVE SMOOTH",
"-33 15 OFFCURVE",
"-18 0 OFFCURVE",
"18 0 CURVE SMOOTH",
"253 0 LINE SMOOTH",
"289 0 OFFCURVE",
"307 6 OFFCURVE",
"313 25 CURVE SMOOTH",
"324 58 OFFCURVE",
"279 57 OFFCURVE",
"296 118 CURVE SMOOTH",
"417 549 LINE SMOOTH",
"434 608 OFFCURVE",
"472 597 OFFCURVE",
"485 628 CURVE SMOOTH",
"495 651 OFFCURVE",
"480 666 OFFCURVE",
"444 666 CURVE SMOOTH"
);
}
);
width = 404;
}
);
leftKerningGroup = I;
leftMetricsKey = H;
rightKerningGroup = I;
rightMetricsKey = H;
unicode = 0049;
},
{
glyphname = J;
lastChange = "2015-10-04 15:13:33 +0000";
layers = (
{
guideLines = (
{
angle = 74.0722;
position = "{-41, 118}";
},
{
angle = 74.0722;
position = "{175, 118}";
}
);
layerId = "FF8CB9F1-2B98-444C-A502-96421F2531A8";
name = "Bold Italic";
paths = (
{
closed = 1;
nodes = (
"228 114 OFFCURVE",
"206 84 OFFCURVE",
"178 84 CURVE SMOOTH",
"163 84 OFFCURVE",
"152 87 OFFCURVE",
"141 94 CURVE",
"165 109 OFFCURVE",
"178 129 OFFCURVE",
"186 156 CURVE SMOOTH",
"206 226 OFFCURVE",
"177 294 OFFCURVE",
"99 294 CURVE SMOOTH",
"51 294 OFFCURVE",
"2 267 OFFCURVE",
"-16 203 CURVE SMOOTH",
"-46 101 OFFCURVE",
"30 -6 OFFCURVE",
"216 -6 CURVE SMOOTH",
"369 -6 OFFCURVE",
"465 61 OFFCURVE",
"505 203 CURVE SMOOTH",
"603 549 LINE SMOOTH",
"620 608 OFFCURVE",
"658 597 OFFCURVE",
"671 628 CURVE SMOOTH",
"681 651 OFFCURVE",
"665 666 OFFCURVE",
"630 666 CURVE SMOOTH",
"346 666 LINE SMOOTH",
"313 666 OFFCURVE",
"297 661 OFFCURVE",
"293 642 CURVE SMOOTH",
"283 603 OFFCURVE",
"369 601 OFFCURVE",
"351 540 CURVE SMOOTH",
"242 164 LINE SMOOTH"
);
}
);
width = 591;
}
);
rightMetricsKey = I;
unicode = 004A;
},
{
glyphname = K;
lastChange = "2015-10-04 15:13:33 +0000";
layers = (
{
anchors = (
{
name = bottom;
position = "{413, 0}";
},
{
name = top;
position = "{540, 833}";
}
);
background = {
paths = (
{
closed = 1;
nodes = (
"615 469 OFFCURVE",
"637 491 OFFCURVE",
"637 519 CURVE SMOOTH",
"637 546 OFFCURVE",
"615 568 OFFCURVE",
"589 568 CURVE SMOOTH",
"561 568 OFFCURVE",
"539 546 OFFCURVE",
"539 519 CURVE SMOOTH",
"539 491 OFFCURVE",
"561 469 OFFCURVE",
"589 469 CURVE SMOOTH"
);
},
{
closed = 1;
nodes = (
"405 288 OFFCURVE",
"427 310 OFFCURVE",
"427 338 CURVE SMOOTH",
"427 365 OFFCURVE",
"405 387 OFFCURVE",
"379 387 CURVE SMOOTH",
"351 387 OFFCURVE",
"329 365 OFFCURVE",
"329 338 CURVE SMOOTH",
"329 310 OFFCURVE",
"351 288 OFFCURVE",
"379 288 CURVE SMOOTH"
);
},
{
closed = 0;
nodes = (
"660 1 LINE SMOOTH",
"703 1 OFFCURVE",
"717 15 OFFCURVE",
"715 37 CURVE SMOOTH",
"713 64 OFFCURVE",
"670 67 OFFCURVE",
"650 137 CURVE SMOOTH"
);
}
);
};
guideLines = (
{
angle = 41.5083;
position = "{220, 114}";
},
{
angle = 41.5083;
position = "{220, 264}";
},
{
angle = 41.5083;
position = "{220, 114}";
},
{
angle = 74.1952;
position = "{769, 218}";
},
{
angle = -76.1632;
position = "{610, 296}";
}
);
layerId = "FF8CB9F1-2B98-444C-A502-96421F2531A8";
name = "Bold Italic";
paths = (
{
closed = 1;
nodes = (
"209 666 LINE SMOOTH",
"173 666 OFFCURVE",
"155 660 OFFCURVE",
"150 642 CURVE SMOOTH",
"138 608 OFFCURVE",
"183 609 OFFCURVE",
"166 549 CURVE SMOOTH",
"44 118 LINE SMOOTH",
"27 58 OFFCURVE",
"-10 69 OFFCURVE",
"-23 39 CURVE SMOOTH",
"-33 15 OFFCURVE",
"-18 0 OFFCURVE",
"18 0 CURVE SMOOTH",
"253 0 LINE SMOOTH",
"289 0 OFFCURVE",
"307 6 OFFCURVE",
"313 25 CURVE SMOOTH",
"324 58 OFFCURVE",
"279 57 OFFCURVE",
"296 118 CURVE SMOOTH",
"417 549 LINE SMOOTH",
"434 608 OFFCURVE",
"472 597 OFFCURVE",
"485 628 CURVE SMOOTH",
"495 651 OFFCURVE",
"480 666 OFFCURVE",
"444 666 CURVE SMOOTH"
);
},
{
closed = 1;
nodes = (
"354 276 LINE",
"408 93 LINE SMOOTH",
"427 30 OFFCURVE",
"450 0 OFFCURVE",
"519 0 CURVE SMOOTH",
"650 0 LINE SMOOTH",
"693 0 OFFCURVE",
"710 10 OFFCURVE",
"714 25 CURVE SMOOTH",
"724 62 OFFCURVE",
"675 62 OFFCURVE",
"650 137 CURVE SMOOTH",
"544 451 LINE"
);
},
{
closed = 1;
nodes = (
"285 200 LINE",
"639 496 LINE",
"663 466 OFFCURVE",
"688 454 OFFCURVE",
"725 454 CURVE SMOOTH",
"780 454 OFFCURVE",
"830 499 OFFCURVE",
"830 570 CURVE SMOOTH",
"830 633 OFFCURVE",
"787 670 OFFCURVE",
"732 670 CURVE SMOOTH",
"700 670 OFFCURVE",
"674 658 OFFCURVE",
"640 629 CURVE SMOOTH",
"320 352 LINE"
);
}
);
width = 787;
},
{
associatedMasterId = "FF8CB9F1-2B98-444C-A502-96421F2531A8";
background = {
paths = (
{
closed = 1;
nodes = (
"643 349 LINE",
"673 455 LINE",
"690 450 OFFCURVE",
"703 446 OFFCURVE",
"729 446 CURVE SMOOTH",
"768 446 OFFCURVE",
"813 466 OFFCURVE",
"829 529 CURVE SMOOTH",
"848 602 OFFCURVE",
"806 670 OFFCURVE",
"728 670 CURVE SMOOTH",
"642 670 OFFCURVE",
"618 614 OFFCURVE",
"594 531 CURVE SMOOTH",
"564 425 LINE"
);
}
);
};
layerId = "E4F4997A-8D3C-4D8D-B292-A8F14AACC433";
name = "Bold Italic Aug 12 15, 14:55";
paths = (
{
closed = 1;
nodes = (
"206 666 LINE SMOOTH",
"170 666 OFFCURVE",
"152 660 OFFCURVE",
"147 642 CURVE SMOOTH",
"135 608 OFFCURVE",
"180 609 OFFCURVE",
"163 549 CURVE SMOOTH",
"41 118 LINE SMOOTH",
"24 58 OFFCURVE",
"-13 69 OFFCURVE",
"-26 39 CURVE SMOOTH",
"-36 15 OFFCURVE",
"-21 0 OFFCURVE",
"15 0 CURVE SMOOTH",
"250 0 LINE SMOOTH",
"286 0 OFFCURVE",
"304 6 OFFCURVE",
"310 25 CURVE SMOOTH",
"321 58 OFFCURVE",
"276 57 OFFCURVE",
"293 118 CURVE SMOOTH",
"414 549 LINE SMOOTH",
"431 608 OFFCURVE",
"469 597 OFFCURVE",
"482 628 CURVE SMOOTH",
"492 651 OFFCURVE",
"477 666 OFFCURVE",
"441 666 CURVE SMOOTH"
);
},
{
closed = 1;
nodes = (
"335 276 LINE",
"405 93 LINE SMOOTH",
"428 32 OFFCURVE",
"437 1 OFFCURVE",
"506 1 CURVE SMOOTH",
"657 1 LINE SMOOTH",
"700 1 OFFCURVE",
"714 15 OFFCURVE",
"712 37 CURVE SMOOTH",
"710 64 OFFCURVE",
"678 70 OFFCURVE",
"647 137 CURVE SMOOTH",
"516 418 LINE"
);
},
{
closed = 1;
nodes = (
"295 212 LINE",
"649 488 LINE",
"673 458 OFFCURVE",
"698 446 OFFCURVE",
"735 446 CURVE SMOOTH",
"790 446 OFFCURVE",
"840 499 OFFCURVE",
"840 562 CURVE SMOOTH",
"840 625 OFFCURVE",
"790 670 OFFCURVE",
"735 670 CURVE SMOOTH",
"703 670 OFFCURVE",
"674 658 OFFCURVE",
"640 629 CURVE SMOOTH",
"317 352 LINE"
);
}
);
width = 777;
}
);
leftKerningGroup = H;
leftMetricsKey = H;
rightKerningGroup = K;
unicode = 004B;
},
{
glyphname = L;
lastChange = "2015-10-04 15:13:33 +0000";
layers = (
{
anchors = (
{
name = bottom;
position = "{326, 0}";
},
{
name = right;
position = "{505, 666}";
},
{
name = top;
position = "{301, 651}";
}
);
background = {
components = (
{
name = H;
}
);
};
layerId = "FF8CB9F1-2B98-444C-A502-96421F2531A8";
name = "Bold Italic";
paths = (
{
closed = 1;
nodes = (
"539 258 OFFCURVE",
"518 245 OFFCURVE",
"494 216 CURVE SMOOTH",
"425 134 LINE SMOOTH",
"400 104 OFFCURVE",
"381 96 OFFCURVE",
"351 96 CURVE SMOOTH",
"289 96 LINE",
"418 549 LINE SMOOTH",
"435 608 OFFCURVE",
"473 597 OFFCURVE",
"486 628 CURVE SMOOTH",
"496 651 OFFCURVE",
"481 666 OFFCURVE",
"445 666 CURVE SMOOTH",
"210 666 LINE SMOOTH",
"174 666 OFFCURVE",
"156 660 OFFCURVE",
"151 642 CURVE",
"139 608 OFFCURVE",
"184 609 OFFCURVE",
"167 549 CURVE SMOOTH",
"45 118 LINE SMOOTH",
"28 58 OFFCURVE",
"-10 69 OFFCURVE",
"-23 39 CURVE",
"-32 15 OFFCURVE",
"-18 0 OFFCURVE",
"18 0 CURVE SMOOTH",
"488 0 LINE SMOOTH",
"549 0 OFFCURVE",
"577 20 OFFCURVE",
"594 77 CURVE SMOOTH",
"627 194 LINE SMOOTH",
"638 234 OFFCURVE",
"618 258 OFFCURVE",
"573 258 CURVE SMOOTH"
);
}
);
width = 651;
}
);
leftKerningGroup = H;
leftMetricsKey = H;
rightKerningGroup = L;
unicode = 004C;
},
{
glyphname = Lslash;
lastChange = "2015-10-04 15:13:33 +0000";
layers = (
{
components = (
{
name = L;
transform = "{1, 0, 0, 1, -3, 0}";
}
);
layerId = "FF8CB9F1-2B98-444C-A502-96421F2531A8";
name = "Bold Italic";
paths = (
{
closed = 1;
nodes = (
"-3 292 OFFCURVE",
"11 272 OFFCURVE",
"44 275 CURVE SMOOTH",
"394 312 LINE SMOOTH",
"428 316 OFFCURVE",
"448 329 OFFCURVE",
"457 358 CURVE SMOOTH",
"464 387 OFFCURVE",
"451 408 OFFCURVE",
"417 404 CURVE SMOOTH",
"68 367 LINE SMOOTH",
"35 364 OFFCURVE",
"13 350 OFFCURVE",
"5 321 CURVE SMOOTH"
);
}
);
width = 639;
}
);
rightKerningGroup = L;
unicode = 0141;
},
{
glyphname = M;
lastChange = "2015-10-04 15:13:33 +0000";
layers = (
{
background = {
components = (
{
name = M.init;
}
);
};
guideLines = (
{
position = "{239, 331}";
}
);
layerId = "FF8CB9F1-2B98-444C-A502-96421F2531A8";
name = "Bold Italic";
paths = (
{
closed = 1;
nodes = (
"781 495 LINE",
"675 119 LINE SMOOTH",
"658 60 OFFCURVE",
"620 71 OFFCURVE",
"607 40 CURVE SMOOTH",
"598 17 OFFCURVE",
"612 1 OFFCURVE",
"648 1 CURVE SMOOTH",
"883 1 LINE SMOOTH",
"919 1 OFFCURVE",
"937 8 OFFCURVE",
"943 26 CURVE SMOOTH",
"954 59 OFFCURVE",
"909 59 OFFCURVE",
"926 119 CURVE SMOOTH",
"1048 549 LINE SMOOTH",
"1065 608 OFFCURVE",
"1103 597 OFFCURVE",
"1115 628 CURVE SMOOTH",
"1126 651 OFFCURVE",
"1110 666 OFFCURVE",
"1074 666 CURVE SMOOTH",
"925 666 LINE SMOOTH",
"874 666 OFFCURVE",
"844 658 OFFCURVE",
"808 613 CURVE SMOOTH",
"523 258 LINE",
"550 234 LINE",
"437 608 LINE SMOOTH",
"425 649 OFFCURVE",
"411 666 OFFCURVE",
"369 666 CURVE SMOOTH",
"214 666 LINE SMOOTH",
"171 666 OFFCURVE",
"158 648 OFFCURVE",
"172 603 CURVE SMOOTH",
"334 68 LINE SMOOTH",
"348 21 OFFCURVE",
"363 0 OFFCURVE",
"396 0 CURVE SMOOTH",
"430 0 OFFCURVE",
"451 17 OFFCURVE",
"492 68 CURVE SMOOTH",
"827 483 LINE"
);
},
{
closed = 1;
nodes = (
"264 459 LINE",
"202 599 LINE",
"66 118 LINE SMOOTH",
"49 58 OFFCURVE",
"12 69 OFFCURVE",
"-1 39 CURVE SMOOTH",
"-11 15 OFFCURVE",
"4 0 OFFCURVE",
"40 0 CURVE SMOOTH",
"123 0 LINE SMOOTH",
"159 0 OFFCURVE",
"177 6 OFFCURVE",
"183 25 CURVE SMOOTH",
"194 58 OFFCURVE",
"149 57 OFFCURVE",
"166 118 CURVE SMOOTH"
);
}
);
width = 1035;
},
{
associatedMasterId = "FF8CB9F1-2B98-444C-A502-96421F2531A8";
background = {
paths = (
{
closed = 1;
nodes = (
"211 539 LINE",
"118 211 LINE",
"101 216 OFFCURVE",
"88 220 OFFCURVE",
"62 220 CURVE SMOOTH",
"23 220 OFFCURVE",
"-22 200 OFFCURVE",
"-38 137 CURVE SMOOTH",
"-57 64 OFFCURVE",
"-15 -4 OFFCURVE",
"63 -4 CURVE SMOOTH",
"149 -4 OFFCURVE",
"188 50 OFFCURVE",
"212 135 CURVE SMOOTH",
"288 399 LINE"
);
}
);
};
guideLines = (
{
angle = -72.7456;
position = "{184, 600}";
},
{
angle = -72.7456;
position = "{420, 700}";
},
{
position = "{226, 331}";
},
{
angle = 51.0796;
position = "{742, 403}";
},
{
angle = 51.0796;
position = "{693, 503}";
}
);
layerId = "61F08FAB-4FDC-4AE3-99D9-F886DC3D4B81";
name = "Lower contrast";
paths = (
{
closed = 1;
nodes = (
"228 599 LINE",
"118 211 LINE",
"101 216 OFFCURVE",
"88 220 OFFCURVE",
"62 220 CURVE SMOOTH",
"23 220 OFFCURVE",
"-22 200 OFFCURVE",
"-38 137 CURVE SMOOTH",
"-57 64 OFFCURVE",
"-15 -4 OFFCURVE",
"63 -4 CURVE SMOOTH",
"149 -4 OFFCURVE",
"188 50 OFFCURVE",
"212 135 CURVE SMOOTH",
"305 459 LINE"
);
},
{
closed = 1;
nodes = (
"748 495 LINE",
"642 119 LINE SMOOTH",
"625 60 OFFCURVE",
"587 71 OFFCURVE",
"574 40 CURVE SMOOTH",
"565 17 OFFCURVE",
"579 1 OFFCURVE",
"615 1 CURVE SMOOTH",
"850 1 LINE SMOOTH",
"886 1 OFFCURVE",
"904 8 OFFCURVE",
"910 26 CURVE SMOOTH",
"921 59 OFFCURVE",
"876 59 OFFCURVE",
"893 119 CURVE SMOOTH",
"1015 549 LINE SMOOTH",
"1032 608 OFFCURVE",
"1070 597 OFFCURVE",
"1082 628 CURVE SMOOTH",
"1093 651 OFFCURVE",
"1077 666 OFFCURVE",
"1041 666 CURVE SMOOTH",
"884 666 LINE SMOOTH",
"833 666 OFFCURVE",
"803 658 OFFCURVE",
"767 613 CURVE SMOOTH",
"479 258 LINE",
"537 294 LINE",
"449 608 LINE SMOOTH",
"437 649 OFFCURVE",
"423 666 OFFCURVE",
"381 666 CURVE SMOOTH",
"226 666 LINE SMOOTH",
"178 666 OFFCURVE",
"169 648 OFFCURVE",
"184 600 CURVE SMOOTH",
"357 43 LINE SMOOTH",
"366 14 OFFCURVE",
"376 0 OFFCURVE",
"393 0 CURVE SMOOTH",
"411 0 OFFCURVE",
"424 9 OFFCURVE",
"440 29 CURVE SMOOTH",
"742 403 LINE"
);
}
);
width = 1000;
}
);
rightKerningGroup = M;
rightMetricsKey = I;
unicode = 004D;
},
{
glyphname = N;
lastChange = "2015-10-04 15:13:33 +0000";
layers = (
{
anchors = (
{
name = bottom;
position = "{359, 0}";
},
{
name = top;
position = "{448, 651}";
}
);
background = {
components = (
{
name = H;
}
);
};
guideLines = (
{
angle = -67.3801;
position = "{157, 600}";
},
{
angle = 74.3186;
position = "{640, 260}";
}
);
layerId = "FF8CB9F1-2B98-444C-A502-96421F2531A8";
name = "Bold Italic";
paths = (
{
closed = 1;
nodes = (
"261 459 LINE",
"182 599 LINE",
"46 118 LINE SMOOTH",
"29 58 OFFCURVE",
"-12 70 OFFCURVE",
"-22 36 CURVE SMOOTH",
"-28 15 OFFCURVE",
"-16 0 OFFCURVE",
"18 0 CURVE SMOOTH",
"127 0 LINE SMOOTH",
"163 0 OFFCURVE",
"181 6 OFFCURVE",
"187 25 CURVE SMOOTH",
"198 58 OFFCURVE",
"146 57 OFFCURVE",
"163 118 CURVE SMOOTH"
);
},
{
closed = 1;
nodes = (
"540 220 LINE SMOOTH",
"604 229 LINE SMOOTH",
"419 600 LINE SMOOTH",
"396 646 OFFCURVE",
"380 666 OFFCURVE",
"335 666 CURVE SMOOTH",
"187 666 LINE SMOOTH",
"153 666 OFFCURVE",
"135 647 OFFCURVE",
"157 600 CURVE SMOOTH",
"398 92 LINE SMOOTH",
"427 31 OFFCURVE",
"457 -4 OFFCURVE",
"514 -4 CURVE SMOOTH",
"574 -4 OFFCURVE",
"604 23 OFFCURVE",
"627 104 CURVE SMOOTH",
"751 548 LINE SMOOTH",
"768 608 OFFCURVE",
"809 596 OFFCURVE",
"819 630 CURVE SMOOTH",
"825 651 OFFCURVE",
"813 666 OFFCURVE",
"779 666 CURVE SMOOTH",
"670 666 LINE SMOOTH",
"634 666 OFFCURVE",
"616 660 OFFCURVE",
"610 641 CURVE SMOOTH",
"599 608 OFFCURVE",
"651 609 OFFCURVE",
"634 548 CURVE SMOOTH"
);
}
);
width = 727;
},
{
associatedMasterId = "FF8CB9F1-2B98-444C-A502-96421F2531A8";
background = {
components = (
{
name = H;
}
);
};
layerId = "4C971B5D-3D74-4E65-86D1-4E0E90ED8FBD";
name = "Lower contrast";
paths = (
{
closed = 1;
nodes = (
"232 611 LINE",
"118 211 LINE",
"101 216 OFFCURVE",
"88 220 OFFCURVE",
"62 220 CURVE SMOOTH",
"23 220 OFFCURVE",
"-22 200 OFFCURVE",
"-38 137 CURVE SMOOTH",
"-57 64 OFFCURVE",
"-15 -4 OFFCURVE",
"63 -4 CURVE SMOOTH",
"149 -4 OFFCURVE",
"188 53 OFFCURVE",
"212 135 CURVE SMOOTH",
"313 485 LINE"
);
},
{
closed = 1;
nodes = (
"422 84 LINE SMOOTH",
"451 21 OFFCURVE",
"480 -4 OFFCURVE",
"522 -4 CURVE SMOOTH",
"555 -4 OFFCURVE",
"577 12 OFFCURVE",
"590 60 CURVE SMOOTH",
"701 455 LINE",
"718 450 OFFCURVE",
"731 446 OFFCURVE",
"757 446 CURVE SMOOTH",
"796 446 OFFCURVE",
"841 466 OFFCURVE",
"857 529 CURVE SMOOTH",
"876 602 OFFCURVE",
"834 670 OFFCURVE",
"756 670 CURVE SMOOTH",
"670 670 OFFCURVE",
"630 614 OFFCURVE",
"607 531 CURVE SMOOTH",
"588 465 OFFCURVE",
"571 398 OFFCURVE",
"552 333 CURVE",
"584 303 LINE",
"433 608 LINE SMOOTH",
"412 651 OFFCURVE",
"407 666 OFFCURVE",
"366 666 CURVE SMOOTH",
"213 666 LINE SMOOTH",
"179 666 OFFCURVE",
"160 649 OFFCURVE",
"183 600 CURVE SMOOTH"
);
}
);
width = 789;
},
{
associatedMasterId = "FF8CB9F1-2B98-444C-A502-96421F2531A8";
background = {
components = (
{
name = H;
}
);
};
guideLines = (
{
angle = -67.3801;
position = "{149, 600}";
},
{
angle = 74.3186;
position = "{632, 260}";
}
);
layerId = "3DD6A58B-3FEC-487A-BEA8-68F74F8801CD";
name = "Bold Italic Aug 16 15, 14:36";
paths = (
{
closed = 1;
nodes = (
"243 459 LINE",
"174 599 LINE",
"38 118 LINE SMOOTH",
"21 58 OFFCURVE",
"-20 70 OFFCURVE",
"-30 36 CURVE SMOOTH",
"-36 15 OFFCURVE",
"-24 0 OFFCURVE",
"10 0 CURVE SMOOTH",
"109 0 LINE SMOOTH",
"145 0 OFFCURVE",
"163 6 OFFCURVE",
"169 25 CURVE SMOOTH",
"180 58 OFFCURVE",
"128 57 OFFCURVE",
"145 118 CURVE SMOOTH"
);
},
{
closed = 1;
nodes = (
"512 220 LINE",
"566 229 LINE",
"411 600 LINE SMOOTH",
"391 648 OFFCURVE",
"372 666 OFFCURVE",
"327 666 CURVE SMOOTH",
"179 666 LINE SMOOTH",
"145 666 OFFCURVE",
"128 650 OFFCURVE",
"149 600 CURVE SMOOTH",
"360 92 LINE SMOOTH",
"387 28 OFFCURVE",
"419 -4 OFFCURVE",
"476 -4 CURVE SMOOTH",
"536 -4 OFFCURVE",
"566 23 OFFCURVE",
"582 81 CURVE SMOOTH",
"713 548 LINE SMOOTH",
"730 608 OFFCURVE",
"771 596 OFFCURVE",
"781 630 CURVE SMOOTH",
"787 651 OFFCURVE",
"775 666 OFFCURVE",
"741 666 CURVE SMOOTH",
"642 666 LINE SMOOTH",
"606 666 OFFCURVE",
"588 660 OFFCURVE",
"582 641 CURVE SMOOTH",
"571 608 OFFCURVE",
"623 609 OFFCURVE",
"606 548 CURVE SMOOTH"
);
}
);
width = 689;
}
);
rightKerningGroup = N;
unicode = 004E;
},
{
glyphname = O;
lastChange = "2015-10-05 14:50:12 +0000";
layers = (
{
anchors = (
{
name = top;
position = "{460, 651}";
}
);
background = {
paths = (
{
closed = 1;
nodes = (
"284 681 OFFCURVE",
"116 563 OFFCURVE",
"57 336 CURVE SMOOTH",
"-4 108 OFFCURVE",
"105 -12 OFFCURVE",
"307 -12 CURVE SMOOTH",
"509 -12 OFFCURVE",
"678 108 OFFCURVE",
"739 336 CURVE SMOOTH",
"798 563 OFFCURVE",
"689 681 OFFCURVE",
"487 681 CURVE SMOOTH"
);
},
{
closed = 1;
nodes = (
"519 572 OFFCURVE",
"522 510 OFFCURVE",
"475 329 CURVE SMOOTH",
"427 151 OFFCURVE",
"391 88 OFFCURVE",
"332 88 CURVE SMOOTH",
"272 88 OFFCURVE",
"270 151 OFFCURVE",
"317 329 CURVE SMOOTH",
"364 510 OFFCURVE",
"400 572 OFFCURVE",
"460 572 CURVE SMOOTH"
);
}
);
};
guideLines = (
{
angle = 75.4287;
position = "{416, 329}";
}
);
layerId = "FF8CB9F1-2B98-444C-A502-96421F2531A8";
name = "Bold Italic";
paths = (
{
closed = 1;
nodes = (
"284 681 OFFCURVE",
"116 563 OFFCURVE",
"57 336 CURVE SMOOTH",
"-4 108 OFFCURVE",
"105 -12 OFFCURVE",
"307 -12 CURVE SMOOTH",
"509 -12 OFFCURVE",
"678 108 OFFCURVE",
"739 336 CURVE SMOOTH",
"798 563 OFFCURVE",
"689 681 OFFCURVE",
"487 681 CURVE SMOOTH"
);
},
{
closed = 1;
nodes = (
"528 583 OFFCURVE",
"529 519 OFFCURVE",
"475 329 CURVE SMOOTH",
"420 143 OFFCURVE",
"382 77 OFFCURVE",
"323 77 CURVE SMOOTH",
"263 77 OFFCURVE",
"263 143 OFFCURVE",
"317 329 CURVE SMOOTH",
"371 519 OFFCURVE",
"409 583 OFFCURVE",
"469 583 CURVE SMOOTH"
);
}
);
width = 733;
}
);
leftKerningGroup = O;
rightKerningGroup = O;
unicode = 004F;
},
{
glyphname = Oslash;
lastChange = "2015-10-04 15:13:33 +0000";
layers = (
{
background = {
paths = (
{
closed = 0;
nodes = (
"70 1 LINE SMOOTH",
"779 573 LINE SMOOTH",
"800 590 OFFCURVE",
"808 603 OFFCURVE",
"811 620 CURVE SMOOTH",
"816 644 OFFCURVE",
"797 676 OFFCURVE",
"773 676 CURVE SMOOTH",
"756 676 OFFCURVE",
"744 669 OFFCURVE",
"731 659 CURVE SMOOTH",
"30 92 LINE SMOOTH"
);
},
{
closed = 0;
nodes = (
"500 681 LINE SMOOTH",
"702 681 OFFCURVE",
"811 561 OFFCURVE",
"750 333 CURVE SMOOTH"
);
},
{
closed = 0;
nodes = (
"490 340 LINE SMOOTH",
"544 526 OFFCURVE",
"544 592 OFFCURVE",
"484 592 CURVE SMOOTH"
);
}
);
};
layerId = "FF8CB9F1-2B98-444C-A502-96421F2531A8";
name = "Bold Italic";
paths = (
{
closed = 1;
nodes = (
"22 -7 OFFCURVE",
"46 -7 CURVE SMOOTH",
"63 -7 OFFCURVE",
"75 0 OFFCURVE",
"88 10 CURVE SMOOTH",
"781 576 LINE SMOOTH",
"798 590 OFFCURVE",
"808 600 OFFCURVE",
"811 618 CURVE SMOOTH",
"816 641 OFFCURVE",
"801 676 OFFCURVE",
"769 676 CURVE SMOOTH",
"756 676 OFFCURVE",
"745 670 OFFCURVE",
"731 659 CURVE SMOOTH",
"40 96 LINE SMOOTH",
"19 79 OFFCURVE",
"11 66 OFFCURVE",
"8 49 CURVE SMOOTH",
"3 25 OFFCURVE"
);
},
{
closed = 1;
nodes = (
"296 681 OFFCURVE",
"128 563 OFFCURVE",
"69 336 CURVE SMOOTH",
"8 108 OFFCURVE",
"117 -12 OFFCURVE",
"319 -12 CURVE SMOOTH",
"521 -12 OFFCURVE",
"690 108 OFFCURVE",
"751 336 CURVE SMOOTH",
"810 563 OFFCURVE",
"701 681 OFFCURVE",
"499 681 CURVE SMOOTH"
);
},
{
closed = 1;
nodes = (
"540 583 OFFCURVE",
"541 519 OFFCURVE",
"487 329 CURVE SMOOTH",
"432 143 OFFCURVE",
"394 77 OFFCURVE",
"335 77 CURVE SMOOTH",
"275 77 OFFCURVE",
"275 143 OFFCURVE",
"329 329 CURVE SMOOTH",
"383 519 OFFCURVE",
"421 583 OFFCURVE",
"481 583 CURVE SMOOTH"
);
}
);
width = 764;
}
);
leftKerningGroup = O;
rightKerningGroup = O;
unicode = 00D8;
},
{
glyphname = OE;
lastChange = "2015-10-04 15:13:33 +0000";
layers = (
{
layerId = "FF8CB9F1-2B98-444C-A502-96421F2531A8";
name = "Bold Italic";
paths = (
{
closed = 1;
nodes = (
"540 583 OFFCURVE",
"541 519 OFFCURVE",
"487 329 CURVE SMOOTH",
"432 143 OFFCURVE",
"394 77 OFFCURVE",
"335 77 CURVE SMOOTH",
"275 77 OFFCURVE",
"275 143 OFFCURVE",
"329 329 CURVE SMOOTH",
"383 519 OFFCURVE",
"421 583 OFFCURVE",
"481 583 CURVE SMOOTH"
);
},
{
closed = 1;
nodes = (
"722 308 LINE",
"773 308 LINE SMOOTH",
"785 308 OFFCURVE",
"791 302 OFFCURVE",
"795 293 CURVE SMOOTH",
"812 258 LINE SMOOTH",
"820 241 OFFCURVE",
"833 229 OFFCURVE",
"854 229 CURVE SMOOTH",
"874 229 OFFCURVE",
"897 240 OFFCURVE",
"906 272 CURVE SMOOTH",
"947 411 LINE SMOOTH",
"955 438 OFFCURVE",
"936 457 OFFCURVE",
"908 457 CURVE SMOOTH",
"885 457 OFFCURVE",
"872 447 OFFCURVE",
"855 432 CURVE SMOOTH",
"821 402 LINE SMOOTH",
"814 396 OFFCURVE",
"809 392 OFFCURVE",
"802 392 CURVE SMOOTH",
"749 392 LINE"
);
},
{
closed = 1;
nodes = (
"610 666 LINE",
"578 676 OFFCURVE",
"541 681 OFFCURVE",
"499 681 CURVE SMOOTH",
"296 681 OFFCURVE",
"128 563 OFFCURVE",
"69 336 CURVE SMOOTH",
"8 108 OFFCURVE",
"117 -12 OFFCURVE",
"319 -12 CURVE SMOOTH",
"356 -12 OFFCURVE",
"391 -8 OFFCURVE",
"425 0 CURVE",
"879 0 LINE SMOOTH",
"933 0 OFFCURVE",
"957 18 OFFCURVE",
"972 68 CURVE SMOOTH",
"1001 169 LINE SMOOTH",
"1013 212 OFFCURVE",
"985 228 OFFCURVE",
"954 228 CURVE SMOOTH",
"924 228 OFFCURVE",
"908 217 OFFCURVE",
"888 196 CURVE SMOOTH",
"828 130 LINE SMOOTH",
"805 105 OFFCURVE",
"789 96 OFFCURVE",
"763 96 CURVE SMOOTH",
"675 96 LINE",
"808 570 LINE",
"913 570 LINE SMOOTH",
"940 570 OFFCURVE",
"946 563 OFFCURVE",
"952 540 CURVE SMOOTH",
"968 483 LINE SMOOTH",
"977 450 OFFCURVE",
"994 438 OFFCURVE",
"1026 438 CURVE SMOOTH",
"1058 438 OFFCURVE",
"1075 449 OFFCURVE",
"1085 486 CURVE SMOOTH",
"1111 579 LINE SMOOTH",
"1127 634 OFFCURVE",
"1097 666 OFFCURVE",
"1037 666 CURVE SMOOTH"
);
}
);
width = 1055;
}
);
leftKerningGroup = O;
leftMetricsKey = O;
rightMetricsKey = E;
unicode = 0152;
},
{
glyphname = P;
lastChange = "2015-10-04 15:13:33 +0000";
layers = (
{
background = {
paths = (
{
closed = 1;
nodes = (
"208 666 LINE SMOOTH",
"172 666 OFFCURVE",
"154 660 OFFCURVE",
"149 642 CURVE SMOOTH",
"137 608 OFFCURVE",
"182 609 OFFCURVE",
"165 549 CURVE SMOOTH",
"43 118 LINE SMOOTH",
"27 59 OFFCURVE",
"-16 68 OFFCURVE",
"-24 36 CURVE SMOOTH",
"-29 13 OFFCURVE",
"-11 0 OFFCURVE",
"24 0 CURVE SMOOTH",
"275 0 LINE SMOOTH",
"310 0 OFFCURVE",
"332 6 OFFCURVE",
"337 25 CURVE SMOOTH",
"346 57 OFFCURVE",
"279 62 OFFCURVE",
"295 118 CURVE SMOOTH",
"329 239 LINE",
"432 239 LINE SMOOTH",
"594 239 OFFCURVE",
"711 298 OFFCURVE",
"751 435 CURVE SMOOTH",
"789 564 OFFCURVE",
"715 666 OFFCURVE",
"539 666 CURVE SMOOTH"
);
},
{
closed = 1;
nodes = (
"494 384 OFFCURVE",
"468 344 OFFCURVE",
"387 344 CURVE SMOOTH",
"359 344 LINE",
"420 561 LINE",
"449 561 LINE SMOOTH",
"510 561 OFFCURVE",
"534 523 OFFCURVE",
"514 453 CURVE SMOOTH"
);
}
);
};
guideLines = (
{
position = "{467, 329}";
},
{
position = "{457, 453}";
},
{
angle = 74.1952;
position = "{812, 649}";
}
);
layerId = "FF8CB9F1-2B98-444C-A502-96421F2531A8";
name = "Bold Italic";
paths = (
{
closed = 1;
nodes = (
"485 355 OFFCURVE",
"451 329 OFFCURVE",
"398 329 CURVE SMOOTH",
"354 329 LINE",
"425 576 LINE",
"470 576 LINE SMOOTH",
"512 576 OFFCURVE",
"541 551 OFFCURVE",
"513 453 CURVE SMOOTH"
);
},
{
closed = 1;
nodes = (
"208 666 LINE SMOOTH",
"172 666 OFFCURVE",
"154 660 OFFCURVE",
"149 642 CURVE SMOOTH",
"137 608 OFFCURVE",
"182 609 OFFCURVE",
"165 549 CURVE SMOOTH",
"43 118 LINE SMOOTH",
"27 59 OFFCURVE",
"-16 68 OFFCURVE",
"-24 36 CURVE SMOOTH",
"-29 13 OFFCURVE",
"-11 0 OFFCURVE",
"24 0 CURVE SMOOTH",
"275 0 LINE SMOOTH",
"310 0 OFFCURVE",
"332 6 OFFCURVE",
"337 25 CURVE SMOOTH",
"346 57 OFFCURVE",
"279 62 OFFCURVE",
"295 118 CURVE SMOOTH",
"329 239 LINE",
"432 239 LINE SMOOTH",
"594 239 OFFCURVE",
"712 298 OFFCURVE",
"751 435 CURVE SMOOTH",
"788 564 OFFCURVE",
"715 666 OFFCURVE",
"539 666 CURVE SMOOTH"
);
}
);
width = 683;
}
);
leftMetricsKey = H;
unicode = 0050;
},
{
glyphname = Thorn;
lastChange = "2015-10-04 15:13:33 +0000";
layers = (
{
background = {
paths = (
{
closed = 1;
nodes = (
"485 355 OFFCURVE",
"451 329 OFFCURVE",
"398 329 CURVE SMOOTH",
"354 329 LINE",
"425 576 LINE",
"470 576 LINE SMOOTH",
"512 576 OFFCURVE",
"541 551 OFFCURVE",
"513 453 CURVE SMOOTH"
);
},
{
closed = 1;
nodes = (
"208 666 LINE SMOOTH",
"172 666 OFFCURVE",
"154 660 OFFCURVE",
"149 642 CURVE SMOOTH",
"137 608 OFFCURVE",
"182 609 OFFCURVE",
"165 549 CURVE SMOOTH",
"43 118 LINE SMOOTH",
"27 59 OFFCURVE",
"-16 68 OFFCURVE",
"-24 36 CURVE SMOOTH",
"-29 13 OFFCURVE",
"-11 0 OFFCURVE",
"24 0 CURVE SMOOTH",
"275 0 LINE SMOOTH",
"310 0 OFFCURVE",
"332 6 OFFCURVE",
"337 25 CURVE SMOOTH",
"346 57 OFFCURVE",
"279 62 OFFCURVE",
"295 118 CURVE SMOOTH",
"329 239 LINE",
"432 239 LINE SMOOTH",
"594 239 OFFCURVE",
"712 298 OFFCURVE",
"751 435 CURVE SMOOTH",
"788 564 OFFCURVE",
"715 666 OFFCURVE",
"539 666 CURVE SMOOTH"
);
}
);
};
guideLines = (
{
position = "{449, 333}";
},
{
angle = 74.3183;
position = "{687, 704}";
},
{
angle = 74.3183;
position = "{929, 704}";
},
{
angle = 74.3183;
position = "{613, 704}";
},
{
angle = 74.3183;
position = "{656, 704}";
}
);
layerId = "FF8CB9F1-2B98-444C-A502-96421F2531A8";
name = "Bold Italic";
paths = (
{
closed = 1;
nodes = (
"204 161 LINE",
"435 161 LINE SMOOTH",
"610 161 OFFCURVE",
"702 210 OFFCURVE",
"734 325 CURVE SMOOTH",
"766 440 OFFCURVE",
"711 518 OFFCURVE",
"536 518 CURVE SMOOTH",
"301 518 LINE",
"315 428 LINE",
"436 428 LINE SMOOTH",
"486 428 OFFCURVE",
"502 400 OFFCURVE",
"485 340 CURVE SMOOTH",
"468 280 OFFCURVE",
"436 251 OFFCURVE",
"386 251 CURVE SMOOTH",
"229 251 LINE"
);
},
{
closed = 1;
nodes = (
"209 666 LINE SMOOTH",
"173 666 OFFCURVE",
"155 660 OFFCURVE",
"150 642 CURVE SMOOTH",
"138 608 OFFCURVE",
"183 609 OFFCURVE",
"166 549 CURVE SMOOTH",
"44 118 LINE SMOOTH",
"27 58 OFFCURVE",
"-10 69 OFFCURVE",
"-23 39 CURVE SMOOTH",
"-33 15 OFFCURVE",
"-18 0 OFFCURVE",
"18 0 CURVE SMOOTH",
"253 0 LINE SMOOTH",
"289 0 OFFCURVE",
"307 6 OFFCURVE",
"313 25 CURVE SMOOTH",
"324 58 OFFCURVE",
"279 57 OFFCURVE",
"296 118 CURVE SMOOTH",
"417 549 LINE SMOOTH",
"434 608 OFFCURVE",
"472 597 OFFCURVE",
"485 628 CURVE SMOOTH",
"495 651 OFFCURVE",
"480 666 OFFCURVE",
"444 666 CURVE SMOOTH"
);
}
);
width = 693;
}
);
unicode = 00DE;
},
{
glyphname = Q;
lastChange = "2015-10-05 14:50:49 +0000";
layers = (
{
background = {
paths = (
{
closed = 1;
nodes = (
"329 -88 LINE SMOOTH",
"360 -183 OFFCURVE",
"407 -221 OFFCURVE",
"479 -221 CURVE SMOOTH",
"553 -221 OFFCURVE",
"609 -169 OFFCURVE",
"630 -77 CURVE SMOOTH",
"643 -22 OFFCURVE",
"628 17 OFFCURVE",
"613 17 CURVE SMOOTH",
"592 17 OFFCURVE",
"581 -32 OFFCURVE",
"510 -32 CURVE SMOOTH",
"457 -32 OFFCURVE",
"428 4 OFFCURVE",
"397 48 CURVE SMOOTH",
"369 88 LINE SMOOTH",
"351 114 OFFCURVE",
"342 126 OFFCURVE",
"319 126 CURVE SMOOTH",
"285 126 OFFCURVE",
"267 98 OFFCURVE",
"281 57 CURVE SMOOTH"
);
}
);
};
components = (
{
name = O;
}
);
layerId = "FF8CB9F1-2B98-444C-A502-96421F2531A8";
name = "Bold Italic";
paths = (
{
closed = 1;
nodes = (
"256 37 LINE",
"292 -70 LINE SMOOTH",
"329 -181 OFFCURVE",
"391 -221 OFFCURVE",
"466 -221 CURVE SMOOTH",
"544 -221 OFFCURVE",
"596 -179 OFFCURVE",
"616 -111 CURVE SMOOTH",
"636 -42 OFFCURVE",
"615 17 OFFCURVE",
"600 17 CURVE SMOOTH",
"579 17 OFFCURVE",
"551 -32 OFFCURVE",
"490 -32 CURVE SMOOTH",
"439 -32 OFFCURVE",
"398 -9 OFFCURVE",
"358 45 CURVE"
);
}
);
width = 733;
},
{
associatedMasterId = "FF8CB9F1-2B98-444C-A502-96421F2531A8";
background = {
paths = (
{
closed = 1;
nodes = (
"264 681 OFFCURVE",
"115 563 OFFCURVE",
"56 336 CURVE SMOOTH",
"-6 108 OFFCURVE",
"81 -12 OFFCURVE",
"319 -12 CURVE SMOOTH",
"557 -12 OFFCURVE",
"707 108 OFFCURVE",
"768 336 CURVE SMOOTH",
"827 563 OFFCURVE",
"741 681 OFFCURVE",
"503 681 CURVE SMOOTH"
);
},
{
closed = 1;
nodes = (
"533 572 OFFCURVE",
"551 510 OFFCURVE",
"504 329 CURVE SMOOTH",
"456 151 OFFCURVE",
"405 88 OFFCURVE",
"346 88 CURVE SMOOTH",
"286 88 OFFCURVE",
"269 151 OFFCURVE",
"316 329 CURVE SMOOTH",
"363 510 OFFCURVE",
"414 572 OFFCURVE",
"474 572 CURVE SMOOTH"
);
},
{
closed = 1;
nodes = (
"338 -55 LINE SMOOTH",
"393 -176 OFFCURVE",
"426 -221 OFFCURVE",
"519 -221 CURVE SMOOTH",
"610 -221 OFFCURVE",
"679 -169 OFFCURVE",
"700 -77 CURVE SMOOTH",
"713 -22 OFFCURVE",
"698 17 OFFCURVE",
"683 17 CURVE SMOOTH",
"662 17 OFFCURVE",
"635 -32 OFFCURVE",
"564 -32 CURVE SMOOTH",
"511 -32 OFFCURVE",
"471 -1 OFFCURVE",
"439 48 CURVE SMOOTH",
"398 110 LINE SMOOTH",
"380 137 OFFCURVE",
"364 148 OFFCURVE",
"335 148 CURVE SMOOTH",
"306 148 OFFCURVE",
"262 110 OFFCURVE",
"286 59 CURVE SMOOTH"
);
}
);
};
components = (
{
name = O;
}
);
layerId = "7B69DACC-C3A8-413F-B87F-6C4C5E6FBB58";
name = "Bold Italic Aug 12 15, 13:58";
paths = (
{
closed = 1;
nodes = (
"329 -88 LINE SMOOTH",
"360 -183 OFFCURVE",
"407 -221 OFFCURVE",
"479 -221 CURVE SMOOTH",
"553 -221 OFFCURVE",
"609 -169 OFFCURVE",
"630 -77 CURVE SMOOTH",
"643 -22 OFFCURVE",
"628 17 OFFCURVE",
"613 17 CURVE SMOOTH",
"592 17 OFFCURVE",
"581 -32 OFFCURVE",
"510 -32 CURVE SMOOTH",
"457 -32 OFFCURVE",
"428 4 OFFCURVE",
"397 48 CURVE SMOOTH",
"369 88 LINE SMOOTH",
"351 114 OFFCURVE",
"342 126 OFFCURVE",
"319 126 CURVE SMOOTH",
"285 126 OFFCURVE",
"267 98 OFFCURVE",
"281 57 CURVE SMOOTH"
);
}
);
width = 725;
},
{
associatedMasterId = "FF8CB9F1-2B98-444C-A502-96421F2531A8";
background = {
paths = (
{
closed = 1;
nodes = (
"329 -88 LINE SMOOTH",
"360 -183 OFFCURVE",
"407 -221 OFFCURVE",
"479 -221 CURVE SMOOTH",
"553 -221 OFFCURVE",
"609 -169 OFFCURVE",
"630 -77 CURVE SMOOTH",
"643 -22 OFFCURVE",
"628 17 OFFCURVE",
"613 17 CURVE SMOOTH",
"592 17 OFFCURVE",
"581 -32 OFFCURVE",
"510 -32 CURVE SMOOTH",
"457 -32 OFFCURVE",
"428 4 OFFCURVE",
"397 48 CURVE SMOOTH",
"369 88 LINE SMOOTH",
"351 114 OFFCURVE",
"342 126 OFFCURVE",
"319 126 CURVE SMOOTH",
"285 126 OFFCURVE",
"267 98 OFFCURVE",
"281 57 CURVE SMOOTH"
);
}
);
};
components = (
{
name = O;
}
);
layerId = "6585EA80-A71D-46E0-A48D-DF52196A8F7D";
name = "Bold Italic Aug 12 15, 17:20";
paths = (
{
closed = 1;
nodes = (
"329 -88 LINE SMOOTH",
"365 -181 OFFCURVE",
"407 -221 OFFCURVE",
"479 -221 CURVE SMOOTH",
"553 -221 OFFCURVE",
"609 -169 OFFCURVE",
"630 -77 CURVE SMOOTH",
"643 -22 OFFCURVE",
"628 17 OFFCURVE",
"613 17 CURVE SMOOTH",
"592 17 OFFCURVE",
"581 -32 OFFCURVE",
"510 -32 CURVE SMOOTH",
"457 -32 OFFCURVE",
"428 3 OFFCURVE",
"397 48 CURVE SMOOTH",
"349 118 LINE SMOOTH",
"331 144 OFFCURVE",
"316 156 OFFCURVE",
"293 156 CURVE SMOOTH",
"259 156 OFFCURVE",
"242 135 OFFCURVE",
"261 87 CURVE SMOOTH"
);
}
);
width = 725;
},
{
associatedMasterId = "FF8CB9F1-2B98-444C-A502-96421F2531A8";
background = {
paths = (
{
closed = 1;
nodes = (
"329 -88 LINE SMOOTH",
"360 -183 OFFCURVE",
"407 -221 OFFCURVE",
"479 -221 CURVE SMOOTH",
"553 -221 OFFCURVE",
"609 -169 OFFCURVE",
"630 -77 CURVE SMOOTH",
"643 -22 OFFCURVE",
"628 17 OFFCURVE",
"613 17 CURVE SMOOTH",
"592 17 OFFCURVE",
"581 -32 OFFCURVE",
"510 -32 CURVE SMOOTH",
"457 -32 OFFCURVE",
"428 4 OFFCURVE",
"397 48 CURVE SMOOTH",
"369 88 LINE SMOOTH",
"351 114 OFFCURVE",
"342 126 OFFCURVE",
"319 126 CURVE SMOOTH",
"285 126 OFFCURVE",
"267 98 OFFCURVE",
"281 57 CURVE SMOOTH"
);
}
);
};
components = (
{
name = O;
}
);
layerId = "1A10B52C-93EB-4ECC-B8E8-161690C17AC1";
name = "Bold Italic Aug 12 15, 17:45";
paths = (
{
closed = 1;
nodes = (
"292 -70 LINE SMOOTH",
"329 -181 OFFCURVE",
"391 -221 OFFCURVE",
"466 -221 CURVE SMOOTH",
"544 -221 OFFCURVE",
"596 -179 OFFCURVE",
"616 -111 CURVE SMOOTH",
"636 -42 OFFCURVE",
"615 17 OFFCURVE",
"600 17 CURVE SMOOTH",
"579 17 OFFCURVE",
"551 -32 OFFCURVE",
"490 -32 CURVE SMOOTH",
"439 -32 OFFCURVE",
"398 -9 OFFCURVE",
"358 45 CURVE SMOOTH",
"328 84 LINE SMOOTH",
"308 111 OFFCURVE",
"296 120 OFFCURVE",
"275 120 CURVE SMOOTH",
"242 120 OFFCURVE",
"238 89 OFFCURVE",
"256 37 CURVE SMOOTH"
);
}
);
width = 725;
}
);
leftKerningGroup = O;
unicode = 0051;
},
{
glyphname = R;
lastChange = "2015-10-04 15:13:33 +0000";
layers = (
{
associatedMasterId = "FF8CB9F1-2B98-444C-A502-96421F2531A8";
background = {
paths = (
{
closed = 1;
nodes = (
"311 952 LINE SMOOTH",
"260 952 OFFCURVE",
"234 943 OFFCURVE",
"225 917 CURVE SMOOTH",
"208 869 OFFCURVE",
"273 870 OFFCURVE",
"247 784 CURVE SMOOTH",
"62 168 LINE SMOOTH",
"37 85 OFFCURVE",
"-24 97 OFFCURVE",
"-36 51 CURVE SMOOTH",
"-44 19 OFFCURVE",
"-18 0 OFFCURVE",
"31 0 CURVE SMOOTH",
"390 0 LINE SMOOTH",
"440 0 OFFCURVE",
"471 9 OFFCURVE",
"479 35 CURVE SMOOTH",
"493 82 OFFCURVE",
"398 90 OFFCURVE",
"421 168 CURVE SMOOTH",
"483 376 LINE",
"625 376 LINE SMOOTH",
"883 376 OFFCURVE",
"1070 460 OFFCURVE",
"1121 638 CURVE SMOOTH",
"1173 818 OFFCURVE",
"1057 952 OFFCURVE",
"783 952 CURVE SMOOTH"
);
},
{
closed = 1;
nodes = (
"759 565 OFFCURVE",
"706 526 OFFCURVE",
"590 526 CURVE SMOOTH",
"528 526 LINE",
"612 802 LINE",
"674 802 LINE SMOOTH",
"761 802 OFFCURVE",
"819 764 OFFCURVE",
"789 664 CURVE SMOOTH"
);
},
{
closed = 1;
nodes = (
"518 444 LINE",
"593 166 LINE SMOOTH",
"611 100 OFFCURVE",
"551 92 OFFCURVE",
"550 51 CURVE SMOOTH",
"549 20 OFFCURVE",
"571 1 OFFCURVE",
"611 1 CURVE SMOOTH",
"987 1 LINE SMOOTH",
"1048 1 OFFCURVE",
"1068 21 OFFCURVE",
"1066 53 CURVE SMOOTH",
"1064 91 OFFCURVE",
"984 96 OFFCURVE",
"947 195 CURVE SMOOTH",
"852 444 LINE"
);
}
);
};
guideLines = (
{
position = "{570, 664}";
}
);
layerId = "72B1C611-A931-4426-A976-9973EF0F4A85";
name = "Straight diagonal";
paths = (
{
closed = 1;
nodes = (
"311 952 LINE SMOOTH",
"260 952 OFFCURVE",
"234 943 OFFCURVE",
"225 917 CURVE SMOOTH",
"208 869 OFFCURVE",
"273 870 OFFCURVE",
"247 784 CURVE SMOOTH",
"62 168 LINE SMOOTH",
"37 85 OFFCURVE",
"-24 97 OFFCURVE",
"-36 51 CURVE SMOOTH",
"-44 19 OFFCURVE",
"-18 0 OFFCURVE",
"31 0 CURVE SMOOTH",
"390 0 LINE SMOOTH",
"440 0 OFFCURVE",
"471 9 OFFCURVE",
"479 35 CURVE SMOOTH",
"493 82 OFFCURVE",
"398 90 OFFCURVE",
"421 168 CURVE SMOOTH",
"483 376 LINE",
"625 376 LINE SMOOTH",
"883 376 OFFCURVE",
"1070 460 OFFCURVE",
"1121 638 CURVE SMOOTH",
"1173 818 OFFCURVE",
"1057 952 OFFCURVE",
"783 952 CURVE SMOOTH"
);
},
{
closed = 1;
nodes = (
"755 557 OFFCURVE",
"702 518 OFFCURVE",
"586 518 CURVE SMOOTH",
"524 518 LINE",
"612 802 LINE",
"674 802 LINE SMOOTH",
"761 802 OFFCURVE",
"815 756 OFFCURVE",
"785 656 CURVE SMOOTH"
);
},
{
closed = 1;
nodes = (
"518 444 LINE",
"601 133 LINE SMOOTH",
"626 40 OFFCURVE",
"672 1 OFFCURVE",
"771 1 CURVE SMOOTH",
"987 1 LINE SMOOTH",
"1048 1 OFFCURVE",
"1068 21 OFFCURVE",
"1066 53 CURVE SMOOTH",
"1064 91 OFFCURVE",
"984 96 OFFCURVE",
"947 195 CURVE SMOOTH",
"852 444 LINE"
);
}
);
width = 1125;
},
{
associatedMasterId = "FF8CB9F1-2B98-444C-A502-96421F2531A8";
background = {
paths = (
{
closed = 1;
nodes = (
"311 952 LINE SMOOTH",
"260 952 OFFCURVE",
"234 943 OFFCURVE",
"225 917 CURVE SMOOTH",
"208 869 OFFCURVE",
"273 870 OFFCURVE",
"247 784 CURVE SMOOTH",
"62 168 LINE SMOOTH",
"37 85 OFFCURVE",
"-24 97 OFFCURVE",
"-36 51 CURVE SMOOTH",
"-44 19 OFFCURVE",
"-18 0 OFFCURVE",
"31 0 CURVE SMOOTH",
"390 0 LINE SMOOTH",
"440 0 OFFCURVE",
"471 9 OFFCURVE",
"479 35 CURVE SMOOTH",
"493 82 OFFCURVE",
"398 91 OFFCURVE",
"421 168 CURVE SMOOTH",
"492 406 LINE",
"634 406 LINE SMOOTH",
"892 406 OFFCURVE",
"1069 479 OFFCURVE",
"1118 645 CURVE SMOOTH",
"1170 822 OFFCURVE",
"1057 952 OFFCURVE",
"783 952 CURVE SMOOTH"
);
},
{
closed = 1;
nodes = (
"762 581 OFFCURVE",
"694 548 OFFCURVE",
"607 548 CURVE SMOOTH",
"533 548 LINE",
"612 802 LINE",
"685 802 LINE SMOOTH",
"758 802 OFFCURVE",
"817 763 OFFCURVE",
"790 674 CURVE SMOOTH"
);
},
{
closed = 1;
nodes = (
"596 458 LINE",
"515 406 LINE",
"558 406 LINE SMOOTH",
"607 406 OFFCURVE",
"625 382 OFFCURVE",
"623 324 CURVE SMOOTH",
"620 214 LINE SMOOTH",
"616 59 OFFCURVE",
"697 -13 OFFCURVE",
"843 -13 CURVE SMOOTH",
"980 -13 OFFCURVE",
"1055 64 OFFCURVE",
"1067 124 CURVE SMOOTH",
"1073 156 OFFCURVE",
"1052 164 OFFCURVE",
"1014 164 CURVE SMOOTH",
"989 164 OFFCURVE",
"986 182 OFFCURVE",
"985 221 CURVE SMOOTH",
"984 262 LINE SMOOTH",
"981 388 OFFCURVE",
"922 458 OFFCURVE",
"765 458 CURVE SMOOTH"
);
}
);
};
guideLines = (
{
position = "{572.5, 675}";
},
{
angle = 73.2837;
position = "{638, 168}";
},
{
angle = 73.2837;
position = "{974, 168}";
},
{
angle = 73.2837;
position = "{481, 168}";
}
);
layerId = "E84339CD-9DEF-4E97-B6DD-019BB52754C1";
name = "Rounded diagonal";
paths = (
{
closed = 1;
nodes = (
"1170 822 OFFCURVE",
"1057 952 OFFCURVE",
"783 952 CURVE SMOOTH",
"311 952 LINE SMOOTH",
"260 952 OFFCURVE",
"234 943 OFFCURVE",
"225 917 CURVE SMOOTH",
"208 869 OFFCURVE",
"273 870 OFFCURVE",
"247 784 CURVE SMOOTH",
"62 168 LINE SMOOTH",
"37 85 OFFCURVE",
"-24 97 OFFCURVE",
"-36 51 CURVE SMOOTH",
"-44 19 OFFCURVE",
"-18 0 OFFCURVE",
"31 0 CURVE SMOOTH",
"390 0 LINE SMOOTH",
"440 0 OFFCURVE",
"471 9 OFFCURVE",
"479 35 CURVE SMOOTH",
"493 82 OFFCURVE",
"398 91 OFFCURVE",
"421 168 CURVE SMOOTH",
"492 406 LINE",
"558 406 LINE SMOOTH",
"607 406 OFFCURVE",
"625 382 OFFCURVE",
"623 324 CURVE SMOOTH",
"620 214 LINE SMOOTH",
"616 59 OFFCURVE",
"697 -13 OFFCURVE",
"843 -13 CURVE SMOOTH",
"980 -13 OFFCURVE",
"1055 64 OFFCURVE",
"1067 124 CURVE SMOOTH",
"1073 156 OFFCURVE",
"1052 164 OFFCURVE",
"1014 164 CURVE SMOOTH",
"989 164 OFFCURVE",
"986 182 OFFCURVE",
"985 221 CURVE SMOOTH",
"984 262 LINE SMOOTH",
"981.95 348.092 OFFCURVE",
"962 429 OFFCURVE",
"826 444 CURVE",
"1016 464 OFFCURVE",
"1087.24 540.793 OFFCURVE",
"1118 645 CURVE SMOOTH"
);
},
{
closed = 1;
nodes = (
"612 802 LINE",
"685 802 LINE SMOOTH",
"758 802 OFFCURVE",
"817 763 OFFCURVE",
"790 674 CURVE SMOOTH",
"762 581 OFFCURVE",
"694 548 OFFCURVE",
"607 548 CURVE SMOOTH",
"533 548 LINE"
);
}
);
width = 1125;
},
{
anchors = (
{
name = bottom;
position = "{422, 0}";
},
{
name = top;
position = "{447, 651}";
}
);
background = {
paths = (
{
closed = 1;
nodes = (
"794 573 OFFCURVE",
"707 666 OFFCURVE",
"543 666 CURVE SMOOTH",
"208 666 LINE SMOOTH",
"172 666 OFFCURVE",
"154 660 OFFCURVE",
"149 642 CURVE SMOOTH",
"137 608 OFFCURVE",
"182 609 OFFCURVE",
"165 549 CURVE SMOOTH",
"43 118 LINE SMOOTH",
"27 59 OFFCURVE",
"-16 68 OFFCURVE",
"-24 36 CURVE SMOOTH",
"-29 13 OFFCURVE",
"-11 0 OFFCURVE",
"24 0 CURVE SMOOTH",
"275 0 LINE SMOOTH",
"310 0 OFFCURVE",
"332 6 OFFCURVE",
"337 25 CURVE SMOOTH",
"346 57 OFFCURVE",
"280 64 OFFCURVE",
"295 118 CURVE SMOOTH",
"341 284 LINE",
"379 284 LINE SMOOTH",
"434 284 OFFCURVE",
"453 266 OFFCURVE",
"440 214 CURVE SMOOTH",
"424 150 LINE SMOOTH",
"397 46 OFFCURVE",
"460 -9 OFFCURVE",
"562 -9 CURVE SMOOTH",
"672 -9 OFFCURVE",
"724 45 OFFCURVE",
"731 87 CURVE SMOOTH",
"735 109 OFFCURVE",
"720 115 OFFCURVE",
"694 115 CURVE SMOOTH",
"676 115 OFFCURVE",
"667 130 OFFCURVE",
"673 155 CURVE SMOOTH",
"684 204 LINE SMOOTH",
"701 274 OFFCURVE",
"672 326 OFFCURVE",
"593 332 CURVE",
"680 342 OFFCURVE",
"742 384 OFFCURVE",
"764 463 CURVE SMOOTH"
);
},
{
closed = 1;
nodes = (
"420 561 LINE",
"469 561 LINE SMOOTH",
"512 561 OFFCURVE",
"549 534 OFFCURVE",
"531 472 CURVE SMOOTH",
"512 407 OFFCURVE",
"473 384 OFFCURVE",
"418 384 CURVE SMOOTH",
"368 384 LINE"
);
}
);
};
guideLines = (
{
position = "{575, 675}";
},
{
angle = 73.2837;
position = "{640, 168}";
},
{
angle = 73.2837;
position = "{976, 168}";
},
{
angle = 73.2837;
position = "{515, 168}";
}
);
layerId = "FF8CB9F1-2B98-444C-A502-96421F2531A8";
name = "Bold Italic";
paths = (
{
closed = 1;
nodes = (
"794 573 OFFCURVE",
"707 666 OFFCURVE",
"543 666 CURVE SMOOTH",
"208 666 LINE SMOOTH",
"172 666 OFFCURVE",
"154 660 OFFCURVE",
"149 642 CURVE SMOOTH",
"137 608 OFFCURVE",
"182 609 OFFCURVE",
"165 549 CURVE SMOOTH",
"43 118 LINE SMOOTH",
"27 59 OFFCURVE",
"-16 68 OFFCURVE",
"-24 36 CURVE SMOOTH",
"-29 13 OFFCURVE",
"-11 0 OFFCURVE",
"24 0 CURVE SMOOTH",
"275 0 LINE SMOOTH",
"310 0 OFFCURVE",
"332 6 OFFCURVE",
"337 25 CURVE SMOOTH",
"346 57 OFFCURVE",
"280 64 OFFCURVE",
"295 118 CURVE SMOOTH",
"341 284 LINE",
"379 284 LINE SMOOTH",
"434 284 OFFCURVE",
"453 266 OFFCURVE",
"440 214 CURVE SMOOTH",
"424 150 LINE SMOOTH",
"397 46 OFFCURVE",
"460 -9 OFFCURVE",
"562 -9 CURVE SMOOTH",
"672 -9 OFFCURVE",
"724 45 OFFCURVE",
"731 87 CURVE SMOOTH",
"735 109 OFFCURVE",
"720 115 OFFCURVE",
"694 115 CURVE SMOOTH",
"676 115 OFFCURVE",
"667 130 OFFCURVE",
"673 155 CURVE SMOOTH",
"684 204 LINE SMOOTH",
"701 274 OFFCURVE",
"672 326 OFFCURVE",
"593 332 CURVE",
"680 342 OFFCURVE",
"742 384 OFFCURVE",
"764 463 CURVE SMOOTH"
);
},
{
closed = 1;
nodes = (
"490 403 OFFCURVE",
"461 384 OFFCURVE",
"411 384 CURVE SMOOTH",
"369 384 LINE",
"413 561 LINE",
"455 561 LINE SMOOTH",
"495 561 OFFCURVE",
"525 543 OFFCURVE",
"508 473 CURVE SMOOTH"
);
}
);
width = 759;
}
);
leftMetricsKey = I;
rightKerningGroup = R;
unicode = 0052;
},
{
glyphname = S;
lastChange = "2015-10-04 15:13:33 +0000";
layers = (
{
associatedMasterId = "FF8CB9F1-2B98-444C-A502-96421F2531A8";
background = {
paths = (
{
closed = 1;
nodes = (
"345 959 OFFCURVE",
"151 854 OFFCURVE",
"135 681 CURVE SMOOTH",
"110 413 OFFCURVE",
"607 398 OFFCURVE",
"607 264 CURVE SMOOTH",
"607 198 OFFCURVE",
"541 136 OFFCURVE",
"455 136 CURVE SMOOTH",
"416 136 OFFCURVE",
"375 143 OFFCURVE",
"346 158 CURVE",
"393 293 OFFCURVE",
"304 389 OFFCURVE",
"178 389 CURVE SMOOTH",
"70 389 OFFCURVE",
"7 326 OFFCURVE",
"7 232 CURVE SMOOTH",
"7 100 OFFCURVE",
"159 -10 OFFCURVE",
"448 -10 CURVE SMOOTH",
"764 -10 OFFCURVE",
"953 125 OFFCURVE",
"970 289 CURVE SMOOTH",
"999 568 OFFCURVE",
"469 565 OFFCURVE",
"469 730 CURVE SMOOTH",
"469 816 OFFCURVE",
"623 842 OFFCURVE",
"698 825 CURVE",
"662 687 OFFCURVE",
"755 595 OFFCURVE",
"877 595 CURVE SMOOTH",
"988 595 OFFCURVE",
"1036 674 OFFCURVE",
"1035 745 CURVE SMOOTH",
"1032 876 OFFCURVE",
"845 959 OFFCURVE",
"592 959 CURVE SMOOTH"
);
}
);
};
layerId = "4B9A8DB5-46E1-4DEC-A0EF-0AE35ECDD66E";
name = "Ball Terminals: Lipi";
paths = (
{
closed = 1;
nodes = (
"309 969 OFFCURVE",
"131 831 OFFCURVE",
"131 670 CURVE SMOOTH",
"131 399 OFFCURVE",
"617 395 OFFCURVE",
"617 236 CURVE SMOOTH",
"617 139 OFFCURVE",
"470 109 OFFCURVE",
"354 148 CURVE",
"411 278 OFFCURVE",
"320 379 OFFCURVE",
"191 379 CURVE SMOOTH",
"83 379 OFFCURVE",
"20 316 OFFCURVE",
"20 222 CURVE SMOOTH",
"20 90 OFFCURVE",
"172 -20 OFFCURVE",
"469 -20 CURVE SMOOTH",
"762 -20 OFFCURVE",
"980 106 OFFCURVE",
"980 305 CURVE SMOOTH",
"980 582 OFFCURVE",
"465 592 OFFCURVE",
"465 732 CURVE SMOOTH",
"465 816 OFFCURVE",
"593 847 OFFCURVE",
"711 835 CURVE",
"658 697 OFFCURVE",
"751 605 OFFCURVE",
"873 605 CURVE SMOOTH",
"984 605 OFFCURVE",
"1032 684 OFFCURVE",
"1031 755 CURVE SMOOTH",
"1028 886 OFFCURVE",
"841 969 OFFCURVE",
"560 969 CURVE SMOOTH"
);
}
);
width = 973;
},
{
associatedMasterId = "FF8CB9F1-2B98-444C-A502-96421F2531A8";
background = {
paths = (
{
closed = 1;
nodes = (
"383 959 OFFCURVE",
"189 854 OFFCURVE",
"173 681 CURVE SMOOTH",
"148 413 OFFCURVE",
"645 398 OFFCURVE",
"645 264 CURVE SMOOTH",
"645 198 OFFCURVE",
"579 136 OFFCURVE",
"493 136 CURVE SMOOTH",
"454 136 OFFCURVE",
"413 143 OFFCURVE",
"384 158 CURVE",
"431 293 OFFCURVE",
"342 389 OFFCURVE",
"216 389 CURVE SMOOTH",
"108 389 OFFCURVE",
"45 326 OFFCURVE",
"45 232 CURVE SMOOTH",
"45 100 OFFCURVE",
"197 -10 OFFCURVE",
"486 -10 CURVE SMOOTH",
"802 -10 OFFCURVE",
"991 125 OFFCURVE",
"1008 289 CURVE SMOOTH",
"1037 568 OFFCURVE",
"507 565 OFFCURVE",
"507 730 CURVE SMOOTH",
"507 816 OFFCURVE",
"661 842 OFFCURVE",
"736 825 CURVE",
"700 687 OFFCURVE",
"793 595 OFFCURVE",
"915 595 CURVE SMOOTH",
"1026 595 OFFCURVE",
"1074 674 OFFCURVE",
"1073 745 CURVE SMOOTH",
"1070 876 OFFCURVE",
"883 959 OFFCURVE",
"630 959 CURVE SMOOTH"
);
}
);
};
layerId = "EC6023BC-5000-4426-9669-5D8298901CAA";
name = "Ball Terminals: Jonny";
paths = (
{
closed = 1;
nodes = (
"390 969 OFFCURVE",
"200 831 OFFCURVE",
"186 670 CURVE SMOOTH",
"162 399 OFFCURVE",
"648 395 OFFCURVE",
"634 236 CURVE SMOOTH",
"626 139 OFFCURVE",
"476 109 OFFCURVE",
"363 148 CURVE",
"432 278 OFFCURVE",
"350 379 OFFCURVE",
"221 379 CURVE SMOOTH",
"113 379 OFFCURVE",
"44 316 OFFCURVE",
"36 222 CURVE SMOOTH",
"24 90 OFFCURVE",
"167 -20 OFFCURVE",
"482 -20 CURVE SMOOTH",
"772 -20 OFFCURVE",
"986 106 OFFCURVE",
"1003 305 CURVE SMOOTH",
"1027 582 OFFCURVE",
"513 592 OFFCURVE",
"526 732 CURVE SMOOTH",
"533 816 OFFCURVE",
"640 848 OFFCURVE",
"770 818 CURVE",
"715 697 OFFCURVE",
"800 605 OFFCURVE",
"922 605 CURVE SMOOTH",
"1033 605 OFFCURVE",
"1088 684 OFFCURVE",
"1094 755 CURVE SMOOTH",
"1102 886 OFFCURVE",
"922 969 OFFCURVE",
"641 969 CURVE SMOOTH"
);
}
);
width = 1033;
},
{
associatedMasterId = "FF8CB9F1-2B98-444C-A502-96421F2531A8";
background = {
paths = (
{
closed = 1;
nodes = (
"750 814 OFFCURVE",
"825 642 OFFCURVE",
"916 642 CURVE SMOOTH",
"973 642 OFFCURVE",
"1051 733 OFFCURVE",
"1051 810 CURVE SMOOTH",
"1051 899 OFFCURVE",
"825 960 OFFCURVE",
"585 960 CURVE SMOOTH",
"369 960 OFFCURVE",
"226 893 OFFCURVE",
"186 761 CURVE SMOOTH",
"71 382 OFFCURVE",
"642 365 OFFCURVE",
"586 190 CURVE SMOOTH",
"575 154 OFFCURVE",
"541 135 OFFCURVE",
"485 135 CURVE SMOOTH",
"296 135 OFFCURVE",
"246 380 OFFCURVE",
"159 380 CURVE SMOOTH",
"94 380 OFFCURVE",
"31 281 OFFCURVE",
"31 190 CURVE SMOOTH",
"31 55 OFFCURVE",
"246 -20 OFFCURVE",
"476 -20 CURVE SMOOTH",
"701 -20 OFFCURVE",
"898 66 OFFCURVE",
"948 227 CURVE SMOOTH",
"1057 576 OFFCURVE",
"464 603 OFFCURVE",
"515 771 CURVE SMOOTH",
"524 802 OFFCURVE",
"550 814 OFFCURVE",
"601 814 CURVE"
);
}
);
};
guideLines = (
{
angle = 73.2837;
position = "{1065, 618}";
},
{
angle = 73.2837;
position = "{469, 618}";
},
{
angle = 73.2837;
position = "{714, 618}";
},
{
angle = 73.2837;
position = "{143, 618}";
}
);
layerId = "211A6F91-BBB4-42D4-BA60-4929EEBFB02F";
name = "Wedge Terminal: Jonny";
paths = (
{
closed = 1;
nodes = (
"802 833 OFFCURVE",
"818 661 OFFCURVE",
"909 661 CURVE SMOOTH",
"986 661 OFFCURVE",
"1044 739 OFFCURVE",
"1044 802 CURVE SMOOTH",
"1044 887 OFFCURVE",
"848 979 OFFCURVE",
"608 979 CURVE SMOOTH",
"392 979 OFFCURVE",
"247 905 OFFCURVE",
"203 759 CURVE SMOOTH",
"94 401 OFFCURVE",
"642 365 OFFCURVE",
"586 190 CURVE SMOOTH",
"575 154 OFFCURVE",
"541 120 OFFCURVE",
"476 120 CURVE SMOOTH",
"296 120 OFFCURVE",
"275 380 OFFCURVE",
"159 380 CURVE SMOOTH",
"94 380 OFFCURVE",
"31 281 OFFCURVE",
"31 190 CURVE SMOOTH",
"31 55 OFFCURVE",
"246 -20 OFFCURVE",
"476 -20 CURVE SMOOTH",
"701 -20 OFFCURVE",
"899 66 OFFCURVE",
"948 227 CURVE SMOOTH",
"1060 595 OFFCURVE",
"488 623 OFFCURVE",
"538 790 CURVE SMOOTH",
"546 817 OFFCURVE",
"576 833 OFFCURVE",
"624 833 CURVE SMOOTH"
);
}
);
width = 996;
},
{
anchors = (
{
name = bottom;
position = "{347, 0}";
},
{
name = top;
position = "{431, 651}";
}
);
background = {
paths = (
{
closed = 0;
nodes = (
"425 570 LINE",
"465 570 OFFCURVE",
"496 550 OFFCURVE",
"534 503 CURVE SMOOTH",
"580 446 OFFCURVE",
"594 431 OFFCURVE",
"619 431 CURVE SMOOTH",
"635 431 LINE SMOOTH",
"653 431 OFFCURVE",
"666 445 OFFCURVE",
"678 479 CURVE SMOOTH",
"724 622 LINE SMOOTH",
"735 649 OFFCURVE",
"726 666 OFFCURVE",
"696 666 CURVE SMOOTH",
"660 666 LINE SMOOTH",
"635 666 OFFCURVE",
"618 659 OFFCURVE",
"577 617 CURVE",
"511 656 OFFCURVE",
"455 672 OFFCURVE",
"386 672 CURVE"
);
}
);
};
guideLines = (
{
angle = 73.2837;
position = "{1066, 618}";
},
{
angle = 73.2837;
position = "{470, 618}";
},
{
angle = 73.2837;
position = "{169, 618}";
},
{
angle = 73.2837;
position = "{423, 718}";
},
{
angle = 73.2837;
position = "{767, 638}";
},
{
angle = 73.2837;
position = "{525, 618}";
}
);
layerId = "FF8CB9F1-2B98-444C-A502-96421F2531A8";
name = "Bold Italic";
paths = (
{
closed = 1;
nodes = (
"263 672 OFFCURVE",
"167 611 OFFCURVE",
"139 519 CURVE SMOOTH",
"61 263 OFFCURVE",
"416 250 OFFCURVE",
"382 139 CURVE SMOOTH",
"374 115 OFFCURVE",
"357 103 OFFCURVE",
"320 103 CURVE SMOOTH",
"269 103 OFFCURVE",
"238 124 OFFCURVE",
"195 185 CURVE SMOOTH",
"157 238 OFFCURVE",
"137 259 OFFCURVE",
"105 259 CURVE SMOOTH",
"77 259 OFFCURVE",
"58 246 OFFCURVE",
"47 211 CURVE SMOOTH",
"-2 62 LINE SMOOTH",
"-15 23 OFFCURVE",
"7 0 OFFCURVE",
"44 0 CURVE SMOOTH",
"71 0 OFFCURVE",
"88 9 OFFCURVE",
"121 36 CURVE SMOOTH",
"157 66 LINE",
"220 17 OFFCURVE",
"275 -4 OFFCURVE",
"369 -4 CURVE SMOOTH",
"486 -4 OFFCURVE",
"590 48 OFFCURVE",
"623 159 CURVE SMOOTH",
"696 401 OFFCURVE",
"335 426 OFFCURVE",
"368 534 CURVE SMOOTH",
"374 555 OFFCURVE",
"394 570 OFFCURVE",
"418 570 CURVE SMOOTH",
"456 570 OFFCURVE",
"492 553 OFFCURVE",
"540 497 CURVE SMOOTH",
"582 447 OFFCURVE",
"598 428 OFFCURVE",
"630 428 CURVE SMOOTH",
"658 428 OFFCURVE",
"670 440 OFFCURVE",
"679 472 CURVE SMOOTH",
"721 610 LINE SMOOTH",
"732 647 OFFCURVE",
"709 668 OFFCURVE",
"672 668 CURVE SMOOTH",
"645 668 OFFCURVE",
"628 660 OFFCURVE",
"597 635 CURVE SMOOTH",
"574 616 LINE",
"509 655 OFFCURVE",
"448 672 OFFCURVE",
"374 672 CURVE SMOOTH"
);
}
);
width = 689;
},
{
associatedMasterId = "FF8CB9F1-2B98-444C-A502-96421F2531A8";
guideLines = (
{
angle = 73.2837;
position = "{1065, 618}";
},
{
angle = 73.2837;
position = "{469, 618}";
},
{
angle = 73.2837;
position = "{714, 618}";
},
{
angle = 73.2837;
position = "{143, 618}";
}
);
layerId = "336269EB-47FB-4C74-AC2A-2B1AC62FAEB5";
name = V1;
paths = (
{
closed = 1;
nodes = (
"268 672 OFFCURVE",
"186 625 OFFCURVE",
"155 525 CURVE SMOOTH",
"73 267 OFFCURVE",
"432 255 OFFCURVE",
"393 139 CURVE SMOOTH",
"383 108 OFFCURVE",
"360 95 OFFCURVE",
"317 95 CURVE SMOOTH",
"271 95 OFFCURVE",
"237 118 OFFCURVE",
"203 185 CURVE SMOOTH",
"173 242 OFFCURVE",
"162 259 OFFCURVE",
"136 259 CURVE SMOOTH",
"114 259 LINE SMOOTH",
"92 259 OFFCURVE",
"79 246 OFFCURVE",
"67 211 CURVE SMOOTH",
"14 44 LINE SMOOTH",
"6 18 OFFCURVE",
"12 0 OFFCURVE",
"41 0 CURVE SMOOTH",
"80 0 LINE SMOOTH",
"105 0 OFFCURVE",
"122 13 OFFCURVE",
"153 55 CURVE",
"200 10 OFFCURVE",
"262 -14 OFFCURVE",
"354 -14 CURVE SMOOTH",
"480 -14 OFFCURVE",
"585 46 OFFCURVE",
"622 159 CURVE SMOOTH",
"703 403 OFFCURVE",
"327 402 OFFCURVE",
"369 533 CURVE SMOOTH",
"375 552 OFFCURVE",
"389 570 OFFCURVE",
"422 570 CURVE SMOOTH",
"460 570 OFFCURVE",
"490 550 OFFCURVE",
"526 503 CURVE SMOOTH",
"571 446 OFFCURVE",
"584 431 OFFCURVE",
"609 431 CURVE SMOOTH",
"624 431 LINE SMOOTH",
"641 431 OFFCURVE",
"653 445 OFFCURVE",
"665 479 CURVE SMOOTH",
"710 622 LINE SMOOTH",
"720 649 OFFCURVE",
"712 666 OFFCURVE",
"683 666 CURVE SMOOTH",
"648 666 LINE SMOOTH",
"624 666 OFFCURVE",
"608 659 OFFCURVE",
"568 617 CURVE",
"505 656 OFFCURVE",
"451 672 OFFCURVE",
"384 672 CURVE SMOOTH"
);
}
);
width = 697;
}
);
leftKerningGroup = S;
rightKerningGroup = S;
unicode = 0053;
},
{
glyphname = T;
lastChange = "2015-10-04 15:13:33 +0000";
layers = (
{
anchors = (
{
name = bottom;
position = "{352, 0}";
},
{
name = top;
position = "{477, 651}";
}
);
background = {
paths = (
{
closed = 0;
nodes = (
"626 565 LINE SMOOTH",
"655 565 OFFCURVE",
"667 558 OFFCURVE",
"672 533 CURVE SMOOTH",
"684 478 LINE SMOOTH",
"690 442 OFFCURVE",
"704 431 OFFCURVE",
"735 431 CURVE SMOOTH",
"778 431 OFFCURVE",
"815 463 OFFCURVE",
"830 514 CURVE SMOOTH",
"856 596 LINE SMOOTH",
"874 650 OFFCURVE",
"869 666 OFFCURVE",
"801 666 CURVE SMOOTH"
);
}
);
};
guideLines = (
{
angle = 74.2244;
position = "{764, 283}";
}
);
layerId = "FF8CB9F1-2B98-444C-A502-96421F2531A8";
name = "Bold Italic";
paths = (
{
closed = 1;
nodes = (
"356 580 LINE",
"226 119 LINE SMOOTH",
"209 61 OFFCURVE",
"172 71 OFFCURVE",
"158 40 CURVE SMOOTH",
"149 17 OFFCURVE",
"164 1 OFFCURVE",
"199 1 CURVE SMOOTH",
"434 1 LINE SMOOTH",
"470 1 OFFCURVE",
"488 8 OFFCURVE",
"495 26 CURVE SMOOTH",
"506 59 OFFCURVE",
"461 60 OFFCURVE",
"477 119 CURVE SMOOTH",
"608 580 LINE"
);
},
{
closed = 1;
nodes = (
"627 566 LINE SMOOTH",
"653 566 OFFCURVE",
"662 558 OFFCURVE",
"672 533 CURVE SMOOTH",
"689 492 LINE SMOOTH",
"703 458 OFFCURVE",
"717 438 OFFCURVE",
"753 438 CURVE SMOOTH",
"794 438 OFFCURVE",
"812 457 OFFCURVE",
"826 505 CURVE SMOOTH",
"850 586 LINE SMOOTH",
"866 642 OFFCURVE",
"849 666 OFFCURVE",
"801 666 CURVE SMOOTH",
"218 666 LINE SMOOTH",
"150 666 OFFCURVE",
"134 649 OFFCURVE",
"119 596 CURVE SMOOTH",
"93 505 LINE SMOOTH",
"82 464 OFFCURVE",
"100 438 OFFCURVE",
"139 438 CURVE SMOOTH",
"174 438 OFFCURVE",
"201 458 OFFCURVE",
"230 492 CURVE SMOOTH",
"263 533 LINE SMOOTH",
"284 558 OFFCURVE",
"300 566 OFFCURVE",
"329 566 CURVE SMOOTH"
);
}
);
width = 759;
}
);
leftKerningGroup = T;
rightKerningGroup = T;
unicode = 0054;
},
{
glyphname = U;
lastChange = "2015-10-04 15:13:33 +0000";
layers = (
{
anchors = (
{
name = ogonek;
position = "{403, 0}";
},
{
name = top;
position = "{516, 651}";
}
);
background = {
components = (
{
name = I;
}
);
};
layerId = "FF8CB9F1-2B98-444C-A502-96421F2531A8";
name = "Bold Italic";
paths = (
{
closed = 1;
nodes = (
"529 244 LINE SMOOTH",
"502 149 OFFCURVE",
"462 118 OFFCURVE",
"406 118 CURVE SMOOTH",
"347 118 OFFCURVE",
"317 150 OFFCURVE",
"343 243 CURVE SMOOTH",
"430 549 LINE SMOOTH",
"447 608 OFFCURVE",
"488 597 OFFCURVE",
"498 630 CURVE SMOOTH",
"504 652 OFFCURVE",
"492 666 OFFCURVE",
"456 666 CURVE SMOOTH",
"221 666 LINE SMOOTH",
"185 666 OFFCURVE",
"168 660 OFFCURVE",
"162 642 CURVE SMOOTH",
"151 611 OFFCURVE",
"195 609 OFFCURVE",
"178 549 CURVE SMOOTH",
"102 280 LINE SMOOTH",
"44 76 OFFCURVE",
"151 -6 OFFCURVE",
"335 -6 CURVE SMOOTH",
"514 -6 OFFCURVE",
"605 86 OFFCURVE",
"646 238 CURVE SMOOTH",
"705 455 LINE",
"722 450 OFFCURVE",
"735 446 OFFCURVE",
"761 446 CURVE SMOOTH",
"800 446 OFFCURVE",
"845 466 OFFCURVE",
"861 529 CURVE SMOOTH",
"880 602 OFFCURVE",
"838 670 OFFCURVE",
"760 670 CURVE SMOOTH",
"674 670 OFFCURVE",
"635 616 OFFCURVE",
"611 531 CURVE SMOOTH"
);
}
);
width = 788;
},
{
associatedMasterId = "FF8CB9F1-2B98-444C-A502-96421F2531A8";
background = {
paths = (
{
closed = 1;
nodes = (
"537 451 LINE",
"489 280 LINE SMOOTH",
"458 168 OFFCURVE",
"445 118 OFFCURVE",
"350 118 CURVE SMOOTH",
"239 118 OFFCURVE",
"271 168 OFFCURVE",
"302 279 CURVE SMOOTH",
"379 549 LINE SMOOTH",
"396 608 OFFCURVE",
"434 597 OFFCURVE",
"446 628 CURVE SMOOTH",
"457 651 OFFCURVE",
"441 666 OFFCURVE",
"405 666 CURVE SMOOTH",
"170 666 LINE SMOOTH",
"134 666 OFFCURVE",
"116 660 OFFCURVE",
"111 642 CURVE SMOOTH",
"99 608 OFFCURVE",
"144 609 OFFCURVE",
"127 549 CURVE SMOOTH",
"51 280 LINE SMOOTH",
"-7 76 OFFCURVE",
"59 -6 OFFCURVE",
"294 -6 CURVE SMOOTH",
"504 -6 OFFCURVE",
"559 87 OFFCURVE",
"614 280 CURVE SMOOTH",
"662 451 LINE"
);
}
);
};
layerId = "99F50AD5-117D-413C-97CA-DB5A274BEFC6";
name = "Bold Italic Aug 12 15, 11:29";
paths = (
{
closed = 1;
nodes = (
"633 675 OFFCURVE",
"583 613 OFFCURVE",
"551 500 CURVE SMOOTH",
"478 244 LINE SMOOTH",
"451 149 OFFCURVE",
"411 118 OFFCURVE",
"350 118 CURVE SMOOTH",
"291 118 OFFCURVE",
"266 150 OFFCURVE",
"292 243 CURVE SMOOTH",
"379 549 LINE SMOOTH",
"396 608 OFFCURVE",
"434 597 OFFCURVE",
"446 628 CURVE",
"457 651 OFFCURVE",
"441 666 OFFCURVE",
"405 666 CURVE SMOOTH",
"170 666 LINE SMOOTH",
"134 666 OFFCURVE",
"116 660 OFFCURVE",
"111 642 CURVE",
"99 608 OFFCURVE",
"144 609 OFFCURVE",
"127 549 CURVE SMOOTH",
"51 280 LINE SMOOTH",
"-7 76 OFFCURVE",
"100 -6 OFFCURVE",
"305 -6 CURVE SMOOTH",
"475 -6 OFFCURVE",
"553 86 OFFCURVE",
"590 222 CURVE SMOOTH",
"665 497 LINE",
"676 468 OFFCURVE",
"698 450 OFFCURVE",
"737 450 CURVE SMOOTH",
"792 450 OFFCURVE",
"830 504 OFFCURVE",
"830 571 CURVE SMOOTH",
"830 628 OFFCURVE",
"793 675 OFFCURVE",
"724 675 CURVE SMOOTH"
);
}
);
width = 744;
visible = 1;
}
);
leftKerningGroup = U;
rightKerningGroup = U;
unicode = 0055;
},
{
glyphname = V;
lastChange = "2015-10-04 15:13:33 +0000";
layers = (
{
background = {
paths = (
{
closed = 1;
nodes = (
"418 145 LINE",
"492 170 LINE",
"449 554 LINE SMOOTH",
"444 602 OFFCURVE",
"489 602 OFFCURVE",
"488 635 CURVE SMOOTH",
"487 655 OFFCURVE",
"471 666 OFFCURVE",
"434 666 CURVE SMOOTH",
"182 666 LINE SMOOTH",
"140 666 OFFCURVE",
"126 652 OFFCURVE",
"128 629 CURVE SMOOTH",
"129 603 OFFCURVE",
"181 601 OFFCURVE",
"188 548 CURVE SMOOTH",
"252 73 LINE SMOOTH",
"259 23 OFFCURVE",
"284 0 OFFCURVE",
"334 0 CURVE SMOOTH",
"384 0 LINE SMOOTH",
"426 0 OFFCURVE",
"450 16 OFFCURVE",
"479 66 CURVE SMOOTH",
"718 486 LINE",
"737 466 OFFCURVE",
"763 454 OFFCURVE",
"795 454 CURVE SMOOTH",
"845 454 OFFCURVE",
"882 489 OFFCURVE",
"894 532 CURVE SMOOTH",
"918 616 OFFCURVE",
"866 670 OFFCURVE",
"797 670 CURVE SMOOTH",
"726 670 OFFCURVE",
"684 630 OFFCURVE",
"634 537 CURVE SMOOTH"
);
}
);
};
guideLines = (
{
angle = -79.6952;
position = "{155, 786}";
},
{
angle = -79.6952;
position = "{412, 786}";
}
);
layerId = "FF8CB9F1-2B98-444C-A502-96421F2531A8";
name = "Bold Italic";
paths = (
{
closed = 1;
nodes = (
"407 217 LINE SMOOTH",
"478 230 LINE SMOOTH",
"426 550 LINE SMOOTH",
"419 595 OFFCURVE",
"459 602 OFFCURVE",
"459 631 CURVE SMOOTH",
"460 652 OFFCURVE",
"444 666 OFFCURVE",
"413 666 CURVE SMOOTH",
"163 666 LINE SMOOTH",
"128 666 OFFCURVE",
"116 652 OFFCURVE",
"119 629 CURVE SMOOTH",
"119 603 OFFCURVE",
"160 597 OFFCURVE",
"169 548 CURVE SMOOTH",
"253 86 LINE SMOOTH",
"264 24 OFFCURVE",
"289 0 OFFCURVE",
"329 0 CURVE SMOOTH",
"369 0 OFFCURVE",
"396 27 OFFCURVE",
"431 86 CURVE SMOOTH",
"672 492 LINE",
"688 471 OFFCURVE",
"714 455 OFFCURVE",
"748 455 CURVE SMOOTH",
"794 455 OFFCURVE",
"852 495 OFFCURVE",
"851 572 CURVE SMOOTH",
"849 634 OFFCURVE",
"809 670 OFFCURVE",
"750 670 CURVE SMOOTH",
"681 670 OFFCURVE",
"643 636 OFFCURVE",
"597 553 CURVE SMOOTH"
);
}
);
width = 733;
}
);
unicode = 0056;
},
{
glyphname = W;
lastChange = "2015-10-04 15:13:33 +0000";
layers = (
{
background = {
guideLines = (
{
angle = -80.8077;
position = "{593, 648}";
}
);
paths = (
{
closed = 0;
nodes = (
"242 86 LINE",
"249 22 OFFCURVE",
"278 0 OFFCURVE",
"318 0 CURVE SMOOTH",
"358 0 OFFCURVE",
"384 25 OFFCURVE",
"420 86 CURVE SMOOTH"
);
}
);
};
guideLines = (
{
position = "{498, 337}";
}
);
layerId = "FF8CB9F1-2B98-444C-A502-96421F2531A8";
name = "Bold Italic";
paths = (
{
closed = 1;
nodes = (
"809 217 LINE",
"880 230 LINE",
"862 550 LINE SMOOTH",
"859 597 OFFCURVE",
"895 602 OFFCURVE",
"895 631 CURVE SMOOTH",
"896 652 OFFCURVE",
"880 666 OFFCURVE",
"849 666 CURVE SMOOTH",
"599 666 LINE SMOOTH",
"564 666 OFFCURVE",
"552 652 OFFCURVE",
"555 629 CURVE SMOOTH",
"555 603 OFFCURVE",
"599 599 OFFCURVE",
"605 548 CURVE SMOOTH",
"655 86 LINE SMOOTH",
"662 22 OFFCURVE",
"691 0 OFFCURVE",
"731 0 CURVE SMOOTH",
"771 0 OFFCURVE",
"797 25 OFFCURVE",
"833 86 CURVE SMOOTH",
"1076 492 LINE",
"1084 474 OFFCURVE",
"1113 454 OFFCURVE",
"1146 454 CURVE SMOOTH",
"1192 454 OFFCURVE",
"1256 495 OFFCURVE",
"1255 572 CURVE SMOOTH",
"1253 634 OFFCURVE",
"1213 670 OFFCURVE",
"1154 670 CURVE SMOOTH",
"1086 670 OFFCURVE",
"1052 643 OFFCURVE",
"1009 568 CURVE SMOOTH"
);
},
{
closed = 1;
nodes = (
"643 575 LINE",
"346 147 LINE",
"471 190 LINE",
"432 550 LINE SMOOTH",
"427 597 OFFCURVE",
"465 602 OFFCURVE",
"465 631 CURVE SMOOTH",
"466 652 OFFCURVE",
"451 666 OFFCURVE",
"420 666 CURVE SMOOTH",
"171 666 LINE SMOOTH",
"136 666 OFFCURVE",
"124 652 OFFCURVE",
"127 629 CURVE SMOOTH",
"127 603 OFFCURVE",
"169 601 OFFCURVE",
"177 548 CURVE SMOOTH",
"241 96 LINE SMOOTH",
"250 31 OFFCURVE",
"275 0 OFFCURVE",
"315 0 CURVE SMOOTH",
"352 0 OFFCURVE",
"374 18 OFFCURVE",
"421 86 CURVE SMOOTH",
"679 461 LINE"
);
}
);
width = 1144;
}
);
unicode = 0057;
},
{
glyphname = X;
lastChange = "2015-10-04 15:13:33 +0000";
layers = (
{
background = {
paths = (
{
closed = 1;
nodes = (
"482 549 LINE SMOOTH",
"457 609 OFFCURVE",
"521 608 OFFCURVE",
"509 642 CURVE SMOOTH",
"503 660 OFFCURVE",
"472 666 OFFCURVE",
"438 666 CURVE SMOOTH",
"189 666 LINE SMOOTH",
"155 666 OFFCURVE",
"142 651 OFFCURVE",
"152 628 CURVE SMOOTH",
"165 597 OFFCURVE",
"195 608 OFFCURVE",
"219 549 CURVE SMOOTH",
"395 119 LINE SMOOTH",
"419 60 OFFCURVE",
"354 59 OFFCURVE",
"367 26 CURVE SMOOTH",
"373 8 OFFCURVE",
"406 1 OFFCURVE",
"441 1 CURVE SMOOTH",
"695 1 LINE SMOOTH",
"731 1 OFFCURVE",
"746 17 OFFCURVE",
"734 40 CURVE SMOOTH",
"721 71 OFFCURVE",
"690 59 OFFCURVE",
"665 119 CURVE SMOOTH"
);
},
{
closed = 1;
nodes = (
"415 409 LINE",
"94 133 LINE SMOOTH",
"19 68 OFFCURVE",
"-44 85 OFFCURVE",
"-44 37 CURVE SMOOTH",
"-43 15 OFFCURVE",
"-19 0 OFFCURVE",
"27 0 CURVE SMOOTH",
"206 0 LINE SMOOTH",
"242 0 OFFCURVE",
"261 6 OFFCURVE",
"267 31 CURVE SMOOTH",
"277 72 OFFCURVE",
"185 68 OFFCURVE",
"264 138 CURVE SMOOTH",
"467 319 LINE"
);
},
{
closed = 1;
nodes = (
"416 258 LINE",
"759 533 LINE SMOOTH",
"838 596 OFFCURVE",
"897 581 OFFCURVE",
"896 629 CURVE SMOOTH",
"896 652 OFFCURVE",
"870 666 OFFCURVE",
"825 666 CURVE SMOOTH",
"646 666 LINE SMOOTH",
"610 666 OFFCURVE",
"590 661 OFFCURVE",
"585 636 CURVE SMOOTH",
"576 594 OFFCURVE",
"672 595 OFFCURVE",
"589 529 CURVE SMOOTH",
"364 348 LINE"
);
}
);
};
guideLines = (
{
angle = 74.0722;
position = "{377, 78}";
},
{
position = "{616, 26}";
},
{
angle = 74.0722;
position = "{286, 98}";
},
{
angle = 74.0722;
position = "{-28, 98}";
}
);
layerId = "FF8CB9F1-2B98-444C-A502-96421F2531A8";
name = "Bold Italic";
paths = (
{
closed = 1;
nodes = (
"685 0 LINE SMOOTH",
"718 0 OFFCURVE",
"732 9 OFFCURVE",
"736 26 CURVE SMOOTH",
"746 68 OFFCURVE",
"691 56 OFFCURVE",
"661 128 CURVE SMOOTH",
"495 530 LINE SMOOTH",
"463 607 OFFCURVE",
"507 593 OFFCURVE",
"517 626 CURVE SMOOTH",
"523 647 OFFCURVE",
"509 666 OFFCURVE",
"467 666 CURVE SMOOTH",
"198 666 LINE SMOOTH",
"165 666 OFFCURVE",
"151 657 OFFCURVE",
"147 640 CURVE SMOOTH",
"137 598 OFFCURVE",
"192 610 OFFCURVE",
"222 538 CURVE SMOOTH",
"388 136 LINE SMOOTH",
"420 58 OFFCURVE",
"376 73 OFFCURVE",
"366 40 CURVE SMOOTH",
"360 19 OFFCURVE",
"374 0 OFFCURVE",
"416 0 CURVE SMOOTH"
);
},
{
closed = 1;
nodes = (
"210 0 LINE SMOOTH",
"246 0 OFFCURVE",
"261 6 OFFCURVE",
"266 26 CURVE SMOOTH",
"276 63 OFFCURVE",
"192 71 OFFCURVE",
"262 136 CURVE SMOOTH",
"467 329 LINE",
"415 409 LINE",
"94 133 LINE SMOOTH",
"11 62 OFFCURVE",
"-34 79 OFFCURVE",
"-45 40 CURVE SMOOTH",
"-51 18 OFFCURVE",
"-35 0 OFFCURVE",
"1 0 CURVE SMOOTH"
);
},
{
closed = 1;
nodes = (
"763 533 LINE SMOOTH",
"847 604 OFFCURVE",
"891 587 OFFCURVE",
"902 626 CURVE SMOOTH",
"908 648 OFFCURVE",
"892 666 OFFCURVE",
"856 666 CURVE SMOOTH",
"647 666 LINE SMOOTH",
"611 666 OFFCURVE",
"596 660 OFFCURVE",
"591 640 CURVE SMOOTH",
"581 603 OFFCURVE",
"666 595 OFFCURVE",
"595 530 CURVE SMOOTH",
"385 337 LINE",
"437 257 LINE"
);
}
);
width = 809;
},
{
associatedMasterId = "FF8CB9F1-2B98-444C-A502-96421F2531A8";
background = {
components = (
{
name = H;
}
);
};
layerId = "0E4597A1-38F7-4F1E-85E6-FD6F4AF3233C";
name = "Bold Italic Aug 14 15, 13:13";
paths = (
{
closed = 1;
nodes = (
"462 549 LINE SMOOTH",
"433 605 OFFCURVE",
"501 608 OFFCURVE",
"489 642 CURVE SMOOTH",
"483 660 OFFCURVE",
"452 666 OFFCURVE",
"418 666 CURVE SMOOTH",
"169 666 LINE SMOOTH",
"135 666 OFFCURVE",
"122 651 OFFCURVE",
"132 628 CURVE SMOOTH",
"145 597 OFFCURVE",
"171 605 OFFCURVE",
"199 549 CURVE SMOOTH",
"411 119 LINE SMOOTH",
"439 63 OFFCURVE",
"370 59 OFFCURVE",
"383 26 CURVE SMOOTH",
"389 8 OFFCURVE",
"422 1 OFFCURVE",
"457 1 CURVE SMOOTH",
"711 1 LINE SMOOTH",
"747 1 OFFCURVE",
"762 17 OFFCURVE",
"750 40 CURVE SMOOTH",
"737 71 OFFCURVE",
"710 63 OFFCURVE",
"681 119 CURVE SMOOTH"
);
},
{
closed = 1;
nodes = (
"401 409 LINE",
"80 133 LINE SMOOTH",
"5 68 OFFCURVE",
"-58 85 OFFCURVE",
"-58 37 CURVE SMOOTH",
"-57 15 OFFCURVE",
"-33 0 OFFCURVE",
"13 0 CURVE SMOOTH",
"192 0 LINE SMOOTH",
"228 0 OFFCURVE",
"247 6 OFFCURVE",
"253 31 CURVE SMOOTH",
"263 72 OFFCURVE",
"171 68 OFFCURVE",
"250 138 CURVE SMOOTH",
"453 319 LINE"
);
},
{
closed = 1;
nodes = (
"432 258 LINE",
"769 533 LINE SMOOTH",
"847 597 OFFCURVE",
"907 581 OFFCURVE",
"906 629 CURVE SMOOTH",
"906 652 OFFCURVE",
"880 666 OFFCURVE",
"835 666 CURVE SMOOTH",
"656 666 LINE SMOOTH",
"620 666 OFFCURVE",
"600 661 OFFCURVE",
"595 636 CURVE SMOOTH",
"586 594 OFFCURVE",
"681 596 OFFCURVE",
"599 529 CURVE SMOOTH",
"380 348 LINE"
);
}
);
width = 815;
}
);
unicode = 0058;
},
{
glyphname = Y;
lastChange = "2015-10-04 15:13:33 +0000";
layers = (
{
associatedMasterId = "FF8CB9F1-2B98-444C-A502-96421F2531A8";
background = {
paths = (
{
closed = 1;
nodes = (
"665 434 OFFCURVE",
"686 455 OFFCURVE",
"686 482 CURVE SMOOTH",
"686 508 OFFCURVE",
"665 529 OFFCURVE",
"639 529 CURVE SMOOTH",
"612 529 OFFCURVE",
"591 508 OFFCURVE",
"591 482 CURVE SMOOTH",
"591 455 OFFCURVE",
"612 434 OFFCURVE",
"639 434 CURVE SMOOTH"
);
},
{
closed = 1;
nodes = (
"585 331 OFFCURVE",
"606 352 OFFCURVE",
"606 379 CURVE SMOOTH",
"606 405 OFFCURVE",
"585 426 OFFCURVE",
"559 426 CURVE SMOOTH",
"532 426 OFFCURVE",
"511 405 OFFCURVE",
"511 379 CURVE SMOOTH",
"511 352 OFFCURVE",
"532 331 OFFCURVE",
"559 331 CURVE SMOOTH"
);
}
);
};
layerId = "8CC770A5-3032-46B9-A96F-F8918A9BE201";
name = "Bold Italic Aug 16 15, 15:24";
paths = (
{
closed = 1;
nodes = (
"511 352 LINE",
"457 557 LINE SMOOTH",
"446 600 OFFCURVE",
"489 608 OFFCURVE",
"489 639 CURVE SMOOTH",
"488 659 OFFCURVE",
"474 666 OFFCURVE",
"427 666 CURVE SMOOTH",
"160 666 LINE SMOOTH",
"136 666 OFFCURVE",
"123 658 OFFCURVE",
"120 645 CURVE SMOOTH",
"113 609 OFFCURVE",
"166 617 OFFCURVE",
"195 536 CURVE SMOOTH",
"294 254 LINE",
"298 312 LINE",
"241 118 LINE SMOOTH",
"224 60 OFFCURVE",
"182 68 OFFCURVE",
"174 36 CURVE SMOOTH",
"169 13 OFFCURVE",
"187 0 OFFCURVE",
"221 0 CURVE SMOOTH",
"473 0 LINE SMOOTH",
"508 0 OFFCURVE",
"529 6 OFFCURVE",
"535 25 CURVE SMOOTH",
"544 57 OFFCURVE",
"476 63 OFFCURVE",
"492 118 CURVE SMOOTH",
"542 287 LINE",
"521 251 LINE",
"724 515 LINE",
"657 513 LINE",
"681 469 OFFCURVE",
"708 453 OFFCURVE",
"751 453 CURVE SMOOTH",
"799 453 OFFCURVE",
"845 479 OFFCURVE",
"857 547 CURVE SMOOTH",
"869 617 OFFCURVE",
"824 670 OFFCURVE",
"750 670 CURVE SMOOTH",
"622 670 OFFCURVE",
"615 541 OFFCURVE",
"555 455 CURVE SMOOTH",
"482 351 LINE"
);
}
);
width = 788;
},
{
anchors = (
{
name = top;
position = "{518, 651}";
}
);
background = {
paths = (
{
closed = 1;
nodes = (
"674 434 OFFCURVE",
"695 455 OFFCURVE",
"695 482 CURVE SMOOTH",
"695 508 OFFCURVE",
"674 529 OFFCURVE",
"648 529 CURVE SMOOTH",
"621 529 OFFCURVE",
"600 508 OFFCURVE",
"600 482 CURVE SMOOTH",
"600 455 OFFCURVE",
"621 434 OFFCURVE",
"648 434 CURVE SMOOTH"
);
},
{
closed = 1;
nodes = (
"594 331 OFFCURVE",
"615 352 OFFCURVE",
"615 379 CURVE SMOOTH",
"615 405 OFFCURVE",
"594 426 OFFCURVE",
"568 426 CURVE SMOOTH",
"541 426 OFFCURVE",
"520 405 OFFCURVE",
"520 379 CURVE SMOOTH",
"520 352 OFFCURVE",
"541 331 OFFCURVE",
"568 331 CURVE SMOOTH"
);
}
);
};
layerId = "FF8CB9F1-2B98-444C-A502-96421F2531A8";
name = "Bold Italic";
paths = (
{
closed = 1;
nodes = (
"520 352 LINE",
"466 557 LINE SMOOTH",
"455 600 OFFCURVE",
"498 608 OFFCURVE",
"498 639 CURVE SMOOTH",
"497 659 OFFCURVE",
"483 666 OFFCURVE",
"436 666 CURVE SMOOTH",
"169 666 LINE SMOOTH",
"145 666 OFFCURVE",
"132 658 OFFCURVE",
"129 645 CURVE SMOOTH",
"122 609 OFFCURVE",
"175 617 OFFCURVE",
"204 536 CURVE SMOOTH",
"303 254 LINE",
"307 312 LINE",
"250 118 LINE SMOOTH",
"233 60 OFFCURVE",
"191 68 OFFCURVE",
"183 36 CURVE SMOOTH",
"178 13 OFFCURVE",
"196 0 OFFCURVE",
"230 0 CURVE SMOOTH",
"482 0 LINE SMOOTH",
"517 0 OFFCURVE",
"538 6 OFFCURVE",
"544 25 CURVE SMOOTH",
"553 57 OFFCURVE",
"485 63 OFFCURVE",
"501 118 CURVE SMOOTH",
"551 287 LINE",
"530 251 LINE",
"733 515 LINE",
"696 513 LINE",
"720 469 OFFCURVE",
"747 453 OFFCURVE",
"790 453 CURVE SMOOTH",
"838 453 OFFCURVE",
"884 479 OFFCURVE",
"896 547 CURVE SMOOTH",
"908 617 OFFCURVE",
"863 670 OFFCURVE",
"798 670 CURVE SMOOTH",
"738 670 OFFCURVE",
"693 639 OFFCURVE",
"639 562 CURVE SMOOTH",
"491 351 LINE"
);
}
);
width = 789;
visible = 1;
}
);
rightKerningGroup = Y;
unicode = 0059;
},
{
glyphname = Z;
lastChange = "2015-10-04 15:13:33 +0000";
layers = (
{
anchors = (
{
name = top;
position = "{463, 651}";
}
);
background = {
paths = (
{
closed = 1;
nodes = (
"340 0 LINE",
"551 0 LINE SMOOTH",
"603 0 OFFCURVE",
"619 17 OFFCURVE",
"636 70 CURVE SMOOTH",
"664 159 LINE SMOOTH",
"675 193 OFFCURVE",
"663 214 OFFCURVE",
"625 214 CURVE SMOOTH",
"608 214 LINE SMOOTH",
"571 214 OFFCURVE",
"560 205 OFFCURVE",
"536 176 CURVE SMOOTH",
"499 132 LINE SMOOTH",
"478 107 OFFCURVE",
"466 100 OFFCURVE",
"435 100 CURVE SMOOTH",
"399 100 LINE"
);
},
{
closed = 1;
nodes = (
"472 666 LINE",
"240 666 LINE SMOOTH",
"188 666 OFFCURVE",
"174 650 OFFCURVE",
"156 596 CURVE SMOOTH",
"126 506 LINE SMOOTH",
"115 472 OFFCURVE",
"127 452 OFFCURVE",
"165 452 CURVE SMOOTH",
"182 452 LINE SMOOTH",
"218 452 OFFCURVE",
"230 460 OFFCURVE",
"254 490 CURVE SMOOTH",
"292 534 LINE SMOOTH",
"312 559 OFFCURVE",
"331 566 OFFCURVE",
"362 566 CURVE SMOOTH",
"397 566 LINE"
);
}
);
};
layerId = "FF8CB9F1-2B98-444C-A502-96421F2531A8";
name = "Bold Italic";
paths = (
{
closed = 1;
nodes = (
"267 96 LINE",
"281 68 LINE",
"743 529 LINE SMOOTH",
"809 595 OFFCURVE",
"781 666 OFFCURVE",
"707 666 CURVE SMOOTH",
"247 666 LINE SMOOTH",
"193 666 OFFCURVE",
"169 648 OFFCURVE",
"154 598 CURVE SMOOTH",
"125 497 LINE SMOOTH",
"113 454 OFFCURVE",
"141 438 OFFCURVE",
"172 438 CURVE SMOOTH",
"202 438 OFFCURVE",
"218 449 OFFCURVE",
"238 470 CURVE SMOOTH",
"298 536 LINE SMOOTH",
"321 561 OFFCURVE",
"337 570 OFFCURVE",
"363 570 CURVE SMOOTH",
"497 570 LINE",
"483 599 LINE",
"49 140 LINE SMOOTH",
"21 111 OFFCURVE",
"8 88 OFFCURVE",
"9 62 CURVE SMOOTH",
"10 25 OFFCURVE",
"37 0 OFFCURVE",
"95 0 CURVE",
"543 0 LINE SMOOTH",
"597 0 OFFCURVE",
"621 18 OFFCURVE",
"636 68 CURVE SMOOTH",
"665 169 LINE SMOOTH",
"677 212 OFFCURVE",
"649 228 OFFCURVE",
"618 228 CURVE SMOOTH",
"588 228 OFFCURVE",
"572 217 OFFCURVE",
"552 196 CURVE SMOOTH",
"492 130 LINE SMOOTH",
"469 105 OFFCURVE",
"452 96 OFFCURVE",
"427 96 CURVE SMOOTH"
);
}
);
width = 734;
}
);
leftKerningGroup = Z;
rightKerningGroup = Z;
unicode = 005A;
},
{
glyphname = a;
lastChange = "2015-10-05 13:37:55 +0000";
layers = (
{
anchors = (
{
name = bottom;
position = "{267, 0}";
},
{
name = ogonek;
position = "{456, 0}";
},
{
name = top;
position = "{391, 500}";
}
);
background = {
paths = (
{
closed = 1;
nodes = (
"860 403 LINE SMOOTH",
"937 655 OFFCURVE",
"766 755 OFFCURVE",
"522 755 CURVE SMOOTH",
"287 755 OFFCURVE",
"195 674 OFFCURVE",
"195 588 CURVE SMOOTH",
"195 531 OFFCURVE",
"245 483 OFFCURVE",
"342 483 CURVE SMOOTH",
"470 483 OFFCURVE",
"518 580 OFFCURVE",
"490 660 CURVE",
"551 660 OFFCURVE",
"578 637 OFFCURVE",
"578 591 CURVE SMOOTH",
"578 567 OFFCURVE",
"571 536 OFFCURVE",
"557 499 CURVE SMOOTH",
"521 404 LINE",
"455 425 OFFCURVE",
"404 442 OFFCURVE",
"311 442 CURVE SMOOTH",
"156 442 OFFCURVE",
"23 360 OFFCURVE",
"23 194 CURVE SMOOTH",
"23 77 OFFCURVE",
"120 -4 OFFCURVE",
"247 -4 CURVE SMOOTH",
"337 -4 OFFCURVE",
"393 35 OFFCURVE",
"452 103 CURVE",
"477 31 OFFCURVE",
"554 -4 OFFCURVE",
"651 -4 CURVE SMOOTH",
"777 -4 OFFCURVE",
"877 88 OFFCURVE",
"877 166 CURVE SMOOTH",
"877 182 OFFCURVE",
"871 198 OFFCURVE",
"861 198 CURVE SMOOTH",
"850 198 OFFCURVE",
"842 168 OFFCURVE",
"815 168 CURVE SMOOTH",
"799 168 OFFCURVE",
"792 183 OFFCURVE",
"799 206 CURVE SMOOTH"
);
},
{
closed = 1;
nodes = (
"459 241 LINE SMOOTH",
"442 197 OFFCURVE",
"428 181 OFFCURVE",
"409 181 CURVE SMOOTH",
"338 181 OFFCURVE",
"365 330 OFFCURVE",
"460 330 CURVE SMOOTH",
"471 330 OFFCURVE",
"481 329 OFFCURVE",
"491 326 CURVE"
);
}
);
};
layerId = "FF8CB9F1-2B98-444C-A502-96421F2531A8";
name = "Bold Italic";
paths = (
{
closed = 1;
nodes = (
"193 529 OFFCURVE",
"129 472 OFFCURVE",
"130 412 CURVE SMOOTH",
"131 372 OFFCURVE",
"166 338 OFFCURVE",
"234 338 CURVE SMOOTH",
"324 338 OFFCURVE",
"356 406 OFFCURVE",
"336 462 CURVE",
"378 462 OFFCURVE",
"397 446 OFFCURVE",
"398 414 CURVE SMOOTH",
"398 397 OFFCURVE",
"393 375 OFFCURVE",
"385 349 CURVE SMOOTH",
"360 283 LINE",
"314 298 OFFCURVE",
"262 309 OFFCURVE",
"197 309 CURVE SMOOTH",
"104 309 OFFCURVE",
"22 267 OFFCURVE",
"0 170 CURVE SMOOTH",
"-17 95 OFFCURVE",
"29 -3 OFFCURVE",
"157 -3 CURVE SMOOTH",
"220 -3 OFFCURVE",
"276 25 OFFCURVE",
"316 72 CURVE",
"335 22 OFFCURVE",
"388 -3 OFFCURVE",
"456 -3 CURVE SMOOTH",
"545 -3 OFFCURVE",
"614 62 OFFCURVE",
"613 116 CURVE SMOOTH",
"613 127 OFFCURVE",
"608 139 OFFCURVE",
"601 139 CURVE SMOOTH",
"594 139 OFFCURVE",
"588 118 OFFCURVE",
"569 118 CURVE SMOOTH",
"558 118 OFFCURVE",
"553 128 OFFCURVE",
"557 144 CURVE SMOOTH",
"598 282 LINE SMOOTH",
"649 458 OFFCURVE",
"528 529 OFFCURVE",
"357 529 CURVE SMOOTH"
);
},
{
closed = 1;
nodes = (
"309 226 OFFCURVE",
"328 225 OFFCURVE",
"339 223 CURVE",
"318 164 LINE SMOOTH",
"307 133 OFFCURVE",
"281 122 OFFCURVE",
"267 122 CURVE SMOOTH",
"243 122 OFFCURVE",
"234 147 OFFCURVE",
"240 173 CURVE SMOOTH",
"247 200 OFFCURVE",
"268 226 OFFCURVE",
"301 226 CURVE SMOOTH"
);
}
);
width = 654;
},
{
associatedMasterId = "FF8CB9F1-2B98-444C-A502-96421F2531A8";
background = {
paths = (
{
closed = 1;
nodes = (
"377 755 OFFCURVE",
"249 669 OFFCURVE",
"249 619 CURVE SMOOTH",
"249 597 OFFCURVE",
"264 586 OFFCURVE",
"291 586 CURVE SMOOTH",
"333 586 OFFCURVE",
"377 605 OFFCURVE",
"429 605 CURVE SMOOTH",
"510 605 OFFCURVE",
"538 561 OFFCURVE",
"515 499 CURVE SMOOTH",
"429 271 LINE SMOOTH",
"412 227 OFFCURVE",
"402 189 OFFCURVE",
"402 156 CURVE SMOOTH",
"402 49 OFFCURVE",
"490 -4 OFFCURVE",
"609 -4 CURVE SMOOTH",
"735 -4 OFFCURVE",
"835 88 OFFCURVE",
"835 166 CURVE SMOOTH",
"835 182 OFFCURVE",
"829 198 OFFCURVE",
"819 198 CURVE SMOOTH",
"808 198 OFFCURVE",
"800 168 OFFCURVE",
"773 168 CURVE SMOOTH",
"757 168 OFFCURVE",
"750 183 OFFCURVE",
"757 206 CURVE SMOOTH",
"837 467 LINE SMOOTH",
"895 655 OFFCURVE",
"767 755 OFFCURVE",
"567 755 CURVE SMOOTH"
);
},
{
closed = 1;
nodes = (
"445 482 OFFCURVE",
"393 502 OFFCURVE",
"292 502 CURVE SMOOTH",
"125 502 OFFCURVE",
"-19 378 OFFCURVE",
"-19 194 CURVE SMOOTH",
"-19 77 OFFCURVE",
"78 -4 OFFCURVE",
"191 -4 CURVE SMOOTH",
"291 -4 OFFCURVE",
"377 50 OFFCURVE",
"441 142 CURVE",
"418 193 LINE",
"373 175 OFFCURVE",
"331 184 OFFCURVE",
"331 259 CURVE SMOOTH",
"331 320 OFFCURVE",
"385 390 OFFCURVE",
"441 390 CURVE SMOOTH",
"456 390 OFFCURVE",
"470 388 OFFCURVE",
"486 381 CURVE",
"519 458 LINE"
);
}
);
};
layerId = "BB191146-D8CF-45BA-B624-8553F2C7C435";
name = "Bold Jun 26 15, 13:34";
paths = (
{
closed = 1;
nodes = (
"837 467 LINE SMOOTH",
"895 655 OFFCURVE",
"767 755 OFFCURVE",
"567 755 CURVE SMOOTH",
"377 755 OFFCURVE",
"249 669 OFFCURVE",
"249 619 CURVE SMOOTH",
"249 597 OFFCURVE",
"264 586 OFFCURVE",
"291 586 CURVE SMOOTH",
"333 586 OFFCURVE",
"377 605 OFFCURVE",
"429 605 CURVE SMOOTH",
"510 605 OFFCURVE",
"538 561 OFFCURVE",
"515 499 CURVE SMOOTH",
"502 464 LINE",
"436 485 OFFCURVE",
"385 502 OFFCURVE",
"292 502 CURVE SMOOTH",
"125 502 OFFCURVE",
"-19 378 OFFCURVE",
"-19 194 CURVE SMOOTH",
"-19 77 OFFCURVE",
"96 -4 OFFCURVE",
"209 -4 CURVE SMOOTH",
"295 -4 OFFCURVE",
"351 35 OFFCURVE",
"410 103 CURVE",
"435 31 OFFCURVE",
"512 -4 OFFCURVE",
"609 -4 CURVE SMOOTH",
"735 -4 OFFCURVE",
"835 88 OFFCURVE",
"835 166 CURVE SMOOTH",
"835 182 OFFCURVE",
"829 198 OFFCURVE",
"819 198 CURVE SMOOTH",
"808 198 OFFCURVE",
"800 168 OFFCURVE",
"773 168 CURVE SMOOTH",
"757 168 OFFCURVE",
"750 183 OFFCURVE",
"757 206 CURVE SMOOTH"
);
},
{
closed = 1;
nodes = (
"417 241 LINE SMOOTH",
"400 197 OFFCURVE",
"386 181 OFFCURVE",
"367 181 CURVE SMOOTH",
"296 181 OFFCURVE",
"346 390 OFFCURVE",
"441 390 CURVE SMOOTH",
"452 390 OFFCURVE",
"462 389 OFFCURVE",
"472 386 CURVE"
);
}
);
width = 901;
}
);
leftKerningGroup = a;
rightKerningGroup = a;
unicode = 0061;
},
{
glyphname = ae;
lastChange = "2015-10-04 15:13:33 +0000";
layers = (
{
background = {
paths = (
{
closed = 1;
nodes = (
"628 534 OFFCURVE",
"572 522 OFFCURVE",
"525 498 CURVE",
"481 519 OFFCURVE",
"425 529 OFFCURVE",
"361 529 CURVE SMOOTH",
"197 529 OFFCURVE",
"133 472 OFFCURVE",
"134 412 CURVE SMOOTH",
"135 372 OFFCURVE",
"170 338 OFFCURVE",
"238 338 CURVE SMOOTH",
"328 338 OFFCURVE",
"360 406 OFFCURVE",
"340 462 CURVE",
"382 462 OFFCURVE",
"401 446 OFFCURVE",
"402 414 CURVE SMOOTH",
"402 397 OFFCURVE",
"397 370 OFFCURVE",
"386 340 CURVE SMOOTH",
"364 283 LINE",
"324 297 OFFCURVE",
"270 309 OFFCURVE",
"201 309 CURVE SMOOTH",
"108 309 OFFCURVE",
"26 267 OFFCURVE",
"4 170 CURVE SMOOTH",
"-13 95 OFFCURVE",
"33 -3 OFFCURVE",
"211 -3 CURVE SMOOTH",
"290 -3 OFFCURVE",
"358 23 OFFCURVE",
"414 64 CURVE",
"449 22 OFFCURVE",
"513 -3 OFFCURVE",
"608 -3 CURVE SMOOTH",
"778 -3 OFFCURVE",
"853 99 OFFCURVE",
"852 163 CURVE SMOOTH",
"852 173 OFFCURVE",
"848 176 OFFCURVE",
"841 176 CURVE SMOOTH",
"820 176 OFFCURVE",
"760 144 OFFCURVE",
"701 144 CURVE SMOOTH",
"639 144 OFFCURVE",
"591 164 OFFCURVE",
"592 238 CURVE",
"710 221 OFFCURVE",
"897 232 OFFCURVE",
"925 355 CURVE SMOOTH",
"944 440 OFFCURVE",
"900 534 OFFCURVE",
"688 534 CURVE SMOOTH"
);
},
{
closed = 1;
nodes = (
"620 401 OFFCURVE",
"659 451 OFFCURVE",
"679 451 CURVE SMOOTH",
"688 451 OFFCURVE",
"694 442 OFFCURVE",
"695 423 CURVE",
"696 363 OFFCURVE",
"667 289 OFFCURVE",
"599 298 CURVE"
);
},
{
closed = 1;
nodes = (
"238 97 OFFCURVE",
"229 122 OFFCURVE",
"241 164 CURVE SMOOTH",
"251 200 OFFCURVE",
"272 226 OFFCURVE",
"305 226 CURVE SMOOTH",
"317 226 OFFCURVE",
"330 225 OFFCURVE",
"342 223 CURVE",
"315 146 LINE SMOOTH",
"301 107 OFFCURVE",
"285 97 OFFCURVE",
"267 97 CURVE SMOOTH"
);
}
);
};
layerId = "FF8CB9F1-2B98-444C-A502-96421F2531A8";
name = "Bold Italic";
paths = (
{
closed = 1;
nodes = (
"628 534 OFFCURVE",
"572 522 OFFCURVE",
"525 498 CURVE",
"481 519 OFFCURVE",
"425 529 OFFCURVE",
"361 529 CURVE SMOOTH",
"197 529 OFFCURVE",
"133 472 OFFCURVE",
"134 412 CURVE SMOOTH",
"135 372 OFFCURVE",
"170 338 OFFCURVE",
"238 338 CURVE SMOOTH",
"328 338 OFFCURVE",
"360 406 OFFCURVE",
"340 462 CURVE",
"382 462 OFFCURVE",
"401 446 OFFCURVE",
"402 414 CURVE SMOOTH",
"402 397 OFFCURVE",
"397 370 OFFCURVE",
"386 340 CURVE SMOOTH",
"364 283 LINE",
"324 297 OFFCURVE",
"270 309 OFFCURVE",
"201 309 CURVE SMOOTH",
"108 309 OFFCURVE",
"26 267 OFFCURVE",
"4 170 CURVE SMOOTH",
"-13 95 OFFCURVE",
"33 -3 OFFCURVE",
"211 -3 CURVE SMOOTH",
"290 -3 OFFCURVE",
"358 23 OFFCURVE",
"414 64 CURVE",
"449 22 OFFCURVE",
"513 -3 OFFCURVE",
"608 -3 CURVE SMOOTH",
"778 -3 OFFCURVE",
"853 99 OFFCURVE",
"852 163 CURVE SMOOTH",
"852 173 OFFCURVE",
"848 176 OFFCURVE",
"841 176 CURVE SMOOTH",
"820 176 OFFCURVE",
"760 144 OFFCURVE",
"701 144 CURVE SMOOTH",
"639 144 OFFCURVE",
"591 164 OFFCURVE",
"592 238 CURVE",
"710 221 OFFCURVE",
"897 232 OFFCURVE",
"925 355 CURVE SMOOTH",
"944 440 OFFCURVE",
"900 534 OFFCURVE",
"688 534 CURVE SMOOTH"
);
},
{
closed = 1;
nodes = (
"620 401 OFFCURVE",
"659 451 OFFCURVE",
"679 451 CURVE SMOOTH",
"688 451 OFFCURVE",
"694 442 OFFCURVE",
"695 423 CURVE",
"696 363 OFFCURVE",
"667 289 OFFCURVE",
"599 298 CURVE"
);
},
{
closed = 1;
nodes = (
"238 95 OFFCURVE",
"228 125 OFFCURVE",
"242 168 CURVE SMOOTH",
"255 208 OFFCURVE",
"275 226 OFFCURVE",
"305 226 CURVE SMOOTH",
"317 226 OFFCURVE",
"331 224 OFFCURVE",
"341 220 CURVE",
"310 131 LINE SMOOTH",
"300 107 OFFCURVE",
"286 95 OFFCURVE",
"268 95 CURVE SMOOTH"
);
}
);
width = 914;
}
);
leftKerningGroup = a;
leftMetricsKey = a;
rightMetricsKey = e;
unicode = 00E6;
},
{
glyphname = b;
lastChange = "2015-10-05 14:03:27 +0000";
layers = (
{
background = {
paths = (
{
closed = 1;
nodes = (
"426 533 OFFCURVE",
"366 487 OFFCURVE",
"317 407 CURVE",
"342 384 LINE",
"356 405 OFFCURVE",
"375 414 OFFCURVE",
"390 414 CURVE SMOOTH",
"415 414 OFFCURVE",
"433 384 OFFCURVE",
"397 258 CURVE SMOOTH",
"359 121 OFFCURVE",
"331 92 OFFCURVE",
"302 92 CURVE SMOOTH",
"277 92 OFFCURVE",
"259 110 OFFCURVE",
"274 158 CURVE",
"186 113 LINE",
"211 39 OFFCURVE",
"272 -9 OFFCURVE",
"374 -9 CURVE SMOOTH",
"502 -9 OFFCURVE",
"617 73 OFFCURVE",
"662 252 CURVE SMOOTH",
"702 414 OFFCURVE",
"632 533 OFFCURVE",
"510 533 CURVE SMOOTH"
);
},
{
closed = 1;
nodes = (
"408 592 LINE SMOOTH",
"428 659 OFFCURVE",
"406 717 OFFCURVE",
"302 717 CURVE SMOOTH",
"222 717 OFFCURVE",
"129 691 OFFCURVE",
"120 659 CURVE SMOOTH",
"112 627 OFFCURVE",
"168 631 OFFCURVE",
"153 583 CURVE SMOOTH",
"-7 62 LINE SMOOTH",
"-18 23 OFFCURVE",
"1 0 OFFCURVE",
"42 0 CURVE SMOOTH",
"86 0 LINE SMOOTH",
"123 0 OFFCURVE",
"147 13 OFFCURVE",
"173 35 CURVE SMOOTH",
"236 89 LINE SMOOTH",
"245 97 OFFCURVE",
"263 120 OFFCURVE",
"280 177 CURVE SMOOTH"
);
}
);
};
guideLines = (
{
position = "{246, 375}";
showMeasurement = 1;
}
);
layerId = "FF8CB9F1-2B98-444C-A502-96421F2531A8";
name = "Bold Italic";
paths = (
{
closed = 1;
nodes = (
"426 533 OFFCURVE",
"366 487 OFFCURVE",
"317 407 CURVE",
"342 384 LINE",
"356 405 OFFCURVE",
"375 414 OFFCURVE",
"390 414 CURVE SMOOTH",
"415 414 OFFCURVE",
"433 384 OFFCURVE",
"397 258 CURVE SMOOTH",
"359 121 OFFCURVE",
"331 92 OFFCURVE",
"302 92 CURVE SMOOTH",
"277 92 OFFCURVE",
"259 110 OFFCURVE",
"274 158 CURVE",
"186 113 LINE",
"211 39 OFFCURVE",
"272 -9 OFFCURVE",
"374 -9 CURVE SMOOTH",
"502 -9 OFFCURVE",
"617 73 OFFCURVE",
"662 252 CURVE SMOOTH",
"702 414 OFFCURVE",
"632 533 OFFCURVE",
"510 533 CURVE SMOOTH"
);
},
{
closed = 1;
nodes = (
"415 614 LINE SMOOTH",
"436 681 OFFCURVE",
"413 739 OFFCURVE",
"309 739 CURVE SMOOTH",
"229 739 OFFCURVE",
"136 713 OFFCURVE",
"127 681 CURVE SMOOTH",
"119 649 OFFCURVE",
"175 653 OFFCURVE",
"160 605 CURVE SMOOTH",
"-7 62 LINE SMOOTH",
"-19 23 OFFCURVE",
"1 0 OFFCURVE",
"42 0 CURVE SMOOTH",
"86 0 LINE SMOOTH",
"123 0 OFFCURVE",
"147 13 OFFCURVE",
"173 35 CURVE SMOOTH",
"236 89 LINE SMOOTH",
"245 97 OFFCURVE",
"262 120 OFFCURVE",
"280 177 CURVE SMOOTH"
);
}
);
width = 677;
}
);
rightMetricsKey = o;
unicode = 0062;
},
{
glyphname = c;
lastChange = "2015-10-05 14:26:42 +0000";
layers = (
{
anchors = (
{
name = bottom;
position = "{283, 0}";
},
{
name = top;
position = "{347, 500}";
}
);
background = {
paths = (
{
closed = 1;
nodes = (
"55 443 CURVE SMOOTH",
"-23 156 OFFCURVE",
"123 -4 OFFCURVE",
"357 -4 CURVE SMOOTH",
"543 -4 OFFCURVE",
"698 102 OFFCURVE",
"707 233 CURVE SMOOTH",
"708 247 OFFCURVE",
"703 252 OFFCURVE",
"692 252 CURVE SMOOTH",
"662 252 OFFCURVE",
"637 203 OFFCURVE",
"505 203 CURVE SMOOTH",
"428 203 OFFCURVE",
"343 277 OFFCURVE",
"394 421 CURVE SMOOTH",
"427 514 OFFCURVE",
"502 573 OFFCURVE",
"576 573 CURVE SMOOTH",
"679 573 OFFCURVE",
"716 507 OFFCURVE",
"746 507 CURVE SMOOTH",
"757 507 OFFCURVE",
"763 512 OFFCURVE",
"766 526 CURVE SMOOTH",
"791 657 OFFCURVE",
"664 763 OFFCURVE",
"478 763 CURVE SMOOTH",
"268 763 OFFCURVE",
"112 652 OFFCURVE"
);
}
);
};
layerId = "FF8CB9F1-2B98-444C-A502-96421F2531A8";
name = "Bold Italic";
paths = (
{
closed = 1;
nodes = (
"203 534 OFFCURVE",
"62 456 OFFCURVE",
"24 284 CURVE SMOOTH",
"-15 109 OFFCURVE",
"92 -3 OFFCURVE",
"260 -3 CURVE SMOOTH",
"405 -3 OFFCURVE",
"503 98 OFFCURVE",
"502 170 CURVE SMOOTH",
"502 180 OFFCURVE",
"500 183 OFFCURVE",
"492 183 CURVE SMOOTH",
"471 183 OFFCURVE",
"434 149 OFFCURVE",
"361 149 CURVE SMOOTH",
"271 149 OFFCURVE",
"227 204 OFFCURVE",
"251 313 CURVE SMOOTH",
"267 388 OFFCURVE",
"317 428 OFFCURVE",
"369 442 CURVE",
"347 363 OFFCURVE",
"385 309 OFFCURVE",
"465 309 CURVE SMOOTH",
"530 309 OFFCURVE",
"568 350 OFFCURVE",
"567 403 CURVE SMOOTH",
"566 477 OFFCURVE",
"486 534 OFFCURVE",
"363 534 CURVE SMOOTH"
);
}
);
width = 542;
}
);
leftKerningGroup = o;
leftMetricsKey = o;
rightKerningGroup = c;
unicode = 0063;
},
{
glyphname = d;
lastChange = "2015-10-05 13:22:00 +0000";
layers = (
{
anchors = (
{
name = right;
position = "{740, 739}";
}
);
background = {
paths = (
{
closed = 1;
nodes = (
"696 594 LINE SMOOTH",
"716 663 OFFCURVE",
"694 719 OFFCURVE",
"590 719 CURVE SMOOTH",
"510 719 OFFCURVE",
"416 693 OFFCURVE",
"408 662 CURVE SMOOTH",
"400 629 OFFCURVE",
"455 634 OFFCURVE",
"441 585 CURVE SMOOTH",
"413 493 LINE",
"382 518 OFFCURVE",
"344 533 OFFCURVE",
"284 533 CURVE SMOOTH",
"119 533 OFFCURVE",
"9 357 OFFCURVE",
"12 175 CURVE SMOOTH",
"14 67 OFFCURVE",
"95 -3 OFFCURVE",
"184 -3 CURVE SMOOTH",
"235 -3 OFFCURVE",
"283 19 OFFCURVE",
"320 66 CURVE",
"338 25 OFFCURVE",
"391 -3 OFFCURVE",
"458 -3 CURVE SMOOTH",
"546 -3 OFFCURVE",
"615 62 OFFCURVE",
"614 116 CURVE SMOOTH",
"614 127 OFFCURVE",
"610 139 OFFCURVE",
"603 139 CURVE SMOOTH",
"595 139 OFFCURVE",
"590 118 OFFCURVE",
"571 118 CURVE SMOOTH",
"560 118 OFFCURVE",
"555 128 OFFCURVE",
"559 144 CURVE SMOOTH"
);
},
{
closed = 1;
nodes = (
"314 172 LINE SMOOTH",
"305 140 OFFCURVE",
"293 127 OFFCURVE",
"275 127 CURVE SMOOTH",
"250 127 OFFCURVE",
"239 146 OFFCURVE",
"239 182 CURVE SMOOTH",
"237 279 OFFCURVE",
"298 439 OFFCURVE",
"360 439 CURVE SMOOTH",
"376 439 OFFCURVE",
"381 433 OFFCURVE",
"391 423 CURVE"
);
}
);
};
layerId = "FF8CB9F1-2B98-444C-A502-96421F2531A8";
name = "Bold Italic";
paths = (
{
closed = 1;
nodes = (
"702 614 LINE SMOOTH",
"723 683 OFFCURVE",
"700 739 OFFCURVE",
"596 739 CURVE SMOOTH",
"516 739 OFFCURVE",
"422 713 OFFCURVE",
"414 682 CURVE SMOOTH",
"406 649 OFFCURVE",
"462 653 OFFCURVE",
"447 605 CURVE SMOOTH",
"413 493 LINE",
"382 518 OFFCURVE",
"344 533 OFFCURVE",
"284 533 CURVE SMOOTH",
"119 533 OFFCURVE",
"9 357 OFFCURVE",
"12 175 CURVE SMOOTH",
"14 67 OFFCURVE",
"95 -3 OFFCURVE",
"184 -3 CURVE SMOOTH",
"235 -3 OFFCURVE",
"283 19 OFFCURVE",
"320 66 CURVE",
"338 25 OFFCURVE",
"391 -3 OFFCURVE",
"458 -3 CURVE SMOOTH",
"546 -3 OFFCURVE",
"615 62 OFFCURVE",
"614 116 CURVE SMOOTH",
"614 127 OFFCURVE",
"610 139 OFFCURVE",
"603 139 CURVE SMOOTH",
"595 139 OFFCURVE",
"590 118 OFFCURVE",
"571 118 CURVE SMOOTH",
"560 118 OFFCURVE",
"554 128 OFFCURVE",
"559 144 CURVE SMOOTH"
);
},
{
closed = 1;
nodes = (
"314 172 LINE SMOOTH",
"304 140 OFFCURVE",
"293 127 OFFCURVE",
"275 127 CURVE SMOOTH",
"250 127 OFFCURVE",
"239 146 OFFCURVE",
"239 182 CURVE SMOOTH",
"237 279 OFFCURVE",
"295 439 OFFCURVE",
"357 439 CURVE SMOOTH",
"371 439 OFFCURVE",
"382 434 OFFCURVE",
"392 425 CURVE"
);
}
);
width = 655;
},
{
associatedMasterId = "FF8CB9F1-2B98-444C-A502-96421F2531A8";
background = {
paths = (
{
closed = 1;
nodes = (
"979 830 LINE SMOOTH",
"1015 949 OFFCURVE",
"925 1052 OFFCURVE",
"757 1052 CURVE SMOOTH",
"692 1052 OFFCURVE",
"660 1037 OFFCURVE",
"660 1018 CURVE SMOOTH",
"660 995 OFFCURVE",
"688 976 OFFCURVE",
"671 923 CURVE SMOOTH",
"599.867 704.233 LINE",
"556 740 OFFCURVE",
"499 762 OFFCURVE",
"416 762 CURVE SMOOTH",
"191 762 OFFCURVE",
"9 530 OFFCURVE",
"9 250 CURVE SMOOTH",
"9 86 OFFCURVE",
"133 -4 OFFCURVE",
"247 -4 CURVE SMOOTH",
"333 -4 OFFCURVE",
"389 27 OFFCURVE",
"443 94 CURVE",
"467 36 OFFCURVE",
"542.973 -4 OFFCURVE",
"639 -4 CURVE SMOOTH",
"765 -4 OFFCURVE",
"865 88 OFFCURVE",
"865 166 CURVE SMOOTH",
"865 182 OFFCURVE",
"859 198 OFFCURVE",
"849 198 CURVE SMOOTH",
"838 198 OFFCURVE",
"830 168 OFFCURVE",
"803 168 CURVE SMOOTH",
"787 168 OFFCURVE",
"780 183 OFFCURVE",
"787 206 CURVE SMOOTH"
);
},
{
closed = 1;
nodes = (
"451 246 LINE SMOOTH",
"436 200 OFFCURVE",
"419 182 OFFCURVE",
"393 182 CURVE SMOOTH",
"358 182 OFFCURVE",
"333 208 OFFCURVE",
"333 260 CURVE SMOOTH",
"333 399 OFFCURVE",
"425 627 OFFCURVE",
"513 627 CURVE SMOOTH",
"536 627 OFFCURVE",
"553 618 OFFCURVE",
"567 604 CURVE"
);
}
);
};
layerId = "8E0D416A-7E92-4A18-8E7E-F46A9615C67B";
name = "Bold Italic Jul 27 15, 14:59";
paths = (
{
closed = 1;
nodes = (
"692 1052 OFFCURVE",
"660 1037 OFFCURVE",
"660 1018 CURVE SMOOTH",
"660 995 OFFCURVE",
"688 976 OFFCURVE",
"671 923 CURVE SMOOTH",
"599.867 704.233 LINE",
"556 740 OFFCURVE",
"502 762 OFFCURVE",
"416 762 CURVE SMOOTH",
"181 762 OFFCURVE",
"19 510 OFFCURVE",
"19 250 CURVE SMOOTH",
"19 96 OFFCURVE",
"133 -4 OFFCURVE",
"260 -4 CURVE SMOOTH",
"333 -4 OFFCURVE",
"389 27 OFFCURVE",
"443 94 CURVE",
"467 36 OFFCURVE",
"542.973 -4 OFFCURVE",
"639 -4 CURVE SMOOTH",
"765 -4 OFFCURVE",
"865 88 OFFCURVE",
"865 166 CURVE SMOOTH",
"865 182 OFFCURVE",
"859 198 OFFCURVE",
"849 198 CURVE SMOOTH",
"838 198 OFFCURVE",
"830 168 OFFCURVE",
"803 168 CURVE SMOOTH",
"787 168 OFFCURVE",
"780 183 OFFCURVE",
"787 206 CURVE SMOOTH",
"979 830 LINE SMOOTH",
"1015 949 OFFCURVE",
"925 1052 OFFCURVE",
"757 1052 CURVE SMOOTH"
);
},
{
closed = 1;
nodes = (
"546 627 OFFCURVE",
"553 618 OFFCURVE",
"567 604 CURVE",
"451 246 LINE SMOOTH",
"436 200 OFFCURVE",
"419 182 OFFCURVE",
"393 182 CURVE SMOOTH",
"358 182 OFFCURVE",
"343 208 OFFCURVE",
"343 260 CURVE SMOOTH",
"343 399 OFFCURVE",
"435 627 OFFCURVE",
"523 627 CURVE SMOOTH"
);
}
);
width = 933;
}
);
leftKerningGroup = o;
leftMetricsKey = o;
rightKerningGroup = d;
unicode = 0064;
},
{
glyphname = eth;
lastChange = "2015-10-04 15:13:33 +0000";
layers = (
{
background = {
paths = (
{
closed = 1;
nodes = (
"266 78 OFFCURVE",
"245 94 OFFCURVE",
"292 246 CURVE SMOOTH",
"334 384 OFFCURVE",
"362 410 OFFCURVE",
"386 410 CURVE SMOOTH",
"411 410 OFFCURVE",
"431 391 OFFCURVE",
"386 247 CURVE SMOOTH",
"341 101 OFFCURVE",
"315 76 OFFCURVE",
"291 78 CURVE SMOOTH"
);
},
{
closed = 1;
nodes = (
"368 739 OFFCURVE",
"357 733 OFFCURVE",
"355 722 CURVE SMOOTH",
"348 690 OFFCURVE",
"477 620 OFFCURVE",
"475 471 CURVE",
"440 488 OFFCURVE",
"399 497 OFFCURVE",
"352 497 CURVE SMOOTH",
"186 497 OFFCURVE",
"64 400 OFFCURVE",
"31 263 CURVE SMOOTH",
"-3 116 OFFCURVE",
"64 -9 OFFCURVE",
"295 -9 CURVE SMOOTH",
"473 -9 OFFCURVE",
"614 99 OFFCURVE",
"655 257 CURVE SMOOTH",
"711 475 OFFCURVE",
"564 739 OFFCURVE",
"388 739 CURVE SMOOTH"
);
},
{
closed = 1;
nodes = (
"678 647 OFFCURVE",
"654 665 OFFCURVE",
"609 659 CURVE SMOOTH",
"364 627 LINE SMOOTH",
"321 621 OFFCURVE",
"306 609 OFFCURVE",
"306 580 CURVE SMOOTH",
"309 551 OFFCURVE",
"329 533 OFFCURVE",
"381 539 CURVE SMOOTH",
"626 570 LINE SMOOTH",
"667 575 OFFCURVE",
"688 589 OFFCURVE",
"683 618 CURVE SMOOTH"
);
}
);
};
guideLines = (
{
angle = 180;
position = "{370, 410}";
}
);
layerId = "FF8CB9F1-2B98-444C-A502-96421F2531A8";
name = "Bold Italic";
paths = (
{
closed = 1;
nodes = (
"266 78 OFFCURVE",
"245 94 OFFCURVE",
"292 246 CURVE SMOOTH",
"334 384 OFFCURVE",
"362 410 OFFCURVE",
"386 410 CURVE SMOOTH",
"411 410 OFFCURVE",
"431 391 OFFCURVE",
"386 247 CURVE SMOOTH",
"341 101 OFFCURVE",
"315 76 OFFCURVE",
"291 78 CURVE SMOOTH"
);
},
{
closed = 1;
nodes = (
"368 739 OFFCURVE",
"357 733 OFFCURVE",
"355 722 CURVE SMOOTH",
"348 690 OFFCURVE",
"477 620 OFFCURVE",
"475 471 CURVE",
"440 488 OFFCURVE",
"399 497 OFFCURVE",
"352 497 CURVE SMOOTH",
"186 497 OFFCURVE",
"64 400 OFFCURVE",
"31 263 CURVE SMOOTH",
"-3 116 OFFCURVE",
"64 -9 OFFCURVE",
"295 -9 CURVE SMOOTH",
"473 -9 OFFCURVE",
"614 99 OFFCURVE",
"655 257 CURVE SMOOTH",
"711 475 OFFCURVE",
"554 739 OFFCURVE",
"388 739 CURVE SMOOTH"
);
},
{
closed = 1;
nodes = (
"678 652 OFFCURVE",
"654 665 OFFCURVE",
"609 659 CURVE SMOOTH",
"364 627 LINE SMOOTH",
"321 621 OFFCURVE",
"304 609 OFFCURVE",
"306 580 CURVE SMOOTH",
"308 555 OFFCURVE",
"329 539 OFFCURVE",
"381 545 CURVE SMOOTH",
"626 576 LINE SMOOTH",
"667 581 OFFCURVE",
"688 597 OFFCURVE",
"683 625 CURVE SMOOTH"
);
}
);
width = 682;
}
);
unicode = 00F0;
},
{
glyphname = dcroat;
lastChange = "2015-10-04 15:13:33 +0000";
layers = (
{
background = {
paths = (
{
closed = 1;
nodes = (
"364 581 OFFCURVE",
"378 563 OFFCURVE",
"411 564 CURVE SMOOTH",
"763 575 LINE SMOOTH",
"797 576 OFFCURVE",
"817 592 OFFCURVE",
"826 621 CURVE SMOOTH",
"833 650 OFFCURVE",
"820 668 OFFCURVE",
"786 667 CURVE SMOOTH",
"435 656 LINE SMOOTH",
"402 655 OFFCURVE",
"380 639 OFFCURVE",
"372 610 CURVE SMOOTH"
);
},
{
closed = 1;
nodes = (
"738 614 LINE SMOOTH",
"759 683 OFFCURVE",
"736 739 OFFCURVE",
"632 739 CURVE SMOOTH",
"552 739 OFFCURVE",
"458 713 OFFCURVE",
"450 682 CURVE SMOOTH",
"442 649 OFFCURVE",
"498 653 OFFCURVE",
"483 605 CURVE SMOOTH",
"449 493 LINE",
"418 518 OFFCURVE",
"380 533 OFFCURVE",
"320 533 CURVE SMOOTH",
"155 533 OFFCURVE",
"45 357 OFFCURVE",
"48 175 CURVE SMOOTH",
"50 67 OFFCURVE",
"131 -3 OFFCURVE",
"220 -3 CURVE SMOOTH",
"271 -3 OFFCURVE",
"319 19 OFFCURVE",
"356 66 CURVE",
"374 25 OFFCURVE",
"427 -3 OFFCURVE",
"494 -3 CURVE SMOOTH",
"582 -3 OFFCURVE",
"651 62 OFFCURVE",
"650 116 CURVE SMOOTH",
"650 127 OFFCURVE",
"646 139 OFFCURVE",
"639 139 CURVE SMOOTH",
"631 139 OFFCURVE",
"626 118 OFFCURVE",
"607 118 CURVE SMOOTH",
"596 118 OFFCURVE",
"590 128 OFFCURVE",
"595 144 CURVE SMOOTH"
);
},
{
closed = 1;
nodes = (
"350 172 LINE SMOOTH",
"340 140 OFFCURVE",
"329 127 OFFCURVE",
"311 127 CURVE SMOOTH",
"286 127 OFFCURVE",
"275 146 OFFCURVE",
"275 182 CURVE SMOOTH",
"273 279 OFFCURVE",
"331 439 OFFCURVE",
"393 439 CURVE SMOOTH",
"407 439 OFFCURVE",
"418 434 OFFCURVE",
"428 425 CURVE"
);
}
);
};
layerId = "FF8CB9F1-2B98-444C-A502-96421F2531A8";
name = "Bold Italic";
paths = (
{
closed = 1;
nodes = (
"374 576 OFFCURVE",
"388 559 OFFCURVE",
"421 560 CURVE SMOOTH",
"751 569 LINE SMOOTH",
"785 570 OFFCURVE",
"805 584 OFFCURVE",
"814 611 CURVE SMOOTH",
"821 636 OFFCURVE",
"808 653 OFFCURVE",
"771 652 CURVE SMOOTH",
"445 643 LINE SMOOTH",
"409 642 OFFCURVE",
"390 628 OFFCURVE",
"382 601 CURVE SMOOTH"
);
},
{
closed = 1;
nodes = (
"745 638 LINE SMOOTH",
"763 698 OFFCURVE",
"736 739 OFFCURVE",
"640 739 CURVE SMOOTH",
"548 739 OFFCURVE",
"513 706 OFFCURVE",
"491 632 CURVE SMOOTH",
"449 493 LINE",
"418 518 OFFCURVE",
"380 533 OFFCURVE",
"320 533 CURVE SMOOTH",
"155 533 OFFCURVE",
"45 357 OFFCURVE",
"48 175 CURVE SMOOTH",
"50 67 OFFCURVE",
"131 -3 OFFCURVE",
"220 -3 CURVE SMOOTH",
"271 -3 OFFCURVE",
"319 19 OFFCURVE",
"356 66 CURVE",
"374 25 OFFCURVE",
"427 -3 OFFCURVE",
"494 -3 CURVE SMOOTH",
"582 -3 OFFCURVE",
"651 62 OFFCURVE",
"650 116 CURVE SMOOTH",
"650 127 OFFCURVE",
"646 139 OFFCURVE",
"639 139 CURVE SMOOTH",
"631 139 OFFCURVE",
"626 118 OFFCURVE",
"607 118 CURVE SMOOTH",
"596 118 OFFCURVE",
"590 128 OFFCURVE",
"595 144 CURVE SMOOTH"
);
},
{
closed = 1;
nodes = (
"350 172 LINE SMOOTH",
"340 140 OFFCURVE",
"329 127 OFFCURVE",
"311 127 CURVE SMOOTH",
"286 127 OFFCURVE",
"275 146 OFFCURVE",
"275 182 CURVE SMOOTH",
"273 279 OFFCURVE",
"331 439 OFFCURVE",
"393 439 CURVE SMOOTH",
"407 439 OFFCURVE",
"418 434 OFFCURVE",
"428 425 CURVE"
);
}
);
width = 706;
}
);
leftKerningGroup = o;
rightKerningGroup = d;
unicode = 0111;
},
{
glyphname = e;
lastChange = "2015-10-05 14:42:14 +0000";
layers = (
{
anchors = (
{
name = ogonek;
position = "{312, 0}";
},
{
name = top;
position = "{333, 500}";
}
);
background = {
paths = (
{
closed = 1;
nodes = (
"222 763 OFFCURVE",
"92 594 OFFCURVE",
"51 409 CURVE SMOOTH",
"-12 130 OFFCURVE",
"163 -4 OFFCURVE",
"397 -4 CURVE SMOOTH",
"583 -4 OFFCURVE",
"733 122 OFFCURVE",
"733 233 CURVE SMOOTH",
"733 247 OFFCURVE",
"728 252 OFFCURVE",
"717 252 CURVE SMOOTH",
"687 252 OFFCURVE",
"624 186 OFFCURVE",
"492 186 CURVE SMOOTH",
"398 186 OFFCURVE",
"344 201 OFFCURVE",
"362 339 CURVE SMOOTH",
"391 559 OFFCURVE",
"461 645 OFFCURVE",
"488 645 CURVE SMOOTH",
"506 645 OFFCURVE",
"514 635 OFFCURVE",
"514 612 CURVE SMOOTH",
"514 538 OFFCURVE",
"485 441 OFFCURVE",
"435 438 CURVE SMOOTH",
"418 438 OFFCURVE",
"396 441 OFFCURVE",
"370 446 CURVE",
"348 363 LINE",
"428 349 OFFCURVE",
"519 345 OFFCURVE",
"579 348 CURVE SMOOTH",
"769 357 OFFCURVE",
"854 445 OFFCURVE",
"848 572 CURVE SMOOTH",
"843 676 OFFCURVE",
"751 763 OFFCURVE",
"507 763 CURVE SMOOTH"
);
}
);
};
layerId = "FF8CB9F1-2B98-444C-A502-96421F2531A8";
name = "Bold Italic";
paths = (
{
closed = 1;
nodes = (
"184 534 OFFCURVE",
"58 455 OFFCURVE",
"24 286 CURVE SMOOTH",
"-16 91 OFFCURVE",
"107 -3 OFFCURVE",
"269 -3 CURVE SMOOTH",
"429 -3 OFFCURVE",
"504 99 OFFCURVE",
"503 163 CURVE SMOOTH",
"503 173 OFFCURVE",
"499 176 OFFCURVE",
"492 176 CURVE SMOOTH",
"471 176 OFFCURVE",
"411 144 OFFCURVE",
"352 144 CURVE SMOOTH",
"283 144 OFFCURVE",
"231 169 OFFCURVE",
"245 267 CURVE SMOOTH",
"264 391 OFFCURVE",
"308 451 OFFCURVE",
"330 451 CURVE SMOOTH",
"339 451 OFFCURVE",
"345 442 OFFCURVE",
"346 423 CURVE SMOOTH",
"347 362 OFFCURVE",
"317 287 OFFCURVE",
"247 298 CURVE",
"232 240 LINE",
"349 220 OFFCURVE",
"547 228 OFFCURVE",
"576 355 CURVE SMOOTH",
"595 440 OFFCURVE",
"551 534 OFFCURVE",
"339 534 CURVE SMOOTH"
);
}
);
width = 560;
},
{
associatedMasterId = "FF8CB9F1-2B98-444C-A502-96421F2531A8";
background = {
paths = (
{
closed = 1;
nodes = (
"230 753 OFFCURVE",
"9 554 OFFCURVE",
"9 267 CURVE SMOOTH",
"9 104 OFFCURVE",
"127 -4 OFFCURVE",
"347 -4 CURVE SMOOTH",
"552 -4 OFFCURVE",
"687 103 OFFCURVE",
"687 187 CURVE SMOOTH",
"687 215 OFFCURVE",
"675 267 OFFCURVE",
"670 267 CURVE SMOOTH",
"652 267 OFFCURVE",
"603 218 OFFCURVE",
"522 218 CURVE SMOOTH",
"408 218 OFFCURVE",
"333 221 OFFCURVE",
"333 339 CURVE SMOOTH",
"333 558 OFFCURVE",
"396 635 OFFCURVE",
"434 635 CURVE SMOOTH",
"450 635 OFFCURVE",
"466 626 OFFCURVE",
"466 588 CURVE SMOOTH",
"466 518 OFFCURVE",
"412 455 OFFCURVE",
"314 463 CURVE",
"258 378 LINE",
"593 320 OFFCURVE",
"782 403 OFFCURVE",
"782 562 CURVE SMOOTH",
"782 671 OFFCURVE",
"677 753 OFFCURVE",
"481 753 CURVE SMOOTH"
);
}
);
};
backgroundImage = {
crop = "{{304.54500000000002, 0}, {79.363600000000005, 121}}";
imagePath = "../Dropbox/JP_FREELANCE/2015/Projects/Google Fonts/GoogleWebFonts/shrikhand/Gujarati/shrikhand/Gujarati/Reference/shrikhand_latin_1024.png";
locked = "1";
transform = "{11, 0, 0, 11, -3350, -166}";
};
layerId = "69D1F1FE-9577-4A4E-89A7-7FFA67E84DAE";
name = "Bold Italic Jul 3 15, 14:15";
paths = (
{
closed = 1;
nodes = (
"289 753 OFFCURVE",
"37 554 OFFCURVE",
"0 316 CURVE SMOOTH",
"-33 104 OFFCURVE",
"129 -4 OFFCURVE",
"288 -4 CURVE SMOOTH",
"492 -4 OFFCURVE",
"644 103 OFFCURVE",
"658 187 CURVE SMOOTH",
"662 215 OFFCURVE",
"658 267 OFFCURVE",
"653 267 CURVE SMOOTH",
"635 267 OFFCURVE",
"578 218 OFFCURVE",
"497 218 CURVE SMOOTH",
"383 218 OFFCURVE",
"309 221 OFFCURVE",
"327 339 CURVE SMOOTH",
"362 558 OFFCURVE",
"437 635 OFFCURVE",
"475 635 CURVE SMOOTH",
"491 635 OFFCURVE",
"506 626 OFFCURVE",
"500 588 CURVE SMOOTH",
"489 518 OFFCURVE",
"425 455 OFFCURVE",
"328 463 CURVE",
"259 378 LINE",
"584 320 OFFCURVE",
"786 403 OFFCURVE",
"811 562 CURVE SMOOTH",
"829 671 OFFCURVE",
"736 753 OFFCURVE",
"540 753 CURVE SMOOTH"
);
}
);
width = 786;
},
{
associatedMasterId = "FF8CB9F1-2B98-444C-A502-96421F2531A8";
background = {
paths = (
{
closed = 1;
nodes = (
"187 753 OFFCURVE",
"37 554 OFFCURVE",
"0 316 CURVE SMOOTH",
"-33 104 OFFCURVE",
"95 -4 OFFCURVE",
"364 -4 CURVE SMOOTH",
"548 -4 OFFCURVE",
"684 71 OFFCURVE",
"698 155 CURVE SMOOTH",
"702 183 OFFCURVE",
"698 235 OFFCURVE",
"693 235 CURVE SMOOTH",
"675 235 OFFCURVE",
"558 186 OFFCURVE",
"477 186 CURVE SMOOTH",
"363 186 OFFCURVE",
"309 201 OFFCURVE",
"327 339 CURVE SMOOTH",
"356 559 OFFCURVE",
"447 635 OFFCURVE",
"485 635 CURVE SMOOTH",
"501 635 OFFCURVE",
"506 580 OFFCURVE",
"500 542 CURVE SMOOTH",
"489 472 OFFCURVE",
"461 406 OFFCURVE",
"328 428 CURVE",
"302 346 LINE",
"638 286 OFFCURVE",
"785 366 OFFCURVE",
"811 532 CURVE SMOOTH",
"828 641 OFFCURVE",
"764 753 OFFCURVE",
"472 753 CURVE SMOOTH"
);
}
);
};
backgroundImage = {
crop = "{{304.54500000000002, 0}, {79.363600000000005, 121}}";
imagePath = "../Dropbox/JP_FREELANCE/2015/Projects/Google Fonts/GoogleWebFonts/shrikhand/Gujarati/shrikhand/Gujarati/Reference/shrikhand_latin_1024.png";
locked = "1";
transform = "{11, 0, 0, 11, -3350, -166}";
};
layerId = "DC5809BD-908E-4ACF-BD38-F1A089FAC586";
name = lipi;
paths = (
{
closed = 1;
nodes = (
"177 753 OFFCURVE",
"2 512 OFFCURVE",
"2 289 CURVE SMOOTH",
"2 123 OFFCURVE",
"117 -4 OFFCURVE",
"350 -4 CURVE SMOOTH",
"591 -4 OFFCURVE",
"709 118 OFFCURVE",
"692 250 CURVE",
"634 211 OFFCURVE",
"567 190 OFFCURVE",
"505 190 CURVE SMOOTH",
"408 190 OFFCURVE",
"327 242 OFFCURVE",
"327 352 CURVE SMOOTH",
"327 473 OFFCURVE",
"420 631 OFFCURVE",
"470 631 CURVE SMOOTH",
"492 631 OFFCURVE",
"502 597 OFFCURVE",
"502 552 CURVE SMOOTH",
"502 476 OFFCURVE",
"461 425 OFFCURVE",
"368 425 CURVE SMOOTH",
"356 425 OFFCURVE",
"342 426 OFFCURVE",
"328 428 CURVE",
"302 346 LINE",
"512 254 OFFCURVE",
"768 345 OFFCURVE",
"768 532 CURVE SMOOTH",
"768 674 OFFCURVE",
"682 753 OFFCURVE",
"482 753 CURVE SMOOTH"
);
},
{
closed = 0;
nodes = (
"327 352 LINE SMOOTH"
);
}
);
width = 786;
}
);
leftKerningGroup = o;
leftMetricsKey = o;
rightKerningGroup = e;
unicode = 0065;
},
{
glyphname = f;
lastChange = "2015-10-05 14:49:48 +0000";
layers = (
{
associatedMasterId = "FF8CB9F1-2B98-444C-A502-96421F2531A8";
background = {
paths = (
{
closed = 1;
nodes = (
"280 444 OFFCURVE",
"294 428 OFFCURVE",
"326 428 CURVE SMOOTH",
"434 428 LINE SMOOTH",
"486 428 OFFCURVE",
"506 444 OFFCURVE",
"514 472 CURVE SMOOTH",
"521 500 OFFCURVE",
"505 516 OFFCURVE",
"464 516 CURVE SMOOTH",
"348 516 LINE SMOOTH",
"317 516 OFFCURVE",
"295 500 OFFCURVE",
"288 472 CURVE SMOOTH"
);
},
{
closed = 1;
nodes = (
"6 46 OFFCURVE",
"-29 59 OFFCURVE",
"-38 31 CURVE SMOOTH",
"-43 13 OFFCURVE",
"-28 0 OFFCURVE",
"8 0 CURVE SMOOTH",
"236 0 LINE SMOOTH",
"279 0 OFFCURVE",
"296 8 OFFCURVE",
"302 25 CURVE SMOOTH",
"309 51 OFFCURVE",
"258 47 OFFCURVE",
"275 104 CURVE SMOOTH",
"415 564 LINE SMOOTH",
"441 651 OFFCURVE",
"532 596 OFFCURVE",
"537 623 CURVE SMOOTH",
"541 650 OFFCURVE",
"505 719 OFFCURVE",
"386 719 CURVE SMOOTH",
"277 719 OFFCURVE",
"200 670 OFFCURVE",
"167 568 CURVE SMOOTH",
"150 516 LINE",
"118 516 LINE SMOOTH",
"61 516 OFFCURVE",
"48 505 OFFCURVE",
"49 481 CURVE SMOOTH",
"49 445 OFFCURVE",
"128 445 OFFCURVE",
"103 362 CURVE SMOOTH",
"25 106 LINE SMOOTH"
);
}
);
};
layerId = "D307F66C-2032-4B77-BE7E-A9A0F70B82B7";
name = "Bold Italic Sep 7 15, 12:30";
paths = (
{
closed = 1;
nodes = (
"280 444 OFFCURVE",
"294 428 OFFCURVE",
"326 428 CURVE SMOOTH",
"434 428 LINE SMOOTH",
"486 428 OFFCURVE",
"506 444 OFFCURVE",
"514 472 CURVE SMOOTH",
"521 500 OFFCURVE",
"505 516 OFFCURVE",
"464 516 CURVE SMOOTH",
"348 516 LINE SMOOTH",
"317 516 OFFCURVE",
"295 500 OFFCURVE",
"288 472 CURVE SMOOTH"
);
},
{
closed = 1;
nodes = (
"6 46 OFFCURVE",
"-29 59 OFFCURVE",
"-38 31 CURVE SMOOTH",
"-43 13 OFFCURVE",
"-28 0 OFFCURVE",
"8 0 CURVE SMOOTH",
"236 0 LINE SMOOTH",
"279 0 OFFCURVE",
"296 8 OFFCURVE",
"302 25 CURVE SMOOTH",
"309 51 OFFCURVE",
"258 47 OFFCURVE",
"275 104 CURVE SMOOTH",
"415 564 LINE SMOOTH",
"441 651 OFFCURVE",
"532 596 OFFCURVE",
"537 623 CURVE SMOOTH",
"541 650 OFFCURVE",
"505 719 OFFCURVE",
"386 719 CURVE SMOOTH",
"277 719 OFFCURVE",
"200 670 OFFCURVE",
"167 568 CURVE SMOOTH",
"150 516 LINE",
"118 516 LINE SMOOTH",
"61 516 OFFCURVE",
"48 505 OFFCURVE",
"49 481 CURVE SMOOTH",
"49 445 OFFCURVE",
"128 445 OFFCURVE",
"103 362 CURVE SMOOTH",
"25 106 LINE SMOOTH"
);
}
);
width = 459;
},
{
background = {
paths = (
{
closed = 0;
nodes = (
"131 492 LINE SMOOTH",
"108 668 OFFCURVE",
"240 739 OFFCURVE",
"411 739 CURVE SMOOTH",
"575 739 OFFCURVE",
"630 671 OFFCURVE",
"620 611 CURVE SMOOTH",
"612 571 OFFCURVE",
"572 548 OFFCURVE",
"504 548 CURVE SMOOTH",
"414 548 OFFCURVE",
"393 616 OFFCURVE",
"421 672 CURVE",
"379 672 OFFCURVE",
"358 656 OFFCURVE",
"352 624 CURVE SMOOTH"
);
}
);
};
layerId = "FF8CB9F1-2B98-444C-A502-96421F2531A8";
name = "Bold Italic";
paths = (
{
closed = 1;
nodes = (
"227 739 OFFCURVE",
"162 675 OFFCURVE",
"141 618 CURVE SMOOTH",
"131 590 OFFCURVE",
"129 555 OFFCURVE",
"139 516 CURVE",
"114 516 LINE SMOOTH",
"57 516 OFFCURVE",
"44 505 OFFCURVE",
"45 481 CURVE SMOOTH",
"45 445 OFFCURVE",
"121 445 OFFCURVE",
"96 362 CURVE SMOOTH",
"18 106 LINE SMOOTH",
"-1 46 OFFCURVE",
"-36 59 OFFCURVE",
"-45 31 CURVE",
"-50 13 OFFCURVE",
"-35 0 OFFCURVE",
"1 0 CURVE SMOOTH",
"229 0 LINE SMOOTH",
"272 0 OFFCURVE",
"289 8 OFFCURVE",
"295 25 CURVE SMOOTH",
"302 51 OFFCURVE",
"251 47 OFFCURVE",
"268 104 CURVE SMOOTH",
"367 428 LINE",
"397 428 LINE SMOOTH",
"449 428 OFFCURVE",
"469 444 OFFCURVE",
"477 472 CURVE SMOOTH",
"484 500 OFFCURVE",
"468 516 OFFCURVE",
"427 516 CURVE SMOOTH",
"368 516 LINE SMOOTH",
"339 516 OFFCURVE",
"326 556 OFFCURVE",
"341 608 CURVE SMOOTH",
"356 658 OFFCURVE",
"385 672 OFFCURVE",
"422 672 CURVE",
"390 619 OFFCURVE",
"418 548 OFFCURVE",
"508 548 CURVE SMOOTH",
"566 548 OFFCURVE",
"612 569 OFFCURVE",
"620 611 CURVE SMOOTH",
"632 673 OFFCURVE",
"574 739 OFFCURVE",
"408 739 CURVE SMOOTH"
);
}
);
width = 416;
}
);
rightKerningGroup = f;
unicode = 0066;
},
{
glyphname = g;
lastChange = "2015-10-05 14:03:05 +0000";
layers = (
{
anchors = (
{
name = top;
position = "{254, 507}";
}
);
background = {
paths = (
{
closed = 1;
nodes = (
"-50 184 OFFCURVE",
"-8 -20 OFFCURVE",
"228 -20 CURVE SMOOTH",
"383 -20 LINE SMOOTH",
"453 -20 OFFCURVE",
"464 -21 OFFCURVE",
"448 -68 CURVE SMOOTH",
"431 -118 OFFCURVE",
"348 -140 OFFCURVE",
"277 -140 CURVE SMOOTH",
"215 -140 OFFCURVE",
"172 -120 OFFCURVE",
"172 -64 CURVE SMOOTH",
"172 -13 OFFCURVE",
"257 21 OFFCURVE",
"259 26 CURVE",
"91 86 LINE",
"-48 62 OFFCURVE",
"-113 35 OFFCURVE",
"-132 -56 CURVE SMOOTH",
"-166 -217 OFFCURVE",
"22 -285 OFFCURVE",
"287 -285 CURVE SMOOTH",
"647 -285 OFFCURVE",
"805 -172 OFFCURVE",
"805 -32 CURVE SMOOTH",
"805 58 OFFCURVE",
"729 124 OFFCURVE",
"549 124 CURVE SMOOTH",
"428 124 LINE SMOOTH",
"332 124 OFFCURVE",
"260 110 OFFCURVE",
"326 244 CURVE",
"196 290 LINE"
);
},
{
closed = 1;
nodes = (
"540 641 OFFCURVE",
"571 582 OFFCURVE",
"528 455 CURVE SMOOTH",
"487 339 OFFCURVE",
"452 319 OFFCURVE",
"417 321 CURVE SMOOTH",
"381 321 OFFCURVE",
"351 334 OFFCURVE",
"394 461 CURVE SMOOTH",
"434 576 OFFCURVE",
"470 641 OFFCURVE",
"504 641 CURVE SMOOTH"
);
},
{
closed = 1;
nodes = (
"208 761 OFFCURVE",
"15 576 OFFCURVE",
"56 379 CURVE SMOOTH",
"79 271 OFFCURVE",
"201 202 OFFCURVE",
"445 202 CURVE SMOOTH",
"725 202 OFFCURVE",
"918 387 OFFCURVE",
"876 584 CURVE SMOOTH",
"853 692 OFFCURVE",
"732 761 OFFCURVE",
"488 761 CURVE SMOOTH"
);
},
{
closed = 1;
nodes = (
"751 989 OFFCURVE",
"711 918 OFFCURVE",
"711 854 CURVE SMOOTH",
"711 796 OFFCURVE",
"744 717 OFFCURVE",
"797 668 CURVE",
"862 622 LINE",
"836 671 OFFCURVE",
"819 748 OFFCURVE",
"834 781 CURVE",
"857 770 OFFCURVE",
"877 760 OFFCURVE",
"925 760 CURVE SMOOTH",
"1000 760 OFFCURVE",
"1041 788 OFFCURVE",
"1041 844 CURVE SMOOTH",
"1041 924 OFFCURVE",
"947 989 OFFCURVE",
"855 989 CURVE SMOOTH"
);
}
);
};
guideLines = (
{
position = "{461, 481}";
},
{
angle = 72.1703;
position = "{489, 752}";
},
{
angle = 72.1703;
position = "{430, 152}";
},
{
angle = 252.072;
position = "{469, 482}";
},
{
angle = 72.1703;
position = "{231, 752}";
},
{
angle = 72.1703;
position = "{121, 752}";
},
{
angle = 72.1703;
position = "{1061, 752}";
},
{
angle = 72.1703;
position = "{712, 752}";
}
);
layerId = "FF8CB9F1-2B98-444C-A502-96421F2531A8";
name = "Bold Italic";
paths = (
{
closed = 1;
nodes = (
"62 174 OFFCURVE",
"29 134 OFFCURVE",
"19 103 CURVE SMOOTH",
"1 39 OFFCURVE",
"55 -14 OFFCURVE",
"180 -14 CURVE SMOOTH",
"276 -14 LINE SMOOTH",
"305 -14 OFFCURVE",
"316 -31 OFFCURVE",
"308 -53 CURVE SMOOTH",
"298 -83 OFFCURVE",
"253 -98 OFFCURVE",
"198 -98 CURVE SMOOTH",
"144 -98 OFFCURVE",
"118 -84 OFFCURVE",
"117 -51 CURVE SMOOTH",
"116 -18 OFFCURVE",
"133 4 OFFCURVE",
"177 18 CURVE",
"96 27 LINE",
"-56 27 OFFCURVE",
"-92 -8 OFFCURVE",
"-104 -47 CURVE SMOOTH",
"-128 -127 OFFCURVE",
"-32 -200 OFFCURVE",
"193 -200 CURVE SMOOTH",
"424 -200 OFFCURVE",
"532 -125 OFFCURVE",
"554 -52 CURVE SMOOTH",
"580 36 OFFCURVE",
"517 87 OFFCURVE",
"397 87 CURVE SMOOTH",
"247 87 LINE SMOOTH",
"200 87 OFFCURVE",
"192 107 OFFCURVE",
"196 124 CURVE SMOOTH",
"199 138 OFFCURVE",
"207 149 OFFCURVE",
"223 158 CURVE",
"158 190 LINE"
);
},
{
closed = 1;
nodes = (
"397 449 OFFCURVE",
"405 423 OFFCURVE",
"379 337 CURVE SMOOTH",
"353 252 OFFCURVE",
"329 225 OFFCURVE",
"297 225 CURVE SMOOTH",
"266 225 OFFCURVE",
"260 251 OFFCURVE",
"285 337 CURVE SMOOTH",
"311 424 OFFCURVE",
"334 449 OFFCURVE",
"366 449 CURVE SMOOTH"
);
},
{
closed = 1;
nodes = (
"185 533 OFFCURVE",
"68 449 OFFCURVE",
"44 346 CURVE SMOOTH",
"15 219 OFFCURVE",
"99 141 OFFCURVE",
"319 141 CURVE SMOOTH",
"476 141 OFFCURVE",
"591 224 OFFCURVE",
"615 328 CURVE SMOOTH",
"643 453 OFFCURVE",
"562 533 OFFCURVE",
"342 533 CURVE SMOOTH"
);
},
{
closed = 1;
nodes = (
"523 692 OFFCURVE",
"496 643 OFFCURVE",
"497 598 CURVE SMOOTH",
"497 557 OFFCURVE",
"521 502 OFFCURVE",
"559 468 CURVE",
"605 435 LINE",
"587 470 OFFCURVE",
"574 524 OFFCURVE",
"583 547 CURVE",
"600 539 OFFCURVE",
"614 532 OFFCURVE",
"648 532 CURVE SMOOTH",
"701 532 OFFCURVE",
"728 552 OFFCURVE",
"728 591 CURVE SMOOTH",
"727 647 OFFCURVE",
"660 692 OFFCURVE",
"596 692 CURVE SMOOTH"
);
}
);
width = 615;
}
);
leftKerningGroup = g;
rightKerningGroup = g;
unicode = 0067;
},
{
glyphname = h;
lastChange = "2015-10-05 13:20:16 +0000";
layers = (
{
background = {
paths = (
{
closed = 1;
nodes = (
"233 719 OFFCURVE",
"139 693 OFFCURVE",
"131 662 CURVE SMOOTH",
"123 629 OFFCURVE",
"178 634 OFFCURVE",
"164 585 CURVE SMOOTH",
"18 106 LINE SMOOTH",
"-1 46 OFFCURVE",
"-36 59 OFFCURVE",
"-45 31 CURVE SMOOTH",
"-50 13 OFFCURVE",
"-35 0 OFFCURVE",
"1 0 CURVE SMOOTH",
"229 0 LINE SMOOTH",
"272 0 OFFCURVE",
"289 8 OFFCURVE",
"295 25 CURVE SMOOTH",
"302 51 OFFCURVE",
"251 48 OFFCURVE",
"268 104 CURVE SMOOTH",
"419 594 LINE SMOOTH",
"439 663 OFFCURVE",
"417 719 OFFCURVE",
"313 719 CURVE SMOOTH"
);
},
{
closed = 1;
nodes = (
"468 529 OFFCURVE",
"390 498 OFFCURVE",
"320 354 CURVE",
"331 305 LINE",
"349 362 OFFCURVE",
"380 379 OFFCURVE",
"401 379 CURVE SMOOTH",
"421 379 OFFCURVE",
"438 363 OFFCURVE",
"425 330 CURVE SMOOTH",
"370 186 LINE SMOOTH",
"358 155 OFFCURVE",
"352 126 OFFCURVE",
"352 103 CURVE SMOOTH",
"353 35 OFFCURVE",
"409 -9 OFFCURVE",
"497 -9 CURVE SMOOTH",
"610 -9 OFFCURVE",
"668 55 OFFCURVE",
"667 110 CURVE SMOOTH",
"667 121 OFFCURVE",
"663 132 OFFCURVE",
"656 132 CURVE SMOOTH",
"649 132 OFFCURVE",
"643 111 OFFCURVE",
"624 111 CURVE SMOOTH",
"613 111 OFFCURVE",
"607 122 OFFCURVE",
"613 138 CURVE SMOOTH",
"674 335 LINE SMOOTH",
"708 445 OFFCURVE",
"650 529 OFFCURVE",
"548 529 CURVE SMOOTH"
);
}
);
};
layerId = "FF8CB9F1-2B98-444C-A502-96421F2531A8";
name = "Bold Italic";
paths = (
{
closed = 1;
nodes = (
"239 739 OFFCURVE",
"145 713 OFFCURVE",
"137 682 CURVE SMOOTH",
"129 649 OFFCURVE",
"185 654 OFFCURVE",
"170 605 CURVE SMOOTH",
"18 106 LINE SMOOTH",
"0 46 OFFCURVE",
"-36 59 OFFCURVE",
"-45 31 CURVE SMOOTH",
"-50 13 OFFCURVE",
"-35 0 OFFCURVE",
"1 0 CURVE SMOOTH",
"229 0 LINE SMOOTH",
"272 0 OFFCURVE",
"289 8 OFFCURVE",
"295 25 CURVE SMOOTH",
"302 51 OFFCURVE",
"251 48 OFFCURVE",
"268 104 CURVE SMOOTH",
"425 614 LINE SMOOTH",
"446 683 OFFCURVE",
"423 739 OFFCURVE",
"319 739 CURVE SMOOTH"
);
},
{
closed = 1;
nodes = (
"468 529 OFFCURVE",
"390 498 OFFCURVE",
"320 354 CURVE",
"331 305 LINE",
"349 362 OFFCURVE",
"380 379 OFFCURVE",
"401 379 CURVE SMOOTH",
"421 379 OFFCURVE",
"438 363 OFFCURVE",
"425 330 CURVE SMOOTH",
"370 186 LINE SMOOTH",
"358 155 OFFCURVE",
"352 126 OFFCURVE",
"352 103 CURVE SMOOTH",
"353 35 OFFCURVE",
"409 -9 OFFCURVE",
"497 -9 CURVE SMOOTH",
"610 -9 OFFCURVE",
"668 55 OFFCURVE",
"667 110 CURVE SMOOTH",
"667 121 OFFCURVE",
"663 132 OFFCURVE",
"656 132 CURVE SMOOTH",
"649 132 OFFCURVE",
"643 111 OFFCURVE",
"624 111 CURVE SMOOTH",
"613 111 OFFCURVE",
"607 122 OFFCURVE",
"613 138 CURVE SMOOTH",
"674 335 LINE SMOOTH",
"708 445 OFFCURVE",
"650 529 OFFCURVE",
"548 529 CURVE SMOOTH"
);
}
);
width = 710;
}
);
leftMetricsKey = l;
rightMetricsKey = n;
unicode = 0068;
},
{
glyphname = i;
lastChange = "2015-10-05 13:09:43 +0000";
layers = (
{
background = {
paths = (
{
closed = 1;
nodes = (
"172 529 OFFCURVE",
"78 503 OFFCURVE",
"70 471 CURVE SMOOTH",
"61 438 OFFCURVE",
"117 443 OFFCURVE",
"102 395 CURVE SMOOTH",
"15 106 LINE SMOOTH",
"-4 46 OFFCURVE",
"-39 59 OFFCURVE",
"-48 31 CURVE SMOOTH",
"-53 13 OFFCURVE",
"-38 0 OFFCURVE",
"-2 0 CURVE SMOOTH",
"226 0 LINE SMOOTH",
"269 0 OFFCURVE",
"286 8 OFFCURVE",
"292 25 CURVE SMOOTH",
"299 51 OFFCURVE",
"248 48 OFFCURVE",
"265 104 CURVE SMOOTH",
"357 403 LINE SMOOTH",
"378 472 OFFCURVE",
"356 529 OFFCURVE",
"252 529 CURVE SMOOTH"
);
},
{
closed = 1;
nodes = (
"273 753 OFFCURVE",
"229 693 OFFCURVE",
"230 641 CURVE SMOOTH",
"231 589 OFFCURVE",
"270 548 OFFCURVE",
"323 548 CURVE SMOOTH",
"391 548 OFFCURVE",
"436 607 OFFCURVE",
"435 662 CURVE SMOOTH",
"435 713 OFFCURVE",
"394 753 OFFCURVE",
"341 753 CURVE SMOOTH"
);
}
);
};
components = (
{
name = dotlessi;
},
{
name = dotaccent;
transform = "{1, 0, 0, 1, 102, 0}";
}
);
layerId = "FF8CB9F1-2B98-444C-A502-96421F2531A8";
name = "Bold Italic";
width = 366;
}
);
leftKerningGroup = i;
rightKerningGroup = i;
unicode = 0069;
},
{
glyphname = dotlessi;
lastChange = "2015-10-05 13:09:43 +0000";
layers = (
{
anchors = (
{
name = ogonek;
position = "{189, 0}";
},
{
name = top;
position = "{247, 500}";
}
);
background = {
paths = (
{
closed = 1;
nodes = (
"263 755 OFFCURVE",
"132 709 OFFCURVE",
"121 673 CURVE SMOOTH",
"106 626 OFFCURVE",
"187 630 OFFCURVE",
"165 564 CURVE SMOOTH",
"31 152 LINE SMOOTH",
"3 65 OFFCURVE",
"-47 85 OFFCURVE",
"-60 44 CURVE SMOOTH",
"-68 19 OFFCURVE",
"-47 0 OFFCURVE",
"4 0 CURVE SMOOTH",
"330 0 LINE SMOOTH",
"391 0 OFFCURVE",
"416 11 OFFCURVE",
"424 35 CURVE SMOOTH",
"436 73 OFFCURVE",
"363 68 OFFCURVE",
"389 148 CURVE SMOOTH",
"520 548 LINE SMOOTH",
"561 673 OFFCURVE",
"499 755 OFFCURVE",
"381 755 CURVE SMOOTH"
);
}
);
};
guideLines = (
{
angle = 75.9638;
position = "{464, 333}";
}
);
layerId = "FF8CB9F1-2B98-444C-A502-96421F2531A8";
name = "Bold Italic";
paths = (
{
closed = 1;
nodes = (
"180 529 OFFCURVE",
"86 503 OFFCURVE",
"78 471 CURVE SMOOTH",
"69 438 OFFCURVE",
"125 443 OFFCURVE",
"110 395 CURVE SMOOTH",
"23 106 LINE SMOOTH",
"4 46 OFFCURVE",
"-31 59 OFFCURVE",
"-40 31 CURVE SMOOTH",
"-45 13 OFFCURVE",
"-30 0 OFFCURVE",
"6 0 CURVE SMOOTH",
"234 0 LINE SMOOTH",
"277 0 OFFCURVE",
"294 8 OFFCURVE",
"300 25 CURVE SMOOTH",
"307 51 OFFCURVE",
"256 48 OFFCURVE",
"273 104 CURVE SMOOTH",
"365 403 LINE SMOOTH",
"386 472 OFFCURVE",
"364 529 OFFCURVE",
"260 529 CURVE SMOOTH"
);
}
);
width = 366;
}
);
leftKerningGroup = i;
leftMetricsKey = n;
rightKerningGroup = i;
unicode = 0131;
},
{
glyphname = j;
lastChange = "2015-10-05 13:44:02 +0000";
layers = (
{
background = {
paths = (
{
closed = 1;
nodes = (
"161 529 OFFCURVE",
"67 503 OFFCURVE",
"59 471 CURVE SMOOTH",
"50 438 OFFCURVE",
"106 443 OFFCURVE",
"91 395 CURVE SMOOTH",
"-29 0 LINE SMOOTH",
"-44 -53 OFFCURVE",
"-60 -63 OFFCURVE",
"-87 -63 CURVE SMOOTH",
"-110 -63 OFFCURVE",
"-125 -56 OFFCURVE",
"-138 -56 CURVE SMOOTH",
"-153 -56 OFFCURVE",
"-158 -64 OFFCURVE",
"-158 -80 CURVE SMOOTH",
"-157 -124 OFFCURVE",
"-65 -190 OFFCURVE",
"47 -190 CURVE SMOOTH",
"136 -190 OFFCURVE",
"183 -149 OFFCURVE",
"211 -52 CURVE SMOOTH",
"346 403 LINE SMOOTH",
"367 472 OFFCURVE",
"345 529 OFFCURVE",
"241 529 CURVE SMOOTH"
);
},
{
closed = 1;
nodes = (
"262 753 OFFCURVE",
"218 693 OFFCURVE",
"219 641 CURVE SMOOTH",
"220 589 OFFCURVE",
"259 548 OFFCURVE",
"312 548 CURVE SMOOTH",
"380 548 OFFCURVE",
"425 607 OFFCURVE",
"424 662 CURVE SMOOTH",
"424 713 OFFCURVE",
"383 753 OFFCURVE",
"330 753 CURVE SMOOTH"
);
}
);
};
layerId = "FF8CB9F1-2B98-444C-A502-96421F2531A8";
name = "Bold Italic";
paths = (
{
closed = 1;
nodes = (
"-42 -44 LINE SMOOTH",
"-66 -123 OFFCURVE",
"-134 -119 OFFCURVE",
"-143 -149 CURVE SMOOTH",
"-151 -176 OFFCURVE",
"-95 -190 OFFCURVE",
"-43 -190 CURVE SMOOTH",
"94 -190 OFFCURVE",
"182 -148 OFFCURVE",
"223 -11 CURVE SMOOTH",
"346 403 LINE SMOOTH",
"367 472 OFFCURVE",
"345 529 OFFCURVE",
"241 529 CURVE SMOOTH",
"161 529 OFFCURVE",
"67 503 OFFCURVE",
"59 471 CURVE SMOOTH",
"50 438 OFFCURVE",
"105 443 OFFCURVE",
"91 395 CURVE SMOOTH"
);
},
{
closed = 1;
nodes = (
"262 753 OFFCURVE",
"218 693 OFFCURVE",
"219 641 CURVE SMOOTH",
"220 589 OFFCURVE",
"259 548 OFFCURVE",
"312 548 CURVE SMOOTH",
"380 548 OFFCURVE",
"425 607 OFFCURVE",
"424 662 CURVE SMOOTH",
"424 713 OFFCURVE",
"383 753 OFFCURVE",
"330 753 CURVE SMOOTH"
);
}
);
width = 335;
},
{
associatedMasterId = "FF8CB9F1-2B98-444C-A502-96421F2531A8";
background = {
paths = (
{
closed = 1;
nodes = (
"172 529 OFFCURVE",
"78 503 OFFCURVE",
"70 471 CURVE SMOOTH",
"61 438 OFFCURVE",
"117 443 OFFCURVE",
"102 395 CURVE SMOOTH",
"-18 0 LINE SMOOTH",
"-33 -53 OFFCURVE",
"-49 -63 OFFCURVE",
"-76 -63 CURVE SMOOTH",
"-99 -63 OFFCURVE",
"-114 -56 OFFCURVE",
"-127 -56 CURVE SMOOTH",
"-142 -56 OFFCURVE",
"-147 -64 OFFCURVE",
"-147 -80 CURVE SMOOTH",
"-146 -124 OFFCURVE",
"-54 -190 OFFCURVE",
"58 -190 CURVE SMOOTH",
"147 -190 OFFCURVE",
"194 -149 OFFCURVE",
"222 -52 CURVE SMOOTH",
"357 403 LINE SMOOTH",
"378 472 OFFCURVE",
"356 529 OFFCURVE",
"252 529 CURVE SMOOTH"
);
},
{
closed = 1;
nodes = (
"273 753 OFFCURVE",
"229 693 OFFCURVE",
"230 641 CURVE SMOOTH",
"231 589 OFFCURVE",
"270 548 OFFCURVE",
"323 548 CURVE SMOOTH",
"391 548 OFFCURVE",
"436 607 OFFCURVE",
"435 662 CURVE SMOOTH",
"435 713 OFFCURVE",
"394 753 OFFCURVE",
"341 753 CURVE SMOOTH"
);
}
);
};
layerId = "4CB9581E-F8E9-43B0-8168-A16F00A9B630";
name = V1;
paths = (
{
closed = 1;
nodes = (
"172 529 OFFCURVE",
"78 503 OFFCURVE",
"70 471 CURVE SMOOTH",
"61 438 OFFCURVE",
"117 443 OFFCURVE",
"102 395 CURVE SMOOTH",
"-18 0 LINE SMOOTH",
"-33 -53 OFFCURVE",
"-49 -63 OFFCURVE",
"-76 -63 CURVE SMOOTH",
"-99 -63 OFFCURVE",
"-114 -56 OFFCURVE",
"-127 -56 CURVE SMOOTH",
"-142 -56 OFFCURVE",
"-147 -64 OFFCURVE",
"-147 -80 CURVE SMOOTH",
"-146 -124 OFFCURVE",
"-54 -190 OFFCURVE",
"58 -190 CURVE SMOOTH",
"147 -190 OFFCURVE",
"194 -149 OFFCURVE",
"222 -52 CURVE SMOOTH",
"357 403 LINE SMOOTH",
"378 472 OFFCURVE",
"356 529 OFFCURVE",
"252 529 CURVE SMOOTH"
);
},
{
closed = 1;
nodes = (
"273 753 OFFCURVE",
"229 693 OFFCURVE",
"230 641 CURVE SMOOTH",
"231 589 OFFCURVE",
"270 548 OFFCURVE",
"323 548 CURVE SMOOTH",
"391 548 OFFCURVE",
"436 607 OFFCURVE",
"435 662 CURVE SMOOTH",
"435 713 OFFCURVE",
"394 753 OFFCURVE",
"341 753 CURVE SMOOTH"
);
}
);
width = 339;
visible = 1;
}
);
unicode = 006A;
},
{
glyphname = k;
lastChange = "2015-10-05 14:42:05 +0000";
layers = (
{
anchors = (
{
name = bottom;
position = "{327, 0}";
},
{
name = top;
position = "{411, 500}";
}
);
background = {
guideLines = (
{
angle = 74.0546;
position = "{767, 206}";
}
);
paths = (
{
closed = 1;
nodes = (
"233 719 OFFCURVE",
"139 693 OFFCURVE",
"131 662 CURVE SMOOTH",
"123 629 OFFCURVE",
"178 634 OFFCURVE",
"164 585 CURVE SMOOTH",
"18 106 LINE SMOOTH",
"-1 46 OFFCURVE",
"-36 59 OFFCURVE",
"-45 31 CURVE SMOOTH",
"-50 13 OFFCURVE",
"-35 0 OFFCURVE",
"1 0 CURVE SMOOTH",
"229 0 LINE SMOOTH",
"272 0 OFFCURVE",
"289 8 OFFCURVE",
"295 25 CURVE SMOOTH",
"302 51 OFFCURVE",
"251 48 OFFCURVE",
"268 104 CURVE SMOOTH",
"418 594 LINE SMOOTH",
"438 663 OFFCURVE",
"417 719 OFFCURVE",
"313 719 CURVE SMOOTH"
);
},
{
closed = 1;
nodes = (
"324 308 LINE",
"287 251 LINE",
"333 251 LINE SMOOTH",
"367 251 OFFCURVE",
"375 237 OFFCURVE",
"363 200 CURVE SMOOTH",
"344 150 LINE SMOOTH",
"312 57 OFFCURVE",
"385 -9 OFFCURVE",
"485 -9 CURVE SMOOTH",
"597 -9 OFFCURVE",
"650 55 OFFCURVE",
"649 110 CURVE SMOOTH",
"649 121 OFFCURVE",
"645 132 OFFCURVE",
"638 132 CURVE SMOOTH",
"630 132 OFFCURVE",
"625 111 OFFCURVE",
"606 111 CURVE SMOOTH",
"595 111 OFFCURVE",
"589 120 OFFCURVE",
"595 138 CURVE SMOOTH",
"603 169 LINE SMOOTH",
"628 247 OFFCURVE",
"587 308 OFFCURVE",
"443 308 CURVE SMOOTH"
);
},
{
closed = 1;
nodes = (
"500 529 OFFCURVE",
"453 469 OFFCURVE",
"422 377 CURVE SMOOTH",
"413 347 OFFCURVE",
"398 330 OFFCURVE",
"370 330 CURVE SMOOTH",
"325 330 LINE",
"298 280 LINE",
"392 280 LINE SMOOTH",
"443 280 OFFCURVE",
"480 291 OFFCURVE",
"495 342 CURVE SMOOTH",
"506 382 OFFCURVE",
"515 391 OFFCURVE",
"527 389 CURVE",
"526 356 OFFCURVE",
"554 319 OFFCURVE",
"614 319 CURVE SMOOTH",
"670 319 OFFCURVE",
"710 350 OFFCURVE",
"718 404 CURVE SMOOTH",
"728 469 OFFCURVE",
"679 529 OFFCURVE",
"593 529 CURVE SMOOTH"
);
}
);
};
guideLines = (
{
angle = 72.1811;
position = "{871, 258}";
}
);
layerId = "FF8CB9F1-2B98-444C-A502-96421F2531A8";
name = "Bold Italic";
paths = (
{
closed = 1;
nodes = (
"239 739 OFFCURVE",
"145 713 OFFCURVE",
"137 682 CURVE SMOOTH",
"129 649 OFFCURVE",
"185 654 OFFCURVE",
"170 605 CURVE SMOOTH",
"18 106 LINE SMOOTH",
"0 46 OFFCURVE",
"-36 59 OFFCURVE",
"-45 31 CURVE SMOOTH",
"-50 13 OFFCURVE",
"-35 0 OFFCURVE",
"1 0 CURVE SMOOTH",
"229 0 LINE SMOOTH",
"272 0 OFFCURVE",
"289 8 OFFCURVE",
"295 25 CURVE SMOOTH",
"302 51 OFFCURVE",
"251 48 OFFCURVE",
"268 104 CURVE SMOOTH",
"424 614 LINE SMOOTH",
"445 683 OFFCURVE",
"423 739 OFFCURVE",
"319 739 CURVE SMOOTH"
);
},
{
closed = 1;
nodes = (
"324 308 LINE",
"287 251 LINE",
"333 251 LINE SMOOTH",
"367 251 OFFCURVE",
"375 237 OFFCURVE",
"363 200 CURVE SMOOTH",
"344 150 LINE SMOOTH",
"312 57 OFFCURVE",
"385 -9 OFFCURVE",
"485 -9 CURVE SMOOTH",
"597 -9 OFFCURVE",
"650 55 OFFCURVE",
"649 110 CURVE SMOOTH",
"649 121 OFFCURVE",
"645 132 OFFCURVE",
"638 132 CURVE SMOOTH",
"630 132 OFFCURVE",
"625 111 OFFCURVE",
"606 111 CURVE SMOOTH",
"595 111 OFFCURVE",
"589 120 OFFCURVE",
"595 138 CURVE SMOOTH",
"603 169 LINE SMOOTH",
"628 247 OFFCURVE",
"587 308 OFFCURVE",
"443 308 CURVE SMOOTH"
);
},
{
closed = 1;
nodes = (
"500 529 OFFCURVE",
"453 469 OFFCURVE",
"422 377 CURVE SMOOTH",
"413 347 OFFCURVE",
"398 330 OFFCURVE",
"370 330 CURVE SMOOTH",
"325 330 LINE",
"298 280 LINE",
"392 280 LINE SMOOTH",
"443 280 OFFCURVE",
"480 291 OFFCURVE",
"495 342 CURVE SMOOTH",
"506 382 OFFCURVE",
"515 391 OFFCURVE",
"527 389 CURVE",
"526 356 OFFCURVE",
"554 319 OFFCURVE",
"614 319 CURVE SMOOTH",
"670 319 OFFCURVE",
"710 350 OFFCURVE",
"718 404 CURVE SMOOTH",
"728 469 OFFCURVE",
"679 529 OFFCURVE",
"593 529 CURVE SMOOTH"
);
}
);
width = 699;
},
{
associatedMasterId = "FF8CB9F1-2B98-444C-A502-96421F2531A8";
layerId = "5BC5E7F8-77C1-4470-A525-5B9A6FF21ABA";
name = "Bold Italic Jul 15 15, 09:56";
paths = (
{
closed = 1;
nodes = (
"238 1058 OFFCURVE",
"211 1043 OFFCURVE",
"211 1020 CURVE SMOOTH",
"211 991 OFFCURVE",
"236 974 OFFCURVE",
"217 913 CURVE SMOOTH",
"0 214 LINE SMOOTH",
"-50 56 OFFCURVE",
"89 -4 OFFCURVE",
"185 -4 CURVE SMOOTH",
"245 -4 OFFCURVE",
"281 24 OFFCURVE",
"306 107 CURVE SMOOTH",
"528 831 LINE SMOOTH",
"565 950 OFFCURVE",
"420 1058 OFFCURVE",
"280 1058 CURVE SMOOTH"
);
},
{
closed = 1;
nodes = (
"467 442 OFFCURVE",
"403 481 OFFCURVE",
"304 380 CURVE",
"352 299 LINE",
"379 341 OFFCURVE",
"382 353 OFFCURVE",
"406 353 CURVE SMOOTH",
"432 353 OFFCURVE",
"470 332 OFFCURVE",
"458 283 CURVE SMOOTH",
"440 207 LINE SMOOTH",
"411 86 OFFCURVE",
"497 -4 OFFCURVE",
"644 -4 CURVE SMOOTH",
"789 -4 OFFCURVE",
"842 88 OFFCURVE",
"842 166 CURVE SMOOTH",
"842 182 OFFCURVE",
"836 198 OFFCURVE",
"826 198 CURVE SMOOTH",
"815 198 OFFCURVE",
"807 168 OFFCURVE",
"780 168 CURVE SMOOTH",
"764 168 OFFCURVE",
"757 181 OFFCURVE",
"764 206 CURVE SMOOTH",
"778 259 LINE SMOOTH",
"808 372 OFFCURVE",
"717 442 OFFCURVE",
"527 442 CURVE SMOOTH"
);
},
{
closed = 1;
nodes = (
"535 756 OFFCURVE",
"527 471 OFFCURVE",
"332 484 CURVE",
"467 410 LINE",
"591 440 OFFCURVE",
"595 552 OFFCURVE",
"658 576 CURVE",
"642 509 OFFCURVE",
"682 462 OFFCURVE",
"773 462 CURVE SMOOTH",
"849 462 OFFCURVE",
"933 515 OFFCURVE",
"933 613 CURVE SMOOTH",
"933 700 OFFCURVE",
"857 756 OFFCURVE",
"749 756 CURVE SMOOTH"
);
}
);
width = 908;
},
{
associatedMasterId = "FF8CB9F1-2B98-444C-A502-96421F2531A8";
layerId = "7727856F-9FA0-4CBF-98EE-97BAEACE47D5";
name = "Bold Italic Jul 15 15, 09:58";
paths = (
{
closed = 1;
nodes = (
"238 1058 OFFCURVE",
"211 1043 OFFCURVE",
"211 1020 CURVE SMOOTH",
"211 991 OFFCURVE",
"236 974 OFFCURVE",
"217 913 CURVE SMOOTH",
"0 214 LINE SMOOTH",
"-50 56 OFFCURVE",
"89 -4 OFFCURVE",
"185 -4 CURVE SMOOTH",
"245 -4 OFFCURVE",
"281 24 OFFCURVE",
"306 107 CURVE SMOOTH",
"528 831 LINE SMOOTH",
"565 950 OFFCURVE",
"420 1058 OFFCURVE",
"280 1058 CURVE SMOOTH"
);
},
{
closed = 1;
nodes = (
"467 442 OFFCURVE",
"373 426 OFFCURVE",
"304 380 CURVE",
"352 299 LINE",
"379 341 OFFCURVE",
"382 353 OFFCURVE",
"406 353 CURVE SMOOTH",
"432 353 OFFCURVE",
"470 332 OFFCURVE",
"458 283 CURVE SMOOTH",
"440 207 LINE SMOOTH",
"411 86 OFFCURVE",
"497 -4 OFFCURVE",
"644 -4 CURVE SMOOTH",
"789 -4 OFFCURVE",
"842 88 OFFCURVE",
"842 166 CURVE SMOOTH",
"842 182 OFFCURVE",
"836 198 OFFCURVE",
"826 198 CURVE SMOOTH",
"815 198 OFFCURVE",
"807 168 OFFCURVE",
"780 168 CURVE SMOOTH",
"764 168 OFFCURVE",
"757 181 OFFCURVE",
"764 206 CURVE SMOOTH",
"778 259 LINE SMOOTH",
"808 372 OFFCURVE",
"717 442 OFFCURVE",
"527 442 CURVE SMOOTH"
);
},
{
closed = 1;
nodes = (
"678 756 OFFCURVE",
"631 714 OFFCURVE",
"561 644 CURVE SMOOTH",
"357 441 LINE",
"440 367 LINE",
"639 543 LINE",
"673 496 OFFCURVE",
"720 466 OFFCURVE",
"785 466 CURVE SMOOTH",
"887 466 OFFCURVE",
"933 542 OFFCURVE",
"933 612 CURVE SMOOTH",
"933 694 OFFCURVE",
"851 756 OFFCURVE",
"761 756 CURVE SMOOTH"
);
}
);
width = 908;
},
{
associatedMasterId = "FF8CB9F1-2B98-444C-A502-96421F2531A8";
background = {
guideLines = (
{
angle = 74.0546;
position = "{764, 206}";
}
);
paths = (
{
closed = 1;
nodes = (
"666 1058 OFFCURVE",
"639 1043 OFFCURVE",
"639 1020 CURVE SMOOTH",
"639 991 OFFCURVE",
"664 974 OFFCURVE",
"645 913 CURVE SMOOTH",
"428 214 LINE SMOOTH",
"378 56 OFFCURVE",
"517 -4 OFFCURVE",
"613 -4 CURVE SMOOTH",
"673 -4 OFFCURVE",
"709 24 OFFCURVE",
"734 107 CURVE SMOOTH",
"956 831 LINE SMOOTH",
"993 950 OFFCURVE",
"848 1058 OFFCURVE",
"708 1058 CURVE SMOOTH"
);
}
);
};
layerId = "E54C8495-C862-408B-AB27-4F4C2D6D9077";
name = "Bold Italic Jul 27 15, 14:47";
paths = (
{
closed = 1;
nodes = (
"238 1058 OFFCURVE",
"211 1043 OFFCURVE",
"211 1020 CURVE SMOOTH",
"211 991 OFFCURVE",
"236 974 OFFCURVE",
"217 913 CURVE SMOOTH",
"0 214 LINE SMOOTH",
"-50 56 OFFCURVE",
"89 -4 OFFCURVE",
"185 -4 CURVE SMOOTH",
"245 -4 OFFCURVE",
"281 24 OFFCURVE",
"306 107 CURVE SMOOTH",
"528 831 LINE SMOOTH",
"565 950 OFFCURVE",
"420 1058 OFFCURVE",
"280 1058 CURVE SMOOTH"
);
},
{
closed = 1;
nodes = (
"398 440 LINE",
"367 358 LINE",
"409 358 LINE SMOOTH",
"458 358 OFFCURVE",
"467 340 OFFCURVE",
"450 285 CURVE SMOOTH",
"426 207 LINE SMOOTH",
"390 89 OFFCURVE",
"485 -4 OFFCURVE",
"628 -4 CURVE SMOOTH",
"789 -4 OFFCURVE",
"842 88 OFFCURVE",
"842 166 CURVE SMOOTH",
"842 182 OFFCURVE",
"836 198 OFFCURVE",
"826 198 CURVE SMOOTH",
"815 198 OFFCURVE",
"807 168 OFFCURVE",
"780 168 CURVE SMOOTH",
"764 168 OFFCURVE",
"756 181 OFFCURVE",
"764 206 CURVE SMOOTH",
"775 241 LINE SMOOTH",
"811 355 OFFCURVE",
"759 440 OFFCURVE",
"567 440 CURVE SMOOTH"
);
},
{
closed = 1;
nodes = (
"651 755 OFFCURVE",
"576 689 OFFCURVE",
"541 577 CURVE SMOOTH",
"529 538 LINE SMOOTH",
"516 496 OFFCURVE",
"493 471 OFFCURVE",
"453 471 CURVE SMOOTH",
"401 471 LINE",
"349 400 LINE",
"483 400 LINE SMOOTH",
"555 400 OFFCURVE",
"608 415 OFFCURVE",
"631 488 CURVE SMOOTH",
"649 546 OFFCURVE",
"661 558 OFFCURVE",
"679 555 CURVE",
"676 509 OFFCURVE",
"716 456 OFFCURVE",
"801 456 CURVE SMOOTH",
"881 456 OFFCURVE",
"939 500 OFFCURVE",
"952 577 CURVE SMOOTH",
"967 670 OFFCURVE",
"899 755 OFFCURVE",
"765 755 CURVE SMOOTH"
);
}
);
width = 908;
}
);
leftKerningGroup = k;
leftMetricsKey = l;
rightKerningGroup = k;
unicode = 006B;
},
{
glyphname = l;
lastChange = "2015-10-05 13:20:02 +0000";
layers = (
{
anchors = (
{
name = right;
position = "{462, 739}";
},
{
name = top;
position = "{312, 705}";
}
);
background = {
paths = (
{
closed = 1;
nodes = (
"233 719 OFFCURVE",
"139 693 OFFCURVE",
"131 662 CURVE SMOOTH",
"123 629 OFFCURVE",
"178 634 OFFCURVE",
"164 585 CURVE SMOOTH",
"18 106 LINE SMOOTH",
"-1 46 OFFCURVE",
"-36 59 OFFCURVE",
"-45 31 CURVE SMOOTH",
"-50 13 OFFCURVE",
"-35 0 OFFCURVE",
"1 0 CURVE SMOOTH",
"229 0 LINE SMOOTH",
"272 0 OFFCURVE",
"289 8 OFFCURVE",
"295 25 CURVE SMOOTH",
"302 51 OFFCURVE",
"251 48 OFFCURVE",
"268 104 CURVE SMOOTH",
"419 594 LINE SMOOTH",
"439 663 OFFCURVE",
"417 719 OFFCURVE",
"313 719 CURVE SMOOTH"
);
}
);
};
layerId = "FF8CB9F1-2B98-444C-A502-96421F2531A8";
name = "Bold Italic";
paths = (
{
closed = 1;
nodes = (
"239 739 OFFCURVE",
"145 713 OFFCURVE",
"137 682 CURVE SMOOTH",
"129 649 OFFCURVE",
"185 654 OFFCURVE",
"170 605 CURVE SMOOTH",
"18 106 LINE SMOOTH",
"0 46 OFFCURVE",
"-36 59 OFFCURVE",
"-45 31 CURVE SMOOTH",
"-50 13 OFFCURVE",
"-35 0 OFFCURVE",
"1 0 CURVE SMOOTH",
"229 0 LINE SMOOTH",
"272 0 OFFCURVE",
"289 8 OFFCURVE",
"295 25 CURVE SMOOTH",
"302 51 OFFCURVE",
"251 48 OFFCURVE",
"268 104 CURVE SMOOTH",
"425 614 LINE SMOOTH",
"446 683 OFFCURVE",
"423 739 OFFCURVE",
"319 739 CURVE SMOOTH"
);
}
);
width = 366;
},
{
associatedMasterId = "FF8CB9F1-2B98-444C-A502-96421F2531A8";
background = {
paths = (
{
closed = 1;
nodes = (
"268 1058 OFFCURVE",
"241 1043 OFFCURVE",
"241 1020 CURVE SMOOTH",
"241 991 OFFCURVE",
"267 974 OFFCURVE",
"247 913 CURVE SMOOTH",
"38 271 LINE SMOOTH",
"21 227 OFFCURVE",
"11 189 OFFCURVE",
"11 156 CURVE SMOOTH",
"11 59 OFFCURVE",
"99 -4 OFFCURVE",
"218 -4 CURVE SMOOTH",
"344 -4 OFFCURVE",
"444 88 OFFCURVE",
"444 166 CURVE SMOOTH",
"444 182 OFFCURVE",
"438 198 OFFCURVE",
"428 198 CURVE SMOOTH",
"417 198 OFFCURVE",
"409 168 OFFCURVE",
"382 168 CURVE SMOOTH",
"366 168 OFFCURVE",
"359 183 OFFCURVE",
"366 206 CURVE SMOOTH",
"558 831 LINE SMOOTH",
"595 950 OFFCURVE",
"450 1058 OFFCURVE",
"310 1058 CURVE SMOOTH"
);
}
);
};
layerId = "4EB0801A-1EB8-47FB-9761-210B38ECE40F";
name = "Bold Italic Jul 27 15, 14:41";
paths = (
{
closed = 1;
nodes = (
"268 1058 OFFCURVE",
"241 1043 OFFCURVE",
"241 1020 CURVE SMOOTH",
"241 991 OFFCURVE",
"267 974 OFFCURVE",
"247 913 CURVE SMOOTH",
"38 271 LINE SMOOTH",
"21 227 OFFCURVE",
"11 189 OFFCURVE",
"11 156 CURVE SMOOTH",
"11 59 OFFCURVE",
"99 -4 OFFCURVE",
"218 -4 CURVE SMOOTH",
"344 -4 OFFCURVE",
"444 88 OFFCURVE",
"444 166 CURVE SMOOTH",
"444 182 OFFCURVE",
"438 198 OFFCURVE",
"428 198 CURVE SMOOTH",
"417 198 OFFCURVE",
"409 168 OFFCURVE",
"382 168 CURVE SMOOTH",
"366 168 OFFCURVE",
"359 183 OFFCURVE",
"366 206 CURVE SMOOTH",
"558 831 LINE SMOOTH",
"595 950 OFFCURVE",
"450 1058 OFFCURVE",
"310 1058 CURVE SMOOTH"
);
}
);
width = 512;
}
);
leftKerningGroup = l;
rightKerningGroup = l;
unicode = 006C;
},
{
glyphname = lslash;
lastChange = "2015-10-04 15:13:33 +0000";
layers = (
{
background = {
anchors = (
{
name = bottom;
position = "{335, 0}";
},
{
name = right;
position = "{514, 666}";
},
{
name = top;
position = "{310, 651}";
}
);
paths = (
{
closed = 1;
nodes = (
"1 292 OFFCURVE",
"15 272 OFFCURVE",
"48 275 CURVE SMOOTH",
"398 312 LINE SMOOTH",
"432 316 OFFCURVE",
"452 329 OFFCURVE",
"461 358 CURVE SMOOTH",
"468 387 OFFCURVE",
"455 408 OFFCURVE",
"421 404 CURVE SMOOTH",
"72 367 LINE SMOOTH",
"39 364 OFFCURVE",
"17 350 OFFCURVE",
"9 321 CURVE SMOOTH"
);
},
{
closed = 1;
nodes = (
"533 258 OFFCURVE",
"512 245 OFFCURVE",
"488 216 CURVE SMOOTH",
"419 134 LINE SMOOTH",
"394 104 OFFCURVE",
"375 96 OFFCURVE",
"345 96 CURVE SMOOTH",
"283 96 LINE",
"412 549 LINE SMOOTH",
"429 608 OFFCURVE",
"467 597 OFFCURVE",
"480 628 CURVE SMOOTH",
"490 651 OFFCURVE",
"475 666 OFFCURVE",
"439 666 CURVE SMOOTH",
"204 666 LINE SMOOTH",
"168 666 OFFCURVE",
"150 660 OFFCURVE",
"145 642 CURVE",
"133 608 OFFCURVE",
"178 609 OFFCURVE",
"161 549 CURVE SMOOTH",
"39 118 LINE SMOOTH",
"22 58 OFFCURVE",
"-16 69 OFFCURVE",
"-29 39 CURVE",
"-38 15 OFFCURVE",
"-24 0 OFFCURVE",
"12 0 CURVE SMOOTH",
"482 0 LINE SMOOTH",
"543 0 OFFCURVE",
"571 20 OFFCURVE",
"588 77 CURVE SMOOTH",
"621 194 LINE SMOOTH",
"632 234 OFFCURVE",
"612 258 OFFCURVE",
"567 258 CURVE SMOOTH"
);
}
);
};
components = (
{
name = l;
transform = "{1, 0, 0, 1, 16, 0}";
}
);
layerId = "FF8CB9F1-2B98-444C-A502-96421F2531A8";
name = "Bold Italic";
paths = (
{
closed = 1;
nodes = (
"1 319 OFFCURVE",
"15 299 OFFCURVE",
"48 302 CURVE SMOOTH",
"398 339 LINE SMOOTH",
"432 343 OFFCURVE",
"452 356 OFFCURVE",
"461 385 CURVE SMOOTH",
"468 414 OFFCURVE",
"455 435 OFFCURVE",
"421 431 CURVE SMOOTH",
"72 394 LINE SMOOTH",
"39 391 OFFCURVE",
"17 377 OFFCURVE",
"9 348 CURVE SMOOTH"
);
}
);
width = 408;
}
);
leftKerningGroup = l;
rightKerningGroup = l;
unicode = 0142;
},
{
glyphname = m;
lastChange = "2015-10-05 13:07:43 +0000";
layers = (
{
background = {
paths = (
{
closed = 1;
nodes = (
"264 755 OFFCURVE",
"133 709 OFFCURVE",
"122 673 CURVE SMOOTH",
"107 626 OFFCURVE",
"188 630 OFFCURVE",
"166 564 CURVE SMOOTH",
"32 152 LINE SMOOTH",
"4 65 OFFCURVE",
"-46 85 OFFCURVE",
"-59 44 CURVE SMOOTH",
"-67 19 OFFCURVE",
"-46 0 OFFCURVE",
"5 0 CURVE SMOOTH",
"331 0 LINE SMOOTH",
"392 0 OFFCURVE",
"417 11 OFFCURVE",
"425 35 CURVE SMOOTH",
"437 73 OFFCURVE",
"364 68 OFFCURVE",
"390 148 CURVE SMOOTH",
"521 548 LINE SMOOTH",
"562 673 OFFCURVE",
"500 755 OFFCURVE",
"382 755 CURVE SMOOTH"
);
},
{
closed = 1;
nodes = (
"686 755 OFFCURVE",
"574 711 OFFCURVE",
"471 505 CURVE",
"484 435 LINE",
"512 517 OFFCURVE",
"557 542 OFFCURVE",
"587 542 CURVE SMOOTH",
"616 542 OFFCURVE",
"639 519 OFFCURVE",
"620 472 CURVE SMOOTH",
"538 266 LINE SMOOTH",
"521 222 OFFCURVE",
"511 180 OFFCURVE",
"511 147 CURVE SMOOTH",
"511 50 OFFCURVE",
"589 -13 OFFCURVE",
"715 -13 CURVE SMOOTH",
"876 -13 OFFCURVE",
"961 79 OFFCURVE",
"961 157 CURVE SMOOTH",
"961 173 OFFCURVE",
"955 189 OFFCURVE",
"945 189 CURVE SMOOTH",
"934 189 OFFCURVE",
"926 159 OFFCURVE",
"899 159 CURVE SMOOTH",
"883 159 OFFCURVE",
"875 174 OFFCURVE",
"883 197 CURVE SMOOTH",
"976 479 LINE SMOOTH",
"1028 635 OFFCURVE",
"946 755 OFFCURVE",
"800 755 CURVE SMOOTH"
);
},
{
closed = 1;
nodes = (
"1163 755 OFFCURVE",
"1051 711 OFFCURVE",
"948 505 CURVE",
"961 435 LINE",
"989 517 OFFCURVE",
"1034 542 OFFCURVE",
"1064 542 CURVE SMOOTH",
"1093 542 OFFCURVE",
"1116 519 OFFCURVE",
"1097 472 CURVE SMOOTH",
"1015 266 LINE SMOOTH",
"998 222 OFFCURVE",
"988 180 OFFCURVE",
"988 147 CURVE SMOOTH",
"988 50 OFFCURVE",
"1066 -13 OFFCURVE",
"1192 -13 CURVE SMOOTH",
"1353 -13 OFFCURVE",
"1438 79 OFFCURVE",
"1438 157 CURVE SMOOTH",
"1438 173 OFFCURVE",
"1432 189 OFFCURVE",
"1422 189 CURVE SMOOTH",
"1411 189 OFFCURVE",
"1403 159 OFFCURVE",
"1376 159 CURVE SMOOTH",
"1360 159 OFFCURVE",
"1352 174 OFFCURVE",
"1360 197 CURVE SMOOTH",
"1453 479 LINE SMOOTH",
"1505 635 OFFCURVE",
"1423 755 OFFCURVE",
"1277 755 CURVE SMOOTH"
);
}
);
};
layerId = "FF8CB9F1-2B98-444C-A502-96421F2531A8";
name = "Bold Italic";
paths = (
{
closed = 1;
nodes = (
"472 529 OFFCURVE",
"394 498 OFFCURVE",
"324 354 CURVE",
"335 305 LINE",
"353 362 OFFCURVE",
"384 379 OFFCURVE",
"405 379 CURVE SMOOTH",
"425 379 OFFCURVE",
"442 363 OFFCURVE",
"429 330 CURVE SMOOTH",
"374 186 LINE SMOOTH",
"362 155 OFFCURVE",
"356 126 OFFCURVE",
"356 103 CURVE SMOOTH",
"357 35 OFFCURVE",
"413 -9 OFFCURVE",
"501 -9 CURVE SMOOTH",
"614 -9 OFFCURVE",
"672 55 OFFCURVE",
"671 110 CURVE SMOOTH",
"671 121 OFFCURVE",
"667 132 OFFCURVE",
"660 132 CURVE SMOOTH",
"653 132 OFFCURVE",
"647 111 OFFCURVE",
"628 111 CURVE SMOOTH",
"617 111 OFFCURVE",
"611 122 OFFCURVE",
"617 138 CURVE SMOOTH",
"678 335 LINE SMOOTH",
"712 445 OFFCURVE",
"654 529 OFFCURVE",
"552 529 CURVE SMOOTH"
);
},
{
closed = 1;
nodes = (
"806 529 OFFCURVE",
"727 498 OFFCURVE",
"658 354 CURVE",
"668 305 LINE",
"687 362 OFFCURVE",
"718 379 OFFCURVE",
"739 379 CURVE SMOOTH",
"759 379 OFFCURVE",
"776 363 OFFCURVE",
"763 330 CURVE SMOOTH",
"708 186 LINE SMOOTH",
"696 155 OFFCURVE",
"690 126 OFFCURVE",
"690 103 CURVE SMOOTH",
"691 35 OFFCURVE",
"747 -9 OFFCURVE",
"835 -9 CURVE SMOOTH",
"948 -9 OFFCURVE",
"1006 55 OFFCURVE",
"1005 110 CURVE SMOOTH",
"1005 121 OFFCURVE",
"1001 132 OFFCURVE",
"994 132 CURVE SMOOTH",
"986 132 OFFCURVE",
"981 111 OFFCURVE",
"962 111 CURVE SMOOTH",
"951 111 OFFCURVE",
"945 122 OFFCURVE",
"951 138 CURVE SMOOTH",
"1012 335 LINE SMOOTH",
"1046 445 OFFCURVE",
"988 529 OFFCURVE",
"886 529 CURVE SMOOTH"
);
},
{
closed = 1;
nodes = (
"388 472 OFFCURVE",
"343 529 OFFCURVE",
"262 529 CURVE SMOOTH",
"182 529 OFFCURVE",
"88 503 OFFCURVE",
"80 471 CURVE SMOOTH",
"71 438 OFFCURVE",
"126 443 OFFCURVE",
"112 395 CURVE SMOOTH",
"23 106 LINE SMOOTH",
"4 46 OFFCURVE",
"-31 59 OFFCURVE",
"-40 31 CURVE SMOOTH",
"-44 13 OFFCURVE",
"-30 0 OFFCURVE",
"6 0 CURVE SMOOTH",
"234 0 LINE SMOOTH",
"277 0 OFFCURVE",
"295 8 OFFCURVE",
"300 25 CURVE SMOOTH",
"308 51 OFFCURVE",
"256 48 OFFCURVE",
"274 104 CURVE SMOOTH",
"358 378 LINE SMOOTH"
);
}
);
width = 1048;
},
{
associatedMasterId = "FF8CB9F1-2B98-444C-A502-96421F2531A8";
background = {
paths = (
{
closed = 1;
nodes = (
"159 755 OFFCURVE",
"127 740 OFFCURVE",
"127 721 CURVE SMOOTH",
"127 698 OFFCURVE",
"157 681 OFFCURVE",
"138 626 CURVE SMOOTH",
"5 238 LINE SMOOTH",
"-46 88 OFFCURVE",
"46 -4 OFFCURVE",
"175 -4 CURVE SMOOTH",
"255 -4 OFFCURVE",
"294 35 OFFCURVE",
"319 117 CURVE SMOOTH",
"446 533 LINE SMOOTH",
"482 652 OFFCURVE",
"392 755 OFFCURVE",
"224 755 CURVE SMOOTH"
);
},
{
closed = 1;
nodes = (
"466 271 LINE SMOOTH",
"449 227 OFFCURVE",
"439 189 OFFCURVE",
"439 156 CURVE SMOOTH",
"439 49 OFFCURVE",
"527 -4 OFFCURVE",
"646 -4 CURVE SMOOTH",
"772 -4 OFFCURVE",
"872 88 OFFCURVE",
"872 166 CURVE SMOOTH",
"872 182 OFFCURVE",
"866 198 OFFCURVE",
"856 198 CURVE SMOOTH",
"845 198 OFFCURVE",
"837 168 OFFCURVE",
"810 168 CURVE SMOOTH",
"794 168 OFFCURVE",
"787 183 OFFCURVE",
"794 206 CURVE SMOOTH",
"878 479 LINE SMOOTH",
"925 632 OFFCURVE",
"852 755 OFFCURVE",
"692 755 CURVE SMOOTH",
"586 755 OFFCURVE",
"476 711 OFFCURVE",
"372 535 CURVE",
"425 465 LINE",
"445 528 OFFCURVE",
"479 542 OFFCURVE",
"502 542 CURVE SMOOTH",
"534 542 OFFCURVE",
"560 519 OFFCURVE",
"542 472 CURVE SMOOTH"
);
},
{
closed = 1;
nodes = (
"926 271 LINE SMOOTH",
"909 227 OFFCURVE",
"899 189 OFFCURVE",
"899 156 CURVE SMOOTH",
"899 49 OFFCURVE",
"987 -4 OFFCURVE",
"1106 -4 CURVE SMOOTH",
"1232 -4 OFFCURVE",
"1332 88 OFFCURVE",
"1332 166 CURVE SMOOTH",
"1332 182 OFFCURVE",
"1326 198 OFFCURVE",
"1316 198 CURVE SMOOTH",
"1305 198 OFFCURVE",
"1297 168 OFFCURVE",
"1270 168 CURVE SMOOTH",
"1254 168 OFFCURVE",
"1247 183 OFFCURVE",
"1254 206 CURVE SMOOTH",
"1338 479 LINE SMOOTH",
"1385 632 OFFCURVE",
"1312 755 OFFCURVE",
"1152 755 CURVE SMOOTH",
"1046 755 OFFCURVE",
"936 711 OFFCURVE",
"832 535 CURVE",
"885 465 LINE",
"905 528 OFFCURVE",
"939 542 OFFCURVE",
"962 542 CURVE SMOOTH",
"994 542 OFFCURVE",
"1020 519 OFFCURVE",
"1002 472 CURVE SMOOTH"
);
}
);
};
layerId = "B2E94D97-3223-4D64-8496-19A498D9A8B3";
leftMetricsKey = "=m";
rightMetricsKey = "=n";
name = "Bold Italic Jul 6 15, 12:27";
paths = (
{
closed = 1;
nodes = (
"159 755 OFFCURVE",
"127 740 OFFCURVE",
"127 721 CURVE SMOOTH",
"127 698 OFFCURVE",
"157 681 OFFCURVE",
"138 626 CURVE SMOOTH",
"5 238 LINE SMOOTH",
"-46 88 OFFCURVE",
"46 -4 OFFCURVE",
"175 -4 CURVE SMOOTH",
"255 -4 OFFCURVE",
"294 35 OFFCURVE",
"319 117 CURVE SMOOTH",
"446 533 LINE SMOOTH",
"482 652 OFFCURVE",
"392 755 OFFCURVE",
"224 755 CURVE SMOOTH"
);
},
{
closed = 1;
nodes = (
"466 271 LINE SMOOTH",
"449 227 OFFCURVE",
"439 189 OFFCURVE",
"439 156 CURVE SMOOTH",
"439 49 OFFCURVE",
"527 -4 OFFCURVE",
"646 -4 CURVE SMOOTH",
"782 -4 OFFCURVE",
"859 88 OFFCURVE",
"859 166 CURVE SMOOTH",
"859 182 OFFCURVE",
"853 198 OFFCURVE",
"843 198 CURVE SMOOTH",
"832 198 OFFCURVE",
"818 172 OFFCURVE",
"804 172 CURVE SMOOTH",
"792 172 OFFCURVE",
"786 181 OFFCURVE",
"792 200 CURVE SMOOTH",
"878 479 LINE SMOOTH",
"925 632 OFFCURVE",
"852 755 OFFCURVE",
"692 755 CURVE SMOOTH",
"586 755 OFFCURVE",
"476 711 OFFCURVE",
"372 535 CURVE",
"425 465 LINE",
"445 528 OFFCURVE",
"479 542 OFFCURVE",
"502 542 CURVE SMOOTH",
"534 542 OFFCURVE",
"560 519 OFFCURVE",
"542 472 CURVE SMOOTH"
);
},
{
closed = 1;
nodes = (
"926 271 LINE SMOOTH",
"909 227 OFFCURVE",
"899 189 OFFCURVE",
"899 156 CURVE SMOOTH",
"899 49 OFFCURVE",
"987 -4 OFFCURVE",
"1106 -4 CURVE SMOOTH",
"1232 -4 OFFCURVE",
"1332 88 OFFCURVE",
"1332 166 CURVE SMOOTH",
"1332 182 OFFCURVE",
"1326 198 OFFCURVE",
"1316 198 CURVE SMOOTH",
"1305 198 OFFCURVE",
"1297 168 OFFCURVE",
"1270 168 CURVE SMOOTH",
"1254 168 OFFCURVE",
"1247 183 OFFCURVE",
"1254 206 CURVE SMOOTH",
"1338 479 LINE SMOOTH",
"1385 632 OFFCURVE",
"1312 755 OFFCURVE",
"1152 755 CURVE SMOOTH",
"1046 755 OFFCURVE",
"923 711 OFFCURVE",
"819 535 CURVE",
"874 465 LINE",
"892 525 OFFCURVE",
"930 542 OFFCURVE",
"960 542 CURVE SMOOTH",
"997 542 OFFCURVE",
"1020 519 OFFCURVE",
"1002 472 CURVE SMOOTH"
);
}
);
width = 1398;
},
{
associatedMasterId = "FF8CB9F1-2B98-444C-A502-96421F2531A8";
background = {
paths = (
{
closed = 1;
nodes = (
"159 755 OFFCURVE",
"127 740 OFFCURVE",
"127 721 CURVE SMOOTH",
"127 698 OFFCURVE",
"157 681 OFFCURVE",
"138 626 CURVE SMOOTH",
"5 238 LINE SMOOTH",
"-46 88 OFFCURVE",
"46 -4 OFFCURVE",
"175 -4 CURVE SMOOTH",
"255 -4 OFFCURVE",
"294 35 OFFCURVE",
"319 117 CURVE SMOOTH",
"446 533 LINE SMOOTH",
"482 652 OFFCURVE",
"392 755 OFFCURVE",
"224 755 CURVE SMOOTH"
);
},
{
closed = 1;
nodes = (
"466 271 LINE SMOOTH",
"449 227 OFFCURVE",
"439 189 OFFCURVE",
"439 156 CURVE SMOOTH",
"439 49 OFFCURVE",
"527 -4 OFFCURVE",
"646 -4 CURVE SMOOTH",
"772 -4 OFFCURVE",
"872 88 OFFCURVE",
"872 166 CURVE SMOOTH",
"872 182 OFFCURVE",
"866 198 OFFCURVE",
"856 198 CURVE SMOOTH",
"845 198 OFFCURVE",
"837 168 OFFCURVE",
"810 168 CURVE SMOOTH",
"794 168 OFFCURVE",
"787 183 OFFCURVE",
"794 206 CURVE SMOOTH",
"878 479 LINE SMOOTH",
"925 632 OFFCURVE",
"852 755 OFFCURVE",
"692 755 CURVE SMOOTH",
"586 755 OFFCURVE",
"476 711 OFFCURVE",
"372 535 CURVE",
"425 465 LINE",
"445 528 OFFCURVE",
"479 542 OFFCURVE",
"502 542 CURVE SMOOTH",
"534 542 OFFCURVE",
"560 519 OFFCURVE",
"542 472 CURVE SMOOTH"
);
},
{
closed = 1;
nodes = (
"914 271 LINE SMOOTH",
"897 227 OFFCURVE",
"887 189 OFFCURVE",
"887 156 CURVE SMOOTH",
"887 49 OFFCURVE",
"975 -4 OFFCURVE",
"1094 -4 CURVE SMOOTH",
"1220 -4 OFFCURVE",
"1320 88 OFFCURVE",
"1320 166 CURVE SMOOTH",
"1320 182 OFFCURVE",
"1314 198 OFFCURVE",
"1304 198 CURVE SMOOTH",
"1293 198 OFFCURVE",
"1285 168 OFFCURVE",
"1258 168 CURVE SMOOTH",
"1242 168 OFFCURVE",
"1235 183 OFFCURVE",
"1242 206 CURVE SMOOTH",
"1326 479 LINE SMOOTH",
"1373 632 OFFCURVE",
"1300 755 OFFCURVE",
"1140 755 CURVE SMOOTH",
"1034 755 OFFCURVE",
"924 711 OFFCURVE",
"820 535 CURVE",
"873 465 LINE",
"893 528 OFFCURVE",
"927 542 OFFCURVE",
"950 542 CURVE SMOOTH",
"982 542 OFFCURVE",
"1008 519 OFFCURVE",
"990 472 CURVE SMOOTH"
);
}
);
};
layerId = "C719D739-AF3B-44E3-8624-1268672D0ACD";
leftMetricsKey = "=m";
rightMetricsKey = "=n";
name = "Bold Italic Jul 27 15, 12:53";
paths = (
{
closed = 1;
nodes = (
"1024 755 OFFCURVE",
"914 707 OFFCURVE",
"810 535 CURVE",
"873 465 LINE",
"893 528 OFFCURVE",
"927 542 OFFCURVE",
"950 542 CURVE SMOOTH",
"982 542 OFFCURVE",
"1008 519 OFFCURVE",
"990 472 CURVE SMOOTH",
"914 271 LINE SMOOTH",
"897 227 OFFCURVE",
"887 189 OFFCURVE",
"887 156 CURVE SMOOTH",
"887 49 OFFCURVE",
"975 -4 OFFCURVE",
"1094 -4 CURVE SMOOTH",
"1220 -4 OFFCURVE",
"1320 88 OFFCURVE",
"1320 166 CURVE SMOOTH",
"1320 182 OFFCURVE",
"1314 198 OFFCURVE",
"1304 198 CURVE SMOOTH",
"1293 198 OFFCURVE",
"1285 168 OFFCURVE",
"1258 168 CURVE SMOOTH",
"1242 168 OFFCURVE",
"1235 183 OFFCURVE",
"1242 206 CURVE SMOOTH",
"1326 479 LINE SMOOTH",
"1373 632 OFFCURVE",
"1300 755 OFFCURVE",
"1140 755 CURVE SMOOTH"
);
},
{
closed = 1;
nodes = (
"159 755 OFFCURVE",
"127 740 OFFCURVE",
"127 721 CURVE SMOOTH",
"127 698 OFFCURVE",
"157 681 OFFCURVE",
"138 626 CURVE SMOOTH",
"5 238 LINE SMOOTH",
"-46 88 OFFCURVE",
"46 -4 OFFCURVE",
"175 -4 CURVE SMOOTH",
"255 -4 OFFCURVE",
"294 35 OFFCURVE",
"319 117 CURVE SMOOTH",
"446 533 LINE SMOOTH",
"482 652 OFFCURVE",
"392 755 OFFCURVE",
"224 755 CURVE SMOOTH"
);
},
{
closed = 1;
nodes = (
"586 755 OFFCURVE",
"476 711 OFFCURVE",
"372 535 CURVE",
"425 465 LINE",
"445 528 OFFCURVE",
"479 542 OFFCURVE",
"502 542 CURVE SMOOTH",
"534 542 OFFCURVE",
"560 519 OFFCURVE",
"542 472 CURVE SMOOTH",
"454 238 LINE SMOOTH",
"399 90 OFFCURVE",
"495 -4 OFFCURVE",
"624 -4 CURVE SMOOTH",
"704 -4 OFFCURVE",
"743 35 OFFCURVE",
"768 117 CURVE SMOOTH",
"878 479 LINE SMOOTH",
"925 632 OFFCURVE",
"852 755 OFFCURVE",
"692 755 CURVE SMOOTH"
);
}
);
width = 1386;
}
);
leftMetricsKey = n;
rightKerningGroup = m;
rightMetricsKey = n;
unicode = 006D;
},
{
glyphname = n;
lastChange = "2015-10-05 13:06:27 +0000";
layers = (
{
anchors = (
{
name = bottom;
position = "{374, 0}";
},
{
name = top;
position = "{378, 500}";
}
);
background = {
paths = (
{
closed = 1;
nodes = (
"483 529 OFFCURVE",
"405 498 OFFCURVE",
"332 354 CURVE",
"342 305 LINE",
"361 362 OFFCURVE",
"393 379 OFFCURVE",
"414 379 CURVE SMOOTH",
"434 379 OFFCURVE",
"450 363 OFFCURVE",
"437 330 CURVE SMOOTH",
"379 186 LINE SMOOTH",
"367 155 OFFCURVE",
"360 126 OFFCURVE",
"360 103 CURVE SMOOTH",
"360 35 OFFCURVE",
"415 -9 OFFCURVE",
"503 -9 CURVE SMOOTH",
"616 -9 OFFCURVE",
"675 55 OFFCURVE",
"675 110 CURVE SMOOTH",
"675 121 OFFCURVE",
"671 132 OFFCURVE",
"664 132 CURVE SMOOTH",
"657 132 OFFCURVE",
"651 111 OFFCURVE",
"632 111 CURVE SMOOTH",
"621 111 OFFCURVE",
"615 122 OFFCURVE",
"621 138 CURVE SMOOTH",
"686 335 LINE SMOOTH",
"722 445 OFFCURVE",
"665 529 OFFCURVE",
"563 529 CURVE SMOOTH"
);
},
{
closed = 1;
nodes = (
"396 472 OFFCURVE",
"352 529 OFFCURVE",
"271 529 CURVE SMOOTH",
"191 529 OFFCURVE",
"97 503 OFFCURVE",
"88 471 CURVE SMOOTH",
"79 438 OFFCURVE",
"134 443 OFFCURVE",
"119 395 CURVE SMOOTH",
"25 106 LINE SMOOTH",
"5 46 OFFCURVE",
"-30 59 OFFCURVE",
"-39 31 CURVE SMOOTH",
"-44 13 OFFCURVE",
"-30 0 OFFCURVE",
"6 0 CURVE SMOOTH",
"234 0 LINE SMOOTH",
"277 0 OFFCURVE",
"295 8 OFFCURVE",
"300 25 CURVE SMOOTH",
"309 51 OFFCURVE",
"257 48 OFFCURVE",
"276 104 CURVE SMOOTH",
"365 378 LINE SMOOTH"
);
}
);
};
layerId = "FF8CB9F1-2B98-444C-A502-96421F2531A8";
name = "Bold Italic";
paths = (
{
closed = 1;
nodes = (
"714 445 OFFCURVE",
"656 529 OFFCURVE",
"554 529 CURVE SMOOTH",
"489 529 OFFCURVE",
"426 509 OFFCURVE",
"367 425 CURVE",
"371 491 OFFCURVE",
"328 529 OFFCURVE",
"262 529 CURVE SMOOTH",
"182 529 OFFCURVE",
"88 503 OFFCURVE",
"80 471 CURVE SMOOTH",
"71 438 OFFCURVE",
"126 443 OFFCURVE",
"112 395 CURVE SMOOTH",
"23 106 LINE SMOOTH",
"4 46 OFFCURVE",
"-31 59 OFFCURVE",
"-40 31 CURVE",
"-44 13 OFFCURVE",
"-30 0 OFFCURVE",
"6 0 CURVE SMOOTH",
"234 0 LINE SMOOTH",
"277 0 OFFCURVE",
"295 8 OFFCURVE",
"300 25 CURVE SMOOTH",
"308 51 OFFCURVE",
"256 48 OFFCURVE",
"274 104 CURVE SMOOTH",
"336 308 LINE SMOOTH",
"348 347 OFFCURVE",
"377 379 OFFCURVE",
"407 379 CURVE SMOOTH",
"427 379 OFFCURVE",
"444 363 OFFCURVE",
"431 330 CURVE SMOOTH",
"376 186 LINE SMOOTH",
"364 155 OFFCURVE",
"358 126 OFFCURVE",
"358 103 CURVE SMOOTH",
"359 35 OFFCURVE",
"415 -9 OFFCURVE",
"503 -9 CURVE SMOOTH",
"616 -9 OFFCURVE",
"674 55 OFFCURVE",
"673 110 CURVE",
"673 121 OFFCURVE",
"669 132 OFFCURVE",
"662 132 CURVE SMOOTH",
"655 132 OFFCURVE",
"649 111 OFFCURVE",
"630 111 CURVE SMOOTH",
"619 111 OFFCURVE",
"613 122 OFFCURVE",
"619 138 CURVE",
"680 335 LINE SMOOTH"
);
}
);
width = 716;
},
{
associatedMasterId = "FF8CB9F1-2B98-444C-A502-96421F2531A8";
background = {
paths = (
{
closed = 1;
nodes = (
"159 755 OFFCURVE",
"127 740 OFFCURVE",
"127 721 CURVE SMOOTH",
"127 698 OFFCURVE",
"157 681 OFFCURVE",
"138 626 CURVE SMOOTH",
"5 238 LINE SMOOTH",
"-46 88 OFFCURVE",
"46 -4 OFFCURVE",
"175 -4 CURVE SMOOTH",
"255 -4 OFFCURVE",
"294 35 OFFCURVE",
"319 117 CURVE SMOOTH",
"446 533 LINE SMOOTH",
"482 652 OFFCURVE",
"392 755 OFFCURVE",
"224 755 CURVE SMOOTH"
);
},
{
closed = 0;
nodes = (
"552 499 LINE SMOOTH",
"466 271 LINE SMOOTH",
"449 227 OFFCURVE",
"439 189 OFFCURVE",
"439 156 CURVE SMOOTH",
"439 49 OFFCURVE",
"527 -4 OFFCURVE",
"646 -4 CURVE SMOOTH",
"772 -4 OFFCURVE",
"872 88 OFFCURVE",
"872 166 CURVE SMOOTH",
"872 182 OFFCURVE",
"866 198 OFFCURVE",
"856 198 CURVE SMOOTH",
"845 198 OFFCURVE",
"837 168 OFFCURVE",
"810 168 CURVE SMOOTH",
"794 168 OFFCURVE",
"787 183 OFFCURVE",
"794 206 CURVE SMOOTH",
"878 479 LINE SMOOTH",
"925 632 OFFCURVE",
"852 755 OFFCURVE",
"692 755 CURVE SMOOTH",
"586 755 OFFCURVE",
"476 711 OFFCURVE",
"372 535 CURVE",
"425 465 LINE",
"445 528 OFFCURVE",
"479 542 OFFCURVE",
"502 542 CURVE SMOOTH",
"534 542 OFFCURVE",
"559 520 OFFCURVE",
"544 472 CURVE"
);
}
);
};
guideLines = (
{
angle = 72.9336;
position = "{128, 595}";
}
);
layerId = "D9F892F9-75F4-4AA6-A67D-BB0C665F7A39";
name = "Bold Italic Jul 27 15, 12:48";
paths = (
{
closed = 1;
nodes = (
"586 755 OFFCURVE",
"476 711 OFFCURVE",
"372 535 CURVE",
"425 465 LINE",
"445 528 OFFCURVE",
"479 542 OFFCURVE",
"502 542 CURVE SMOOTH",
"534 542 OFFCURVE",
"560 519 OFFCURVE",
"542 472 CURVE SMOOTH",
"466 271 LINE SMOOTH",
"449 227 OFFCURVE",
"439 189 OFFCURVE",
"439 156 CURVE SMOOTH",
"439 49 OFFCURVE",
"527 -4 OFFCURVE",
"646 -4 CURVE SMOOTH",
"772 -4 OFFCURVE",
"872 88 OFFCURVE",
"872 166 CURVE SMOOTH",
"872 182 OFFCURVE",
"866 198 OFFCURVE",
"856 198 CURVE SMOOTH",
"845 198 OFFCURVE",
"837 168 OFFCURVE",
"810 168 CURVE SMOOTH",
"794 168 OFFCURVE",
"787 183 OFFCURVE",
"794 206 CURVE SMOOTH",
"878 479 LINE SMOOTH",
"925 632 OFFCURVE",
"852 755 OFFCURVE",
"692 755 CURVE SMOOTH"
);
},
{
closed = 1;
nodes = (
"159 755 OFFCURVE",
"127 740 OFFCURVE",
"127 721 CURVE SMOOTH",
"127 698 OFFCURVE",
"157 681 OFFCURVE",
"138 626 CURVE SMOOTH",
"5 238 LINE SMOOTH",
"-46 88 OFFCURVE",
"46 -4 OFFCURVE",
"175 -4 CURVE SMOOTH",
"255 -4 OFFCURVE",
"294 35 OFFCURVE",
"319 117 CURVE SMOOTH",
"446 533 LINE SMOOTH",
"482 652 OFFCURVE",
"392 755 OFFCURVE",
"224 755 CURVE SMOOTH"
);
}
);
width = 938;
}
);
leftKerningGroup = n;
rightKerningGroup = n;
unicode = 006E;
},
{
glyphname = o;
lastChange = "2015-10-05 14:52:50 +0000";
layers = (
{
anchors = (
{
name = top;
position = "{403, 500}";
}
);
background = {
paths = (
{
closed = 1;
nodes = (
"258 755 OFFCURVE",
"20 543 OFFCURVE",
"20 251 CURVE SMOOTH",
"20 90 OFFCURVE",
"154 -13 OFFCURVE",
"394 -13 CURVE SMOOTH",
"692 -13 OFFCURVE",
"928 194 OFFCURVE",
"928 486 CURVE SMOOTH",
"928 647 OFFCURVE",
"796 755 OFFCURVE",
"556 755 CURVE SMOOTH"
);
},
{
closed = 1;
nodes = (
"586 629 OFFCURVE",
"612 599 OFFCURVE",
"535 363 CURVE SMOOTH",
"464 147 OFFCURVE",
"423 109 OFFCURVE",
"389 112 CURVE SMOOTH",
"353 112 OFFCURVE",
"326 137 OFFCURVE",
"403 373 CURVE SMOOTH",
"474 589 OFFCURVE",
"516 629 OFFCURVE",
"550 629 CURVE SMOOTH"
);
}
);
};
guideLines = (
{
position = "{205, 375}";
showMeasurement = 1;
}
);
layerId = "FF8CB9F1-2B98-444C-A502-96421F2531A8";
name = "Bold Italic";
paths = (
{
closed = 1;
nodes = (
"209 529 OFFCURVE",
"56 421 OFFCURVE",
"18 263 CURVE SMOOTH",
"-16 116 OFFCURVE",
"51 -9 OFFCURVE",
"282 -9 CURVE SMOOTH",
"460 -9 OFFCURVE",
"605 97 OFFCURVE",
"644 263 CURVE SMOOTH",
"677 402 OFFCURVE",
"615 529 OFFCURVE",
"387 529 CURVE SMOOTH"
);
},
{
closed = 1;
nodes = (
"409 440 OFFCURVE",
"428 419 OFFCURVE",
"378 262 CURVE SMOOTH",
"329 103 OFFCURVE",
"302 76 OFFCURVE",
"278 78 CURVE SMOOTH",
"253 78 OFFCURVE",
"233 96 OFFCURVE",
"284 261 CURVE SMOOTH",
"331 412 OFFCURVE",
"360 440 OFFCURVE",
"384 440 CURVE SMOOTH"
);
}
);
width = 656;
}
);
leftKerningGroup = o;
rightKerningGroup = o;
unicode = 006F;
},
{
glyphname = oslash;
lastChange = "2015-10-04 15:13:33 +0000";
layers = (
{
background = {
components = (
{
name = o;
}
);
};
layerId = "FF8CB9F1-2B98-444C-A502-96421F2531A8";
name = "Bold Italic";
paths = (
{
closed = 1;
nodes = (
"-2 25 OFFCURVE",
"14 0 OFFCURVE",
"35 0 CURVE SMOOTH",
"50 0 OFFCURVE",
"60 6 OFFCURVE",
"71 13 CURVE SMOOTH",
"668 444 LINE SMOOTH",
"683 454 OFFCURVE",
"692 462 OFFCURVE",
"694 475 CURVE SMOOTH",
"699 493 OFFCURVE",
"686 520 OFFCURVE",
"658 520 CURVE SMOOTH",
"647 520 OFFCURVE",
"637 515 OFFCURVE",
"625 507 CURVE SMOOTH",
"30 79 LINE SMOOTH",
"12 66 OFFCURVE",
"5 56 OFFCURVE",
"2 43 CURVE SMOOTH"
);
},
{
closed = 1;
nodes = (
"222 529 OFFCURVE",
"69 421 OFFCURVE",
"31 263 CURVE SMOOTH",
"-3 116 OFFCURVE",
"64 -9 OFFCURVE",
"295 -9 CURVE SMOOTH",
"473 -9 OFFCURVE",
"618 97 OFFCURVE",
"657 263 CURVE SMOOTH",
"690 402 OFFCURVE",
"628 529 OFFCURVE",
"400 529 CURVE SMOOTH"
);
},
{
closed = 1;
nodes = (
"424 440 OFFCURVE",
"445 419 OFFCURVE",
"396 262 CURVE SMOOTH",
"347 103 OFFCURVE",
"318 76 OFFCURVE",
"292 78 CURVE SMOOTH",
"264 78 OFFCURVE",
"242 96 OFFCURVE",
"292 261 CURVE SMOOTH",
"339 412 OFFCURVE",
"370 440 OFFCURVE",
"396 440 CURVE SMOOTH"
);
}
);
width = 682;
}
);
leftKerningGroup = o;
rightKerningGroup = o;
unicode = 00F8;
},
